G04 Layer: TopLayer*
G04 EasyEDA Pro v3.2.148, 2026-08-31 22:48:32*
G04 Gerber Generator version 0.3*
G04 Scale: 100 percent, Rotated: No, Reflected: No*
G04 Dimensions in millimeters*
G04 Leading zeros omitted, absolute positions, 4 integers and 5 decimals*
G04 Generated by one-click*
G04 Object Configs: Pad,Via,Track,Text,Image,Dimension,BoardOutline,BoardCutout,CopperFilled,SolidRegion,FPCStiffener,Line,PlaneZone,ComponentProperty,ComponentSilkscreen,TearDrop*
G04 Layer Configs: 1,2,3,4,5,6,7,8,9,10,11,13,14,71,72,73,74,75,76,77,78,79,80,81,82,83,84,85,86,87,88,56*
G04 Copper Areas: 17*
%FSLAX45Y45*%
%MOMM*%
%ADD10C,0.2032*%
%ADD11C,2.20508*%
%ADD12C,4.20508*%
%ADD13C,3.50508*%
%ADD14C,0.254*%
%ADD15C,7.0*%
%ADD16O,8.4X4.4*%
%ADD17C,0.5072*%
%ADD18C,0.5*%
G75*


G04 Copper Start*
G36*
G01X7027614Y11502116D02*
G01X7027614Y-1272286D01*
G01X35814Y-1272286D01*
G01X35814Y-1003300D01*
G01X316346Y-1003300D01*
G01X318339Y-1033707D01*
G01X324284Y-1063593D01*
G01X334079Y-1092448D01*
G01X347556Y-1119777D01*
G01X364485Y-1145113D01*
G01X384577Y-1168023D01*
G01X407487Y-1188115D01*
G01X432823Y-1205044D01*
G01X460152Y-1218521D01*
G01X489007Y-1228316D01*
G01X518893Y-1234261D01*
G01X549300Y-1236254D01*
G01X949300Y-1236254D01*
G01X979707Y-1234261D01*
G01X1009593Y-1228316D01*
G01X1038448Y-1218521D01*
G01X1065777Y-1205044D01*
G01X1091113Y-1188115D01*
G01X1114023Y-1168023D01*
G01X1134115Y-1145113D01*
G01X1151044Y-1119777D01*
G01X1164521Y-1092448D01*
G01X1174316Y-1063593D01*
G01X1180261Y-1033707D01*
G01X1182254Y-1003300D01*
G01X5904346Y-1003300D01*
G01X5906339Y-1033707D01*
G01X5912284Y-1063593D01*
G01X5922079Y-1092448D01*
G01X5935556Y-1119777D01*
G01X5952485Y-1145113D01*
G01X5972577Y-1168023D01*
G01X5995487Y-1188115D01*
G01X6020823Y-1205044D01*
G01X6048152Y-1218521D01*
G01X6077007Y-1228316D01*
G01X6106893Y-1234261D01*
G01X6137300Y-1236254D01*
G01X6537300Y-1236254D01*
G01X6567707Y-1234261D01*
G01X6597593Y-1228316D01*
G01X6626448Y-1218521D01*
G01X6653777Y-1205044D01*
G01X6679113Y-1188115D01*
G01X6702023Y-1168023D01*
G01X6722115Y-1145113D01*
G01X6739044Y-1119777D01*
G01X6752521Y-1092448D01*
G01X6762316Y-1063593D01*
G01X6768261Y-1033707D01*
G01X6770254Y-1003300D01*
G01X6768261Y-972893D01*
G01X6762316Y-943007D01*
G01X6752521Y-914152D01*
G01X6739044Y-886823D01*
G01X6722115Y-861487D01*
G01X6702023Y-838577D01*
G01X6679113Y-818485D01*
G01X6653777Y-801556D01*
G01X6626448Y-788079D01*
G01X6597593Y-778284D01*
G01X6567707Y-772339D01*
G01X6537300Y-770346D01*
G01X6537300Y-770346D01*
G01X6137300Y-770346D01*
G01X6106893Y-772339D01*
G01X6077007Y-778284D01*
G01X6048152Y-788079D01*
G01X6020823Y-801556D01*
G01X5995487Y-818485D01*
G01X5972577Y-838577D01*
G01X5952485Y-861487D01*
G01X5935556Y-886823D01*
G01X5922079Y-914152D01*
G01X5912284Y-943007D01*
G01X5906339Y-972893D01*
G01X5904346Y-1003300D01*
G01X1182254Y-1003300D01*
G01X1180261Y-972893D01*
G01X1174316Y-943007D01*
G01X1164521Y-914152D01*
G01X1151044Y-886823D01*
G01X1134115Y-861487D01*
G01X1114023Y-838577D01*
G01X1091113Y-818485D01*
G01X1065777Y-801556D01*
G01X1038448Y-788079D01*
G01X1009593Y-778284D01*
G01X979707Y-772339D01*
G01X949300Y-770346D01*
G01X949300Y-770346D01*
G01X549300Y-770346D01*
G01X518893Y-772339D01*
G01X489007Y-778284D01*
G01X460152Y-788079D01*
G01X432823Y-801556D01*
G01X407487Y-818485D01*
G01X384577Y-838577D01*
G01X364485Y-861487D01*
G01X347556Y-886823D01*
G01X334079Y-914152D01*
G01X324284Y-943007D01*
G01X318339Y-972893D01*
G01X316346Y-1003300D01*
G01X35814Y-1003300D01*
G01X35814Y622349D01*
G01X338886Y622349D01*
G01X338886Y568249D01*
G01X340716Y524002D01*
G01X346194Y480057D01*
G01X355282Y436714D01*
G01X367918Y394271D01*
G01X384016Y353015D01*
G01X403466Y313230D01*
G01X426135Y275187D01*
G01X451868Y239145D01*
G01X480489Y205352D01*
G01X511803Y174038D01*
G01X545596Y145416D01*
G01X581638Y119684D01*
G01X619681Y97015D01*
G01X659466Y77565D01*
G01X700722Y61467D01*
G01X743165Y48831D01*
G01X786508Y39743D01*
G01X830453Y34265D01*
G01X874700Y32435D01*
G01X928800Y32435D01*
G01X970774Y34082D01*
G01X1012491Y39011D01*
G01X1053692Y47194D01*
G01X1094127Y58579D01*
G01X1133545Y73096D01*
G01X1171705Y90657D01*
G01X1208371Y111153D01*
G01X1243320Y134459D01*
G01X1276335Y160431D01*
G01X1693270Y-256505D01*
G01X1703318Y-264214D01*
G01X1715019Y-269061D01*
G01X1727575Y-270714D01*
G01X5276575Y-270714D01*
G01X5289131Y-269061D01*
G01X5300832Y-264214D01*
G01X5310880Y-256505D01*
G01X5729254Y161870D01*
G01X5766033Y134264D01*
G01X5805043Y109914D01*
G01X5845997Y88998D01*
G01X5888594Y71670D01*
G01X5932520Y58059D01*
G01X5977451Y48265D01*
G01X6023056Y42359D01*
G01X6069000Y40386D01*
G01X6123100Y40386D01*
G01X6167347Y42216D01*
G01X6211292Y47694D01*
G01X6254635Y56782D01*
G01X6297079Y69418D01*
G01X6338334Y85516D01*
G01X6378119Y104966D01*
G01X6416163Y127634D01*
G01X6452204Y153367D01*
G01X6485997Y181989D01*
G01X6517311Y213303D01*
G01X6545933Y247096D01*
G01X6571666Y283138D01*
G01X6594334Y321181D01*
G01X6613784Y360966D01*
G01X6629882Y402221D01*
G01X6642518Y444665D01*
G01X6651606Y488008D01*
G01X6657084Y531953D01*
G01X6658914Y576200D01*
G01X6658914Y576200D01*
G01X6658914Y9634600D01*
G01X6657084Y9678847D01*
G01X6651606Y9722792D01*
G01X6642518Y9766135D01*
G01X6629882Y9808579D01*
G01X6613784Y9849834D01*
G01X6594334Y9889619D01*
G01X6571666Y9927662D01*
G01X6545933Y9963704D01*
G01X6517311Y9997497D01*
G01X6485997Y10028811D01*
G01X6452204Y10057433D01*
G01X6416163Y10083166D01*
G01X6378119Y10105834D01*
G01X6338334Y10125284D01*
G01X6297079Y10141382D01*
G01X6254635Y10154018D01*
G01X6211292Y10163106D01*
G01X6167347Y10168584D01*
G01X6123100Y10170414D01*
G01X6069000Y10170414D01*
G01X6024279Y10168544D01*
G01X5979870Y10162949D01*
G01X5936083Y10153666D01*
G01X5893224Y10140761D01*
G01X5851591Y10124325D01*
G01X5811476Y10104470D01*
G01X5773157Y10081337D01*
G01X5736903Y10055086D01*
G01X5702967Y10025901D01*
G01X5671585Y9993985D01*
G01X5642976Y9959561D01*
G01X5617340Y9922870D01*
G01X5594856Y9884167D01*
G01X5575680Y9843723D01*
G01X5559947Y9801819D01*
G01X5547767Y9758748D01*
G01X5539224Y9714811D01*
G01X5534378Y9670314D01*
G01X4927600Y9670314D01*
G01X4912614Y9668439D01*
G01X4912614Y9740900D01*
G01X4910861Y9751967D01*
G01X4905774Y9761951D01*
G01X4897851Y9769874D01*
G01X4887867Y9774961D01*
G01X4876800Y9776714D01*
G01X2120900Y9776714D01*
G01X2109833Y9774961D01*
G01X2099849Y9769874D01*
G01X2091926Y9761951D01*
G01X2086839Y9751967D01*
G01X2085086Y9740900D01*
G01X2085086Y9460900D01*
G01X2086839Y9449833D01*
G01X2091926Y9439849D01*
G01X2099849Y9431926D01*
G01X2109833Y9426839D01*
G01X2120900Y9425086D01*
G01X4876800Y9425086D01*
G01X4887867Y9426839D01*
G01X4897851Y9431926D01*
G01X4905774Y9439849D01*
G01X4910861Y9449833D01*
G01X4912614Y9460900D01*
G01X4912614Y9550561D01*
G01X4927600Y9548686D01*
G01X5533186Y9548686D01*
G01X5533186Y8671414D01*
G01X4931150Y8671414D01*
G01X4923189Y8670891D01*
G01X4915364Y8669329D01*
G01X4915364Y8742850D01*
G01X4915364Y8742850D01*
G01X4913611Y8753917D01*
G01X4908524Y8763901D01*
G01X4900601Y8771824D01*
G01X4890617Y8776911D01*
G01X4879550Y8778664D01*
G01X2123650Y8778664D01*
G01X2112583Y8776911D01*
G01X2102599Y8771824D01*
G01X2094676Y8763901D01*
G01X2089589Y8753917D01*
G01X2087836Y8742850D01*
G01X2087836Y8462850D01*
G01X2089589Y8451783D01*
G01X2094676Y8441799D01*
G01X2102599Y8433876D01*
G01X2112583Y8428789D01*
G01X2123650Y8427036D01*
G01X4879550Y8427036D01*
G01X4890617Y8428789D01*
G01X4900601Y8433876D01*
G01X4908524Y8441799D01*
G01X4913611Y8451783D01*
G01X4915364Y8462850D01*
G01X4915364Y8551871D01*
G01X4923189Y8550309D01*
G01X4931150Y8549786D01*
G01X5533186Y8549786D01*
G01X5533186Y7668114D01*
G01X4931150Y7668114D01*
G01X4923189Y7667591D01*
G01X4915364Y7666029D01*
G01X4915364Y7742850D01*
G01X4913611Y7753917D01*
G01X4908524Y7763901D01*
G01X4900601Y7771824D01*
G01X4890617Y7776911D01*
G01X4879550Y7778664D01*
G01X2123650Y7778664D01*
G01X2112583Y7776911D01*
G01X2102599Y7771824D01*
G01X2094676Y7763901D01*
G01X2089589Y7753917D01*
G01X2087836Y7742850D01*
G01X2087836Y7462850D01*
G01X2089589Y7451783D01*
G01X2094676Y7441799D01*
G01X2102599Y7433876D01*
G01X2112583Y7428789D01*
G01X2123650Y7427036D01*
G01X4879550Y7427036D01*
G01X4890617Y7428789D01*
G01X4900601Y7433876D01*
G01X4908524Y7441799D01*
G01X4913611Y7451783D01*
G01X4915364Y7462850D01*
G01X4915364Y7548571D01*
G01X4923189Y7547009D01*
G01X4931150Y7546486D01*
G01X5533186Y7546486D01*
G01X5533186Y6664814D01*
G01X4931150Y6664814D01*
G01X4923189Y6664291D01*
G01X4915364Y6662729D01*
G01X4915364Y6742850D01*
G01X4913611Y6753917D01*
G01X4908524Y6763901D01*
G01X4900601Y6771824D01*
G01X4890617Y6776911D01*
G01X4879550Y6778664D01*
G01X2123650Y6778664D01*
G01X2112583Y6776911D01*
G01X2102599Y6771824D01*
G01X2094676Y6763901D01*
G01X2089589Y6753917D01*
G01X2087836Y6742850D01*
G01X2087836Y6462850D01*
G01X2089589Y6451783D01*
G01X2094676Y6441799D01*
G01X2102599Y6433876D01*
G01X2112583Y6428789D01*
G01X2123650Y6427036D01*
G01X4879550Y6427036D01*
G01X4890617Y6428789D01*
G01X4900601Y6433876D01*
G01X4908524Y6441799D01*
G01X4913611Y6451783D01*
G01X4915364Y6462850D01*
G01X4915364Y6545271D01*
G01X4923189Y6543709D01*
G01X4931150Y6543186D01*
G01X5533186Y6543186D01*
G01X5533186Y5661514D01*
G01X4931150Y5661514D01*
G01X4923189Y5660991D01*
G01X4915364Y5659429D01*
G01X4915364Y5742850D01*
G01X4913611Y5753917D01*
G01X4908524Y5763901D01*
G01X4900601Y5771824D01*
G01X4890617Y5776911D01*
G01X4879550Y5778664D01*
G01X2123650Y5778664D01*
G01X2112583Y5776911D01*
G01X2102599Y5771824D01*
G01X2094676Y5763901D01*
G01X2089589Y5753917D01*
G01X2087836Y5742850D01*
G01X2087836Y5462850D01*
G01X2089589Y5451783D01*
G01X2094676Y5441799D01*
G01X2102599Y5433876D01*
G01X2112583Y5428789D01*
G01X2123650Y5427036D01*
G01X4879550Y5427036D01*
G01X4890617Y5428789D01*
G01X4900601Y5433876D01*
G01X4908524Y5441799D01*
G01X4913611Y5451783D01*
G01X4915364Y5462850D01*
G01X4915364Y5541971D01*
G01X4923189Y5540409D01*
G01X4931150Y5539886D01*
G01X5533186Y5539886D01*
G01X5533186Y4670914D01*
G01X4931150Y4670914D01*
G01X4923189Y4670391D01*
G01X4915364Y4668829D01*
G01X4915364Y4742850D01*
G01X4913611Y4753917D01*
G01X4908524Y4763901D01*
G01X4900601Y4771824D01*
G01X4890617Y4776911D01*
G01X4879550Y4778664D01*
G01X2123650Y4778664D01*
G01X2112583Y4776911D01*
G01X2102599Y4771824D01*
G01X2094676Y4763901D01*
G01X2089589Y4753917D01*
G01X2087836Y4742850D01*
G01X2087836Y4462850D01*
G01X2089589Y4451783D01*
G01X2094676Y4441799D01*
G01X2102599Y4433876D01*
G01X2112583Y4428789D01*
G01X2123650Y4427036D01*
G01X4879550Y4427036D01*
G01X4890617Y4428789D01*
G01X4900601Y4433876D01*
G01X4908524Y4441799D01*
G01X4913611Y4451783D01*
G01X4915364Y4462850D01*
G01X4915364Y4551371D01*
G01X4923189Y4549809D01*
G01X4931150Y4549286D01*
G01X5533186Y4549286D01*
G01X5533186Y3667614D01*
G01X4931150Y3667614D01*
G01X4923189Y3667091D01*
G01X4915364Y3665529D01*
G01X4915364Y3742850D01*
G01X4913611Y3753917D01*
G01X4908524Y3763901D01*
G01X4900601Y3771824D01*
G01X4890617Y3776911D01*
G01X4879550Y3778664D01*
G01X2123650Y3778664D01*
G01X2112583Y3776911D01*
G01X2102599Y3771824D01*
G01X2094676Y3763901D01*
G01X2089589Y3753917D01*
G01X2087836Y3742850D01*
G01X2087836Y3462850D01*
G01X2089589Y3451783D01*
G01X2094676Y3441799D01*
G01X2102599Y3433876D01*
G01X2112583Y3428789D01*
G01X2123650Y3427036D01*
G01X4879550Y3427036D01*
G01X4890617Y3428789D01*
G01X4900601Y3433876D01*
G01X4908524Y3441799D01*
G01X4913611Y3451783D01*
G01X4915364Y3462850D01*
G01X4915364Y3548071D01*
G01X4923189Y3546509D01*
G01X4931150Y3545986D01*
G01X5533186Y3545986D01*
G01X5533186Y2664314D01*
G01X4931150Y2664314D01*
G01X4923189Y2663791D01*
G01X4915364Y2662229D01*
G01X4915364Y2742850D01*
G01X4913611Y2753917D01*
G01X4908524Y2763901D01*
G01X4900601Y2771824D01*
G01X4890617Y2776911D01*
G01X4879550Y2778664D01*
G01X2123650Y2778664D01*
G01X2112583Y2776911D01*
G01X2102599Y2771824D01*
G01X2094676Y2763901D01*
G01X2089589Y2753917D01*
G01X2087836Y2742850D01*
G01X2087836Y2462850D01*
G01X2089589Y2451783D01*
G01X2094676Y2441799D01*
G01X2102599Y2433876D01*
G01X2112583Y2428789D01*
G01X2123650Y2427036D01*
G01X4879550Y2427036D01*
G01X4890617Y2428789D01*
G01X4900601Y2433876D01*
G01X4908524Y2441799D01*
G01X4913611Y2451783D01*
G01X4915364Y2462850D01*
G01X4915364Y2544771D01*
G01X4923189Y2543209D01*
G01X4931150Y2542686D01*
G01X5533186Y2542686D01*
G01X5533186Y1661014D01*
G01X4931150Y1661014D01*
G01X4923189Y1660491D01*
G01X4915364Y1658929D01*
G01X4915364Y1742850D01*
G01X4913611Y1753917D01*
G01X4908524Y1763901D01*
G01X4900601Y1771824D01*
G01X4890617Y1776911D01*
G01X4879550Y1778664D01*
G01X2123650Y1778664D01*
G01X2112583Y1776911D01*
G01X2102599Y1771824D01*
G01X2094676Y1763901D01*
G01X2089589Y1753917D01*
G01X2087836Y1742850D01*
G01X2087836Y1462850D01*
G01X2089589Y1451783D01*
G01X2094676Y1441799D01*
G01X2102599Y1433876D01*
G01X2112583Y1428789D01*
G01X2123650Y1427036D01*
G01X4879550Y1427036D01*
G01X4890617Y1428789D01*
G01X4900601Y1433876D01*
G01X4908524Y1441799D01*
G01X4913611Y1451783D01*
G01X4915364Y1462850D01*
G01X4915364Y1541471D01*
G01X4923189Y1539909D01*
G01X4931150Y1539386D01*
G01X5533186Y1539386D01*
G01X5533186Y670414D01*
G01X4931150Y670414D01*
G01X4923189Y669891D01*
G01X4915364Y668329D01*
G01X4915364Y742850D01*
G01X4913611Y753917D01*
G01X4908524Y763901D01*
G01X4900601Y771824D01*
G01X4890617Y776911D01*
G01X4879550Y778664D01*
G01X2123650Y778664D01*
G01X2112583Y776911D01*
G01X2102599Y771824D01*
G01X2094676Y763901D01*
G01X2089589Y753917D01*
G01X2087836Y742850D01*
G01X2087836Y462850D01*
G01X2089589Y451783D01*
G01X2094676Y441799D01*
G01X2102599Y433876D01*
G01X2112583Y428789D01*
G01X2123650Y427036D01*
G01X4879550Y427036D01*
G01X4890617Y428789D01*
G01X4900601Y433876D01*
G01X4908524Y441799D01*
G01X4913611Y451783D01*
G01X4915364Y462850D01*
G01X4915364Y550871D01*
G01X4923189Y549309D01*
G01X4931150Y548786D01*
G01X5533888Y548786D01*
G01X5537891Y505349D01*
G01X5545414Y462382D01*
G01X5556407Y420170D01*
G01X5570798Y378991D01*
G01X5588490Y339120D01*
G01X5609367Y300819D01*
G01X5633291Y264344D01*
G01X5660102Y229936D01*
G01X5256480Y-173686D01*
G01X1747670Y-173686D01*
G01X1344187Y229797D01*
G01X1371561Y266488D01*
G01X1395703Y305383D01*
G01X1416436Y346196D01*
G01X1433610Y388630D01*
G01X1447100Y432375D01*
G01X1456806Y477111D01*
G01X1462659Y522513D01*
G01X1464614Y568249D01*
G01X1464614Y622349D01*
G01X1462784Y666596D01*
G01X1457306Y710541D01*
G01X1448218Y753884D01*
G01X1435582Y796328D01*
G01X1419484Y837583D01*
G01X1400034Y877368D01*
G01X1377366Y915411D01*
G01X1351633Y951453D01*
G01X1323011Y985246D01*
G01X1291697Y1016560D01*
G01X1257904Y1045182D01*
G01X1221863Y1070915D01*
G01X1183819Y1093583D01*
G01X1144034Y1113033D01*
G01X1102779Y1129131D01*
G01X1060335Y1141767D01*
G01X1016992Y1150855D01*
G01X973047Y1156333D01*
G01X928800Y1158163D01*
G01X874700Y1158163D01*
G01X830453Y1156333D01*
G01X786508Y1150855D01*
G01X743165Y1141767D01*
G01X700722Y1129131D01*
G01X659466Y1113033D01*
G01X619681Y1093583D01*
G01X581638Y1070915D01*
G01X545596Y1045182D01*
G01X511803Y1016560D01*
G01X480489Y985246D01*
G01X451868Y951453D01*
G01X426135Y915411D01*
G01X403466Y877368D01*
G01X384016Y837583D01*
G01X367918Y796328D01*
G01X355282Y753884D01*
G01X346194Y710541D01*
G01X340716Y666596D01*
G01X338886Y622349D01*
G01X35814Y622349D01*
G01X35814Y9613900D01*
G01X538746Y9613900D01*
G01X540734Y9575961D01*
G01X546677Y9538438D01*
G01X556510Y9501741D01*
G01X570125Y9466273D01*
G01X587373Y9432423D01*
G01X608064Y9400561D01*
G01X631973Y9371036D01*
G01X658836Y9344173D01*
G01X688361Y9320264D01*
G01X720223Y9299573D01*
G01X754073Y9282325D01*
G01X789541Y9268710D01*
G01X826238Y9258877D01*
G01X863761Y9252934D01*
G01X901700Y9250946D01*
G01X939639Y9252934D01*
G01X977162Y9258877D01*
G01X1013859Y9268710D01*
G01X1049327Y9282325D01*
G01X1083177Y9299573D01*
G01X1115039Y9320264D01*
G01X1144564Y9344173D01*
G01X1171427Y9371036D01*
G01X1195336Y9400561D01*
G01X1216027Y9432423D01*
G01X1233275Y9466273D01*
G01X1246890Y9501741D01*
G01X1256723Y9538438D01*
G01X1262666Y9575961D01*
G01X1264654Y9613900D01*
G01X1262666Y9651839D01*
G01X1256723Y9689362D01*
G01X1246890Y9726059D01*
G01X1233275Y9761527D01*
G01X1216027Y9795377D01*
G01X1195336Y9827239D01*
G01X1171427Y9856764D01*
G01X1144564Y9883627D01*
G01X1115039Y9907536D01*
G01X1083177Y9928227D01*
G01X1049327Y9945475D01*
G01X1013859Y9959090D01*
G01X977162Y9968923D01*
G01X939639Y9974866D01*
G01X901700Y9976854D01*
G01X863761Y9974866D01*
G01X826238Y9968923D01*
G01X789541Y9959090D01*
G01X754073Y9945475D01*
G01X720223Y9928227D01*
G01X688361Y9907536D01*
G01X658836Y9883627D01*
G01X631973Y9856764D01*
G01X608064Y9827239D01*
G01X587373Y9795377D01*
G01X570125Y9761527D01*
G01X556510Y9726059D01*
G01X546677Y9689362D01*
G01X540734Y9651839D01*
G01X538746Y9613900D01*
G01X538746Y9613900D01*
G01X35814Y9613900D01*
G01X35814Y11226800D01*
G01X316346Y11226800D01*
G01X318339Y11196393D01*
G01X324284Y11166507D01*
G01X334079Y11137652D01*
G01X347556Y11110323D01*
G01X364485Y11084987D01*
G01X384577Y11062077D01*
G01X407487Y11041985D01*
G01X432823Y11025056D01*
G01X460152Y11011579D01*
G01X489007Y11001784D01*
G01X518893Y10995839D01*
G01X549300Y10993846D01*
G01X949300Y10993846D01*
G01X979707Y10995839D01*
G01X1009593Y11001784D01*
G01X1038448Y11011579D01*
G01X1065777Y11025056D01*
G01X1091113Y11041985D01*
G01X1114023Y11062077D01*
G01X1134115Y11084987D01*
G01X1151044Y11110323D01*
G01X1164521Y11137652D01*
G01X1174316Y11166507D01*
G01X1180261Y11196393D01*
G01X1182254Y11226800D01*
G01X5904346Y11226800D01*
G01X5906339Y11196393D01*
G01X5912284Y11166507D01*
G01X5922079Y11137652D01*
G01X5935556Y11110323D01*
G01X5952485Y11084987D01*
G01X5972577Y11062077D01*
G01X5995487Y11041985D01*
G01X6020823Y11025056D01*
G01X6048152Y11011579D01*
G01X6077007Y11001784D01*
G01X6106893Y10995839D01*
G01X6137300Y10993846D01*
G01X6537300Y10993846D01*
G01X6567707Y10995839D01*
G01X6597593Y11001784D01*
G01X6626448Y11011579D01*
G01X6653777Y11025056D01*
G01X6679113Y11041985D01*
G01X6702023Y11062077D01*
G01X6722115Y11084987D01*
G01X6739044Y11110323D01*
G01X6752521Y11137652D01*
G01X6762316Y11166507D01*
G01X6768261Y11196393D01*
G01X6770254Y11226800D01*
G01X6768261Y11257207D01*
G01X6762316Y11287093D01*
G01X6752521Y11315948D01*
G01X6739044Y11343277D01*
G01X6722115Y11368613D01*
G01X6702023Y11391523D01*
G01X6679113Y11411615D01*
G01X6653777Y11428544D01*
G01X6626448Y11442021D01*
G01X6597593Y11451816D01*
G01X6567707Y11457761D01*
G01X6537300Y11459754D01*
G01X6537300Y11459754D01*
G01X6137300Y11459754D01*
G01X6106893Y11457761D01*
G01X6077007Y11451816D01*
G01X6048152Y11442021D01*
G01X6020823Y11428544D01*
G01X5995487Y11411615D01*
G01X5972577Y11391523D01*
G01X5952485Y11368613D01*
G01X5935556Y11343277D01*
G01X5922079Y11315948D01*
G01X5912284Y11287093D01*
G01X5906339Y11257207D01*
G01X5904346Y11226800D01*
G01X1182254Y11226800D01*
G01X1180261Y11257207D01*
G01X1174316Y11287093D01*
G01X1164521Y11315948D01*
G01X1151044Y11343277D01*
G01X1134115Y11368613D01*
G01X1114023Y11391523D01*
G01X1091113Y11411615D01*
G01X1065777Y11428544D01*
G01X1038448Y11442021D01*
G01X1009593Y11451816D01*
G01X979707Y11457761D01*
G01X949300Y11459754D01*
G01X949300Y11459754D01*
G01X549300Y11459754D01*
G01X518893Y11457761D01*
G01X489007Y11451816D01*
G01X460152Y11442021D01*
G01X432823Y11428544D01*
G01X407487Y11411615D01*
G01X384577Y11391523D01*
G01X364485Y11368613D01*
G01X347556Y11343277D01*
G01X334079Y11315948D01*
G01X324284Y11287093D01*
G01X318339Y11257207D01*
G01X316346Y11226800D01*
G01X35814Y11226800D01*
G01X35814Y11502116D01*
G01X7027614Y11502116D01*
G37*
G54D10*
G01X7027614Y11502116D02*
G01X7027614Y-1272286D01*
G01X35814Y-1272286D01*
G01X35814Y11502116D01*
G01X7027614Y11502116D01*
G01X949300Y-770346D02*
G01X549300Y-770346D01*
G03X549300Y-1236254I0J-232954D01*
G01X949300Y-1236254D01*
G03X949300Y-770346I0J232954D01*
G01X949300Y11459754D02*
G01X549300Y11459754D01*
G03X549300Y10993846I0J-232954D01*
G01X949300Y10993846D01*
G03X949300Y11459754I0J232954D01*
G01X4915364Y8742850D02*
G03X4879550Y8778664I-35814J0D01*
G01X2123650Y8778664D01*
G03X2087836Y8742850I0J-35814D01*
G01X2087836Y8462850D01*
G03X2123650Y8427036I35814J0D01*
G01X4879550Y8427036D01*
G03X4915364Y8462850I0J35814D01*
G01X4915364Y8551871D01*
G03X4931150Y8549786I15786J58729D01*
G01X5533186Y8549786D01*
G01X5533186Y7668114D01*
G01X4931150Y7668114D01*
G03X4915364Y7666029I0J-60814D01*
G01X4915364Y7742850D01*
G03X4879550Y7778664I-35814J0D01*
G01X2123650Y7778664D01*
G03X2087836Y7742850I0J-35814D01*
G01X2087836Y7462850D01*
G03X2123650Y7427036I35814J0D01*
G01X4879550Y7427036D01*
G03X4915364Y7462850I0J35814D01*
G01X4915364Y7548571D01*
G03X4931150Y7546486I15786J58729D01*
G01X5533186Y7546486D01*
G01X5533186Y6664814D01*
G01X4931150Y6664814D01*
G03X4915364Y6662729I0J-60814D01*
G01X4915364Y6742850D01*
G03X4879550Y6778664I-35814J0D01*
G01X2123650Y6778664D01*
G03X2087836Y6742850I0J-35814D01*
G01X2087836Y6462850D01*
G03X2123650Y6427036I35814J0D01*
G01X4879550Y6427036D01*
G03X4915364Y6462850I0J35814D01*
G01X4915364Y6545271D01*
G03X4931150Y6543186I15786J58729D01*
G01X5533186Y6543186D01*
G01X5533186Y5661514D01*
G01X4931150Y5661514D01*
G03X4915364Y5659429I0J-60814D01*
G01X4915364Y5742850D01*
G03X4879550Y5778664I-35814J0D01*
G01X2123650Y5778664D01*
G03X2087836Y5742850I0J-35814D01*
G01X2087836Y5462850D01*
G03X2123650Y5427036I35814J0D01*
G01X4879550Y5427036D01*
G03X4915364Y5462850I0J35814D01*
G01X4915364Y5541971D01*
G03X4931150Y5539886I15786J58729D01*
G01X5533186Y5539886D01*
G01X5533186Y4670914D01*
G01X4931150Y4670914D01*
G03X4915364Y4668829I0J-60814D01*
G01X4915364Y4742850D01*
G03X4879550Y4778664I-35814J0D01*
G01X2123650Y4778664D01*
G03X2087836Y4742850I0J-35814D01*
G01X2087836Y4462850D01*
G03X2123650Y4427036I35814J0D01*
G01X4879550Y4427036D01*
G03X4915364Y4462850I0J35814D01*
G01X4915364Y4551371D01*
G03X4931150Y4549286I15786J58729D01*
G01X5533186Y4549286D01*
G01X5533186Y3667614D01*
G01X4931150Y3667614D01*
G03X4915364Y3665529I0J-60814D01*
G01X4915364Y3742850D01*
G03X4879550Y3778664I-35814J0D01*
G01X2123650Y3778664D01*
G03X2087836Y3742850I0J-35814D01*
G01X2087836Y3462850D01*
G03X2123650Y3427036I35814J0D01*
G01X4879550Y3427036D01*
G03X4915364Y3462850I0J35814D01*
G01X4915364Y3548071D01*
G03X4931150Y3545986I15786J58729D01*
G01X5533186Y3545986D01*
G01X5533186Y2664314D01*
G01X4931150Y2664314D01*
G03X4915364Y2662229I0J-60814D01*
G01X4915364Y2742850D01*
G03X4879550Y2778664I-35814J0D01*
G01X2123650Y2778664D01*
G03X2087836Y2742850I0J-35814D01*
G01X2087836Y2462850D01*
G03X2123650Y2427036I35814J0D01*
G01X4879550Y2427036D01*
G03X4915364Y2462850I0J35814D01*
G01X4915364Y2544771D01*
G03X4931150Y2542686I15786J58729D01*
G01X5533186Y2542686D01*
G01X5533186Y1661014D01*
G01X4931150Y1661014D01*
G03X4915364Y1658929I0J-60814D01*
G01X4915364Y1742850D01*
G03X4879550Y1778664I-35814J0D01*
G01X2123650Y1778664D01*
G03X2087836Y1742850I0J-35814D01*
G01X2087836Y1462850D01*
G03X2123650Y1427036I35814J0D01*
G01X4879550Y1427036D01*
G03X4915364Y1462850I0J35814D01*
G01X4915364Y1541471D01*
G03X4931150Y1539386I15786J58729D01*
G01X5533186Y1539386D01*
G01X5533186Y670414D01*
G01X4931150Y670414D01*
G03X4915364Y668329I0J-60814D01*
G01X4915364Y742850D01*
G03X4879550Y778664I-35814J0D01*
G01X2123650Y778664D01*
G03X2087836Y742850I0J-35814D01*
G01X2087836Y462850D01*
G03X2123650Y427036I35814J0D01*
G01X4879550Y427036D01*
G03X4915364Y462850I0J35814D01*
G01X4915364Y550871D01*
G03X4931150Y548786I15786J58729D01*
G01X5533888Y548786D01*
G03X5660102Y229936I535112J27414D01*
G01X5256480Y-173686D01*
G01X1747670Y-173686D01*
G01X1344187Y229797D01*
G03X1464614Y568249I-415387J338452D01*
G01X1464614Y622349D01*
G03X928800Y1158163I-535814J0D01*
G01X874700Y1158163D01*
G03X338886Y622349I0J-535814D01*
G01X338886Y568249D01*
G03X874700Y32435I535814J0D01*
G01X928800Y32435D01*
G03X1276335Y160431I0J535814D01*
G01X1693270Y-256505D01*
G03X1727575Y-270714I34305J34305D01*
G01X5276575Y-270714D01*
G03X5310880Y-256505I0J48514D01*
G01X5729254Y161870D01*
G03X6069000Y40386I339746J414330D01*
G01X6123100Y40386D01*
G03X6658914Y576200I0J535814D01*
G01X6658914Y9634600D01*
G03X6123100Y10170414I-535814J0D01*
G01X6069000Y10170414D01*
G03X5534378Y9670314I0J-535814D01*
G01X4927600Y9670314D01*
G03X4912614Y9668439I0J-60814D01*
G01X4912614Y9740900D01*
G03X4876800Y9776714I-35814J0D01*
G01X2120900Y9776714D01*
G03X2085086Y9740900I0J-35814D01*
G01X2085086Y9460900D01*
G03X2120900Y9425086I35814J0D01*
G01X4876800Y9425086D01*
G03X4912614Y9460900I0J35814D01*
G01X4912614Y9550561D01*
G03X4927600Y9548686I14986J58939D01*
G01X5533186Y9548686D01*
G01X5533186Y8671414D01*
G01X4931150Y8671414D01*
G03X4915364Y8669329I0J-60814D01*
G01X4915364Y8742850D01*
G01X538746Y9613900D02*
G03X1264654Y9613900I362954J0D01*
G03X538746Y9613900I-362954J0D01*
G01X6537300Y11459754D02*
G01X6137300Y11459754D01*
G03X6137300Y10993846I0J-232954D01*
G01X6537300Y10993846D01*
G03X6537300Y11459754I0J232954D01*
G01X6537300Y-770346D02*
G01X6137300Y-770346D01*
G03X6137300Y-1236254I0J-232954D01*
G01X6537300Y-1236254D01*
G03X6537300Y-770346I0J232954D01*
G54D11*
G01X329554Y-1003300D02*
G01X326506Y-1003300D01*
G01X1169046Y-1003300D02*
G01X1172094Y-1003300D01*
G54D12*
G01X749300Y-783554D02*
G01X749300Y-780506D01*
G54D11*
G01X329554Y11226800D02*
G01X326506Y11226800D01*
G01X1169046Y11226800D02*
G01X1172094Y11226800D01*
G54D12*
G01X749300Y11007054D02*
G01X749300Y11004006D01*
G54D13*
G01X551954Y9613900D02*
G01X548906Y9613900D01*
G01X1251446Y9613900D02*
G01X1254494Y9613900D01*
G01X901700Y9963646D02*
G01X901700Y9966694D01*
G01X901700Y9264154D02*
G01X901700Y9261106D01*
G54D11*
G01X5917554Y11226800D02*
G01X5914506Y11226800D01*
G01X6757046Y11226800D02*
G01X6760094Y11226800D01*
G54D12*
G01X6337300Y11007054D02*
G01X6337300Y11004006D01*
G54D11*
G01X5917554Y-1003300D02*
G01X5914506Y-1003300D01*
G01X6757046Y-1003300D02*
G01X6760094Y-1003300D01*
G54D12*
G01X6337300Y-783554D02*
G01X6337300Y-780506D01*
G04 Copper End*

G04 PolygonModel Start*
G54D14*
G01X6101975Y603200D02*
G01X5276575Y-222200D01*
G01X1727575Y-222200D01*
G01X908425Y596950D01*

G04 Rect Start*
G36*
G01X374700Y568249D02*
G01X374700Y622349D01*
G02X874700Y1122349I500000J0D01*
G01X928800Y1122349D01*
G02X1428800Y622349I0J-500000D01*
G01X1428800Y568249D01*
G02X928800Y68249I-500000J0D01*
G01X874700Y68249D01*
G02X374700Y568249I0J500000D01*
G37*
G36*
G01X5569000Y576200D02*
G01X5569000Y9634600D01*
G02X6069000Y10134600I500000J0D01*
G01X6123100Y10134600D01*
G02X6623100Y9634600I0J-500000D01*
G01X6623100Y576200D01*
G02X6123100Y76200I-500000J0D01*
G01X6069000Y76200D01*
G02X5569000Y576200I0J500000D01*
G37*
G04 Rect End*

G04 Pad Start*
G54D15*
G01X901700Y9613900D03*
G01X6101600Y9609500D03*
G01X6101600Y8609500D03*
G01X6101600Y7609500D03*
G01X6101600Y6609500D03*
G01X6101600Y5609500D03*
G01X6101600Y4609500D03*
G01X6101600Y3609500D03*
G01X6101600Y2609500D03*
G01X6101600Y1609500D03*
G01X6101600Y609500D03*
G01X901600Y609500D03*
G54D16*
G01X749300Y11226800D03*
G01X749300Y-1003300D03*
G01X6337300Y-1003300D03*
G01X6337300Y11226800D03*
G04 Pad End*

G04 Track Start*
G54D18*
G01X6114300Y9609500D02*
G01X4927600Y9609500D01*
G01X6117850Y8610600D02*
G01X4931150Y8610600D01*
G01X6117850Y7607300D02*
G01X4931150Y7607300D01*
G01X6117850Y6604000D02*
G01X4931150Y6604000D01*
G01X6117850Y5600700D02*
G01X4931150Y5600700D01*
G01X6117850Y4610100D02*
G01X4931150Y4610100D01*
G01X6117850Y3606800D02*
G01X4931150Y3606800D01*
G01X6117850Y2603500D02*
G01X4931150Y2603500D01*
G01X6117850Y1600200D02*
G01X4931150Y1600200D01*
G01X6117850Y609600D02*
G01X4931150Y609600D01*
G54D14*
G01X7035527Y10934700D02*
G01X38100Y10934700D01*
G01X38100Y-723900D02*
G01X7035527Y-723900D01*
G04 Track End*

M02*

