G04 Layer: TopSolderMaskLayer*
G04 EasyEDA Pro v3.2.148, 2026-08-31 22:48:32*
G04 Gerber Generator version 0.3*
G04 Scale: 100 percent, Rotated: No, Reflected: No*
G04 Dimensions in millimeters*
G04 Leading zeros omitted, absolute positions, 4 integers and 5 decimals*
G04 Generated by one-click*
G04 Object Configs: Pad,Via,Track,Text,Image,Dimension,BoardOutline,BoardCutout,CopperFilled,SolidRegion,FPCStiffener,Line,PlaneZone,ComponentProperty,ComponentSilkscreen,TearDrop*
G04 Layer Configs: 1,2,3,4,5,6,7,8,9,10,11,13,14,71,72,73,74,75,76,77,78,79,80,81,82,83,84,85,86,87,88,56*
G04 Copper Areas: 0*
%FSLAX45Y45*%
%MOMM*%
%ADD10C,0.254*%
%ADD11C,7.0*%
%ADD12O,8.4X4.4*%
%ADD13C,0.8252*%
G75*


G04 Text Start*
G36*
G01X2228149Y11106133D02*
G01X2228149Y11346133D01*
G01X2131179Y11346133D01*
G01X2131179Y11363103D01*
G01X2131785Y11383103D01*
G01X2132391Y11386133D01*
G01X2365118Y11386133D01*
G01X2365118Y11346133D01*
G01X2268149Y11346133D01*
G01X2268149Y11106133D01*
G01X2228149Y11106133D01*
G37*
G36*
G01X4595270Y11106588D02*
G01X4587542Y11107952D01*
G01X4585724Y11112194D01*
G01X4583906Y11117649D01*
G01X4580270Y11127346D01*
G01X4578451Y11132800D01*
G01X4576027Y11138861D01*
G01X4566330Y11165527D01*
G01X4563906Y11171588D01*
G01X4562088Y11177042D01*
G01X4554815Y11196436D01*
G01X4552997Y11201891D01*
G01X4550573Y11207951D01*
G01X4540876Y11234618D01*
G01X4538451Y11240679D01*
G01X4536633Y11246133D01*
G01X4529361Y11265527D01*
G01X4527542Y11270982D01*
G01X4523906Y11280679D01*
G01X4521482Y11286739D01*
G01X4519058Y11294012D01*
G01X4516633Y11300073D01*
G01X4514815Y11305527D01*
G01X4507542Y11324921D01*
G01X4505724Y11330376D01*
G01X4503300Y11336436D01*
G01X4493603Y11363103D01*
G01X4491179Y11369164D01*
G01X4489361Y11374618D01*
G01X4487542Y11379467D01*
G01X4486330Y11383709D01*
G01X4491482Y11385527D01*
G01X4506936Y11386133D01*
G01X4527542Y11386133D01*
G01X4531179Y11377042D01*
G01X4533603Y11370376D01*
G01X4536027Y11364315D01*
G01X4537845Y11358861D01*
G01X4545118Y11339467D01*
G01X4546936Y11334012D01*
G01X4549360Y11327951D01*
G01X4559057Y11301285D01*
G01X4561482Y11295224D01*
G01X4563300Y11289770D01*
G01X4570573Y11270376D01*
G01X4572391Y11264921D01*
G01X4574815Y11258861D01*
G01X4584512Y11232194D01*
G01X4586936Y11226133D01*
G01X4588754Y11220679D01*
G01X4596027Y11201285D01*
G01X4597845Y11195830D01*
G01X4601482Y11186133D01*
G01X4603906Y11180073D01*
G01X4606330Y11172800D01*
G01X4608755Y11166739D01*
G01X4610573Y11161285D01*
G01X4614209Y11151588D01*
G01X4616027Y11147345D01*
G01X4617845Y11147345D01*
G01X4619664Y11150982D01*
G01X4623300Y11160679D01*
G01X4625724Y11166739D01*
G01X4635421Y11193406D01*
G01X4637845Y11199467D01*
G01X4639664Y11204921D01*
G01X4650573Y11234012D01*
G01X4652391Y11239467D01*
G01X4654815Y11245527D01*
G01X4659664Y11258861D01*
G01X4662088Y11264921D01*
G01X4663906Y11270376D01*
G01X4671179Y11289770D01*
G01X4672997Y11295224D01*
G01X4675421Y11301285D01*
G01X4680270Y11314618D01*
G01X4682694Y11320679D01*
G01X4684512Y11326133D01*
G01X4691785Y11345527D01*
G01X4693603Y11350982D01*
G01X4696027Y11357042D01*
G01X4700876Y11370376D01*
G01X4703300Y11376436D01*
G01X4705118Y11382497D01*
G01X4705724Y11386133D01*
G01X4726936Y11386133D01*
G01X4742694Y11385679D01*
G01X4747542Y11384315D01*
G01X4745724Y11378861D01*
G01X4736027Y11352194D01*
G01X4733603Y11346133D01*
G01X4731785Y11340679D01*
G01X4724512Y11321285D01*
G01X4722694Y11315830D01*
G01X4720270Y11309770D01*
G01X4710573Y11283103D01*
G01X4708148Y11277042D01*
G01X4706330Y11271588D01*
G01X4699057Y11252194D01*
G01X4697239Y11246739D01*
G01X4694815Y11240679D01*
G01X4680270Y11200679D01*
G01X4677845Y11194618D01*
G01X4676027Y11189164D01*
G01X4668754Y11169770D01*
G01X4666936Y11164315D01*
G01X4664512Y11158255D01*
G01X4654815Y11131588D01*
G01X4652391Y11125527D01*
G01X4650573Y11120073D01*
G01X4648754Y11115224D01*
G01X4646936Y11109770D01*
G01X4646330Y11106133D01*
G01X4617239Y11106133D01*
G01X4595270Y11106588D01*
G37*
G36*
G01X4776027Y11106133D02*
G01X4776027Y11243103D01*
G01X4776633Y11383103D01*
G01X4777239Y11386133D01*
G01X4860270Y11386133D01*
G01X4946330Y11385527D01*
G01X4949360Y11384921D01*
G01X4949360Y11346133D01*
G01X4817239Y11346133D01*
G01X4817239Y11270982D01*
G01X4942088Y11270982D01*
G01X4942088Y11230982D01*
G01X4817239Y11230982D01*
G01X4817239Y11146133D01*
G01X4955421Y11146133D01*
G01X4955421Y11106133D01*
G01X4776027Y11106133D01*
G37*
G36*
G01X4201482Y11106133D02*
G01X4201482Y11386133D01*
G01X4373603Y11386133D01*
G01X4373603Y11346133D01*
G01X4241482Y11346133D01*
G01X4241482Y11270982D01*
G01X4366330Y11270982D01*
G01X4366330Y11230982D01*
G01X4241482Y11230982D01*
G01X4241482Y11106133D01*
G01X4201482Y11106133D01*
G37*
G36*
G01X4413603Y11106133D02*
G01X4413603Y11386133D01*
G01X4453603Y11386133D01*
G01X4453603Y11106133D01*
G01X4413603Y11106133D01*
G37*
G36*
G01X2488755Y11104921D02*
G01X2463300Y11106133D01*
G01X2460876Y11109770D01*
G01X2453603Y11136436D01*
G01X2451785Y11142497D01*
G01X2449967Y11149770D01*
G01X2448149Y11155224D01*
G01X2446936Y11160073D01*
G01X2445118Y11166739D01*
G01X2443300Y11172194D01*
G01X2440876Y11181891D01*
G01X2431179Y11215830D01*
G01X2428755Y11225527D01*
G01X2421482Y11250982D01*
G01X2420270Y11255830D01*
G01X2418452Y11262497D01*
G01X2416633Y11267952D01*
G01X2415421Y11273406D01*
G01X2411785Y11285527D01*
G01X2409967Y11293406D01*
G01X2405118Y11310376D01*
G01X2403300Y11316436D01*
G01X2402088Y11321285D01*
G01X2400270Y11327951D01*
G01X2398452Y11333406D01*
G01X2396027Y11343103D01*
G01X2393603Y11351588D01*
G01X2392391Y11356436D01*
G01X2390573Y11363103D01*
G01X2388755Y11368558D01*
G01X2387543Y11374012D01*
G01X2385724Y11380073D01*
G01X2385118Y11384315D01*
G01X2390421Y11385679D01*
G01X2405118Y11386133D01*
G01X2425724Y11384921D01*
G01X2427543Y11381891D01*
G01X2432391Y11364921D01*
G01X2433603Y11360073D01*
G01X2435421Y11353406D01*
G01X2437239Y11347951D01*
G01X2438452Y11341891D01*
G01X2440270Y11335224D01*
G01X2442088Y11329770D01*
G01X2443906Y11322497D01*
G01X2446330Y11314012D01*
G01X2448149Y11307951D01*
G01X2449361Y11303103D01*
G01X2451179Y11296436D01*
G01X2452997Y11290982D01*
G01X2456633Y11276436D01*
G01X2458452Y11269770D01*
G01X2460270Y11264315D01*
G01X2462694Y11254618D01*
G01X2472391Y11220679D01*
G01X2474815Y11210982D01*
G01X2479664Y11194012D01*
G01X2480876Y11189164D01*
G01X2482694Y11182497D01*
G01X2484512Y11177042D01*
G01X2485724Y11171588D01*
G01X2487543Y11167345D01*
G01X2489967Y11167952D01*
G01X2491785Y11170982D01*
G01X2492997Y11175830D01*
G01X2494815Y11182497D01*
G01X2496634Y11187951D01*
G01X2497846Y11193406D01*
G01X2499664Y11199467D01*
G01X2501482Y11204921D01*
G01X2503300Y11212194D01*
G01X2505724Y11220073D01*
G01X2507543Y11225527D01*
G01X2508755Y11230376D01*
G01X2510573Y11237042D01*
G01X2512391Y11242497D01*
G01X2513603Y11247346D01*
G01X2515421Y11254012D01*
G01X2517240Y11259467D01*
G01X2529361Y11301891D01*
G01X2530573Y11306739D01*
G01X2532391Y11312800D01*
G01X2534209Y11317648D01*
G01X2535421Y11322497D01*
G01X2537240Y11329164D01*
G01X2539058Y11334618D01*
G01X2540270Y11339467D01*
G01X2542088Y11346133D01*
G01X2544512Y11353406D01*
G01X2548149Y11366739D01*
G01X2552997Y11382497D01*
G01X2554209Y11386133D01*
G01X2575421Y11386133D01*
G01X2591785Y11385527D01*
G01X2598452Y11383709D01*
G01X2600876Y11378861D01*
G01X2617846Y11319467D01*
G01X2619664Y11313406D01*
G01X2621482Y11307951D01*
G01X2622694Y11303103D01*
G01X2624512Y11296436D01*
G01X2626331Y11290982D01*
G01X2627543Y11286133D01*
G01X2629361Y11279467D01*
G01X2631179Y11274012D01*
G01X2632391Y11269164D01*
G01X2634209Y11262497D01*
G01X2636027Y11257043D01*
G01X2637240Y11251588D01*
G01X2640876Y11239467D01*
G01X2642694Y11232194D01*
G01X2646937Y11219467D01*
G01X2648149Y11214618D01*
G01X2649967Y11207951D01*
G01X2651785Y11202497D01*
G01X2652997Y11197648D01*
G01X2654815Y11190982D01*
G01X2656633Y11185527D01*
G01X2657846Y11180073D01*
G01X2659664Y11174618D01*
G01X2660876Y11170376D01*
G01X2661330Y11168406D01*
G01X2662694Y11167345D01*
G01X2664209Y11167345D01*
G01X2665118Y11168558D01*
G01X2668755Y11179467D01*
G01X2671179Y11189164D01*
G01X2678452Y11214618D01*
G01X2679664Y11219467D01*
G01X2681482Y11226133D01*
G01X2683300Y11231588D01*
G01X2684512Y11237042D01*
G01X2686330Y11243709D01*
G01X2688149Y11248558D01*
G01X2689361Y11254012D01*
G01X2691179Y11260679D01*
G01X2692997Y11265527D01*
G01X2694209Y11270982D01*
G01X2696027Y11278255D01*
G01X2697846Y11283709D01*
G01X2699058Y11289164D01*
G01X2702694Y11301285D01*
G01X2704512Y11308558D01*
G01X2706330Y11314012D01*
G01X2709361Y11326133D01*
G01X2711179Y11332194D01*
G01X2713603Y11340679D01*
G01X2714815Y11345527D01*
G01X2716633Y11352194D01*
G01X2718452Y11357648D01*
G01X2720876Y11367345D01*
G01X2723300Y11375830D01*
G01X2725118Y11381891D01*
G01X2726330Y11386133D01*
G01X2743906Y11386133D01*
G01X2764512Y11385527D01*
G01X2766634Y11384618D01*
G01X2766937Y11383103D01*
G01X2759664Y11357648D01*
G01X2758452Y11352800D01*
G01X2756634Y11346133D01*
G01X2754815Y11340679D01*
G01X2752391Y11330982D01*
G01X2748755Y11318254D01*
G01X2746936Y11312194D01*
G01X2745118Y11305527D01*
G01X2743300Y11298255D01*
G01X2738452Y11281285D01*
G01X2736633Y11275224D01*
G01X2735421Y11270376D01*
G01X2733603Y11263709D01*
G01X2731785Y11258255D01*
G01X2729361Y11248558D01*
G01X2726936Y11240073D01*
G01X2725724Y11235224D01*
G01X2723906Y11228557D01*
G01X2722088Y11223103D01*
G01X2719664Y11213406D01*
G01X2712391Y11187951D01*
G01X2711179Y11183103D01*
G01X2709361Y11176436D01*
G01X2707542Y11170982D01*
G01X2706330Y11165527D01*
G01X2704512Y11158861D01*
G01X2702694Y11154012D01*
G01X2701482Y11148558D01*
G01X2699664Y11141285D01*
G01X2697846Y11135830D01*
G01X2696633Y11130982D01*
G01X2694815Y11124315D01*
G01X2692997Y11118861D01*
G01X2691785Y11113406D01*
G01X2689361Y11107345D01*
G01X2682543Y11105527D01*
G01X2665724Y11104921D01*
G01X2640876Y11105527D01*
G01X2636634Y11107952D01*
G01X2634815Y11111588D01*
G01X2633603Y11116436D01*
G01X2631785Y11123103D01*
G01X2629967Y11128558D01*
G01X2617846Y11170982D01*
G01X2616027Y11177042D01*
G01X2603906Y11219467D01*
G01X2601482Y11227345D01*
G01X2599664Y11232800D01*
G01X2598452Y11237648D01*
G01X2596633Y11244315D01*
G01X2594815Y11249770D01*
G01X2587542Y11275224D01*
G01X2586330Y11280073D01*
G01X2584512Y11286133D01*
G01X2582694Y11290982D01*
G01X2581482Y11296436D01*
G01X2579664Y11301891D01*
G01X2578452Y11306133D01*
G01X2577997Y11308103D01*
G01X2576633Y11309164D01*
G01X2574209Y11308558D01*
G01X2572391Y11303709D01*
G01X2570573Y11298255D01*
G01X2569361Y11293406D01*
G01X2567542Y11286739D01*
G01X2565724Y11281285D01*
G01X2558452Y11255830D01*
G01X2556633Y11249770D01*
G01X2544512Y11207345D01*
G01X2542088Y11199467D01*
G01X2540270Y11194012D01*
G01X2539058Y11189164D01*
G01X2537240Y11182497D01*
G01X2535421Y11177042D01*
G01X2534209Y11172194D01*
G01X2532391Y11165527D01*
G01X2530573Y11160073D01*
G01X2522088Y11130376D01*
G01X2520270Y11124315D01*
G01X2518452Y11118861D01*
G01X2517240Y11113406D01*
G01X2514815Y11107345D01*
G01X2507391Y11105527D01*
G01X2488755Y11104921D01*
G37*
G36*
G01X2905118Y11101285D02*
G01X2883906Y11102497D01*
G01X2877240Y11104315D01*
G01X2871785Y11105527D01*
G01X2864512Y11107345D01*
G01X2857845Y11109770D01*
G01X2851785Y11112194D01*
G01X2837239Y11119467D01*
G01X2832997Y11121891D01*
G01X2828149Y11124921D01*
G01X2823906Y11127952D01*
G01X2820876Y11130376D01*
G01X2816633Y11133406D01*
G01X2812391Y11137042D01*
G01X2800270Y11149164D01*
G01X2795421Y11155224D01*
G01X2789361Y11163709D01*
G01X2786937Y11167345D01*
G01X2782088Y11175830D01*
G01X2777240Y11185527D01*
G01X2775421Y11189770D01*
G01X2773603Y11194618D01*
G01X2771179Y11200679D01*
G01X2769361Y11206133D01*
G01X2766937Y11217042D01*
G01X2765724Y11225527D01*
G01X2765118Y11241891D01*
G01X2765294Y11247346D01*
G01X2805118Y11247346D01*
G01X2805724Y11232800D01*
G01X2806936Y11224315D01*
G01X2808149Y11218860D01*
G01X2809967Y11212194D01*
G01X2812391Y11205527D01*
G01X2814815Y11200073D01*
G01X2817239Y11195224D01*
G01X2820270Y11189770D01*
G01X2823906Y11184315D01*
G01X2826936Y11180073D01*
G01X2830573Y11175830D01*
G01X2834209Y11170982D01*
G01X2840270Y11166133D01*
G01X2843300Y11163103D01*
G01X2848148Y11159467D01*
G01X2854209Y11155224D01*
G01X2859058Y11152194D01*
G01X2863906Y11149770D01*
G01X2869967Y11147345D01*
G01X2877240Y11144921D01*
G01X2883300Y11143103D01*
G01X2888755Y11142497D01*
G01X2888755Y11142497D01*
G01X2892997Y11141891D01*
G01X2902694Y11141285D01*
G01X2917240Y11141891D01*
G01X2924512Y11143103D01*
G01X2930573Y11144315D01*
G01X2937239Y11146133D01*
G01X2942088Y11147952D01*
G01X2946330Y11149770D01*
G01X2951179Y11152194D01*
G01X2956633Y11155224D01*
G01X2962088Y11158861D01*
G01X2970573Y11164921D01*
G01X2974815Y11168558D01*
G01X2980876Y11174618D01*
G01X2985724Y11180679D01*
G01X2988755Y11184921D01*
G01X2991785Y11189770D01*
G01X2994209Y11193406D01*
G01X2996633Y11197648D01*
G01X2999058Y11203103D01*
G01X3002694Y11212800D01*
G01X3004512Y11218860D01*
G01X3005724Y11224315D01*
G01X3006936Y11234012D01*
G01X3007543Y11243103D01*
G01X3006936Y11252194D01*
G01X3005724Y11261891D01*
G01X3004512Y11267952D01*
G01X3002694Y11275830D01*
G01X3000270Y11283103D01*
G01X2997845Y11288558D01*
G01X2992997Y11298255D01*
G01X2990573Y11302497D01*
G01X2985724Y11309770D01*
G01X2982694Y11313406D01*
G01X2975421Y11321891D01*
G01X2972391Y11324315D01*
G01X2968148Y11327951D01*
G01X2963300Y11331588D01*
G01X2960270Y11334012D01*
G01X2951785Y11338860D01*
G01X2946936Y11341285D01*
G01X2940876Y11343709D01*
G01X2934209Y11346133D01*
G01X2928149Y11347951D01*
G01X2919664Y11349163D01*
G01X2906937Y11349770D01*
G01X2894209Y11349163D01*
G01X2885724Y11347951D01*
G01X2880270Y11346739D01*
G01X2874209Y11344921D01*
G01X2869361Y11343103D01*
G01X2865118Y11341285D01*
G01X2860270Y11338860D01*
G01X2854815Y11335830D01*
G01X2849361Y11332194D01*
G01X2845118Y11329164D01*
G01X2836027Y11321891D01*
G01X2831785Y11317648D01*
G01X2826936Y11311588D01*
G01X2823300Y11306739D01*
G01X2817239Y11297042D01*
G01X2814815Y11292194D01*
G01X2812391Y11286739D01*
G01X2808755Y11275830D01*
G01X2806936Y11268558D01*
G01X2805724Y11261891D01*
G01X2805118Y11247346D01*
G01X2765294Y11247346D01*
G01X2765724Y11260679D01*
G01X2766937Y11269164D01*
G01X2769361Y11281285D01*
G01X2771179Y11287952D01*
G01X2774815Y11297648D01*
G01X2777240Y11303103D01*
G01X2779664Y11309164D01*
G01X2782088Y11314012D01*
G01X2784512Y11318254D01*
G01X2787543Y11323103D01*
G01X2791179Y11328557D01*
G01X2797240Y11337042D01*
G01X2800876Y11341285D01*
G01X2806936Y11348557D01*
G01X2809967Y11351588D01*
G01X2816027Y11356436D01*
G01X2819058Y11359467D01*
G01X2823906Y11363103D01*
G01X2829967Y11367345D01*
G01X2836027Y11370982D01*
G01X2840876Y11374012D01*
G01X2845724Y11376436D01*
G01X2851179Y11378861D01*
G01X2857239Y11381285D01*
G01X2869967Y11385527D01*
G01X2882088Y11387952D01*
G01X2890573Y11389164D01*
G01X2903906Y11389770D01*
G01X2917240Y11389164D01*
G01X2929967Y11387346D01*
G01X2936633Y11386133D01*
G01X2942694Y11384315D01*
G01X2947542Y11383103D01*
G01X2952997Y11381285D01*
G01X2957845Y11379467D01*
G01X2962088Y11377649D01*
G01X2972997Y11372194D01*
G01X2982694Y11366133D01*
G01X2986936Y11363103D01*
G01X2990573Y11360679D01*
G01X2994209Y11357648D01*
G01X3002694Y11350376D01*
G01X3005724Y11347345D01*
G01X3011785Y11340073D01*
G01X3014815Y11337042D01*
G01X3018452Y11332194D01*
G01X3022694Y11326133D01*
G01X3025724Y11321285D01*
G01X3030573Y11312800D01*
G01X3035421Y11303103D01*
G01X3040876Y11288558D01*
G01X3042694Y11281285D01*
G01X3044512Y11275224D01*
G01X3045724Y11266739D01*
G01X3046937Y11252194D01*
G01X3047543Y11247346D01*
G01X3046937Y11242497D01*
G01X3046330Y11237042D01*
G01X3045724Y11227951D01*
G01X3044512Y11219467D01*
G01X3043300Y11214618D01*
G01X3042088Y11208557D01*
G01X3040270Y11201891D01*
G01X3036634Y11192194D01*
G01X3034209Y11186739D01*
G01X3026330Y11170982D01*
G01X3023300Y11166133D01*
G01X3020876Y11162497D01*
G01X3018452Y11159467D01*
G01X3016027Y11155830D01*
G01X3012997Y11152194D01*
G01X3005724Y11143709D01*
G01X2999664Y11137649D01*
G01X2996633Y11135224D01*
G01X2992391Y11131588D01*
G01X2987542Y11127952D01*
G01X2983300Y11124921D01*
G01X2973603Y11118861D01*
G01X2968148Y11115830D01*
G01X2963300Y11113406D01*
G01X2959058Y11111588D01*
G01X2954209Y11109770D01*
G01X2943300Y11106133D01*
G01X2937239Y11104315D01*
G01X2931785Y11103103D01*
G01X2923300Y11101891D01*
G01X2905118Y11101285D01*
G37*
G36*
G01X3396785Y11105376D02*
G01X3389361Y11106739D01*
G01X3386330Y11111588D01*
G01X3382694Y11117043D01*
G01X3376633Y11126739D01*
G01X3365724Y11143103D01*
G01X3362088Y11149164D01*
G01X3347542Y11170982D01*
G01X3343906Y11177042D01*
G01X3332997Y11193406D01*
G01X3326936Y11203103D01*
G01X3316027Y11219467D01*
G01X3312391Y11225527D01*
G01X3301482Y11241891D01*
G01X3295421Y11251588D01*
G01X3284512Y11267952D01*
G01X3280876Y11274012D01*
G01X3269967Y11290376D01*
G01X3263906Y11300073D01*
G01X3252997Y11316436D01*
G01X3249967Y11321285D01*
G01X3248148Y11324921D01*
G01X3245724Y11327345D01*
G01X3244361Y11300073D01*
G01X3243906Y11217042D01*
G01X3243906Y11106133D01*
G01X3203906Y11106133D01*
G01X3203906Y11384921D01*
G01X3229361Y11384921D01*
G01X3256633Y11383709D01*
G01X3260270Y11379467D01*
G01X3263906Y11374012D01*
G01X3269967Y11364315D01*
G01X3280876Y11347951D01*
G01X3284512Y11341891D01*
G01X3295421Y11325527D01*
G01X3301482Y11315830D01*
G01X3312391Y11299467D01*
G01X3316027Y11293406D01*
G01X3330573Y11271588D01*
G01X3334209Y11265527D01*
G01X3345118Y11249164D01*
G01X3351179Y11239467D01*
G01X3362088Y11223103D01*
G01X3368148Y11213406D01*
G01X3379058Y11197042D01*
G01X3385118Y11187345D01*
G01X3396027Y11170982D01*
G01X3399664Y11164921D01*
G01X3402694Y11161285D01*
G01X3403603Y11188861D01*
G01X3403906Y11272800D01*
G01X3403906Y11384921D01*
G01X3442694Y11384921D01*
G01X3442694Y11104921D01*
G01X3416633Y11104921D01*
G01X3396785Y11105376D01*
G37*
G36*
G01X3491179Y11106133D02*
G01X3491179Y11386133D01*
G01X3531179Y11386133D01*
G01X3531179Y11106133D01*
G01X3491179Y11106133D01*
G37*
G36*
G01X3771482Y11105527D02*
G01X3763906Y11107345D01*
G01X3760876Y11112194D01*
G01X3749967Y11128558D01*
G01X3746330Y11134618D01*
G01X3735421Y11150982D01*
G01X3729361Y11160679D01*
G01X3718452Y11177042D01*
G01X3714815Y11183103D01*
G01X3703906Y11199467D01*
G01X3697846Y11209164D01*
G01X3686936Y11225527D01*
G01X3683300Y11231588D01*
G01X3672391Y11247952D01*
G01X3666330Y11257649D01*
G01X3655421Y11274012D01*
G01X3651785Y11280073D01*
G01X3637239Y11301891D01*
G01X3631179Y11311588D01*
G01X3623906Y11322497D01*
G01X3620876Y11326133D01*
G01X3619967Y11299012D01*
G01X3619664Y11216436D01*
G01X3619664Y11106133D01*
G01X3578452Y11106133D01*
G01X3578452Y11384921D01*
G01X3604512Y11384921D01*
G01X3624512Y11384467D01*
G01X3632391Y11383103D01*
G01X3635421Y11378861D01*
G01X3638451Y11374012D01*
G01X3649361Y11357648D01*
G01X3652997Y11351588D01*
G01X3663906Y11335224D01*
G01X3669967Y11325527D01*
G01X3680876Y11309164D01*
G01X3684512Y11303103D01*
G01X3699058Y11281285D01*
G01X3702694Y11275224D01*
G01X3713603Y11258861D01*
G01X3719664Y11249164D01*
G01X3730573Y11232800D01*
G01X3736633Y11223103D01*
G01X3747542Y11206739D01*
G01X3753603Y11197042D01*
G01X3764512Y11180679D01*
G01X3768148Y11174618D01*
G01X3771785Y11169164D01*
G01X3774209Y11164921D01*
G01X3776633Y11162497D01*
G01X3777997Y11189921D01*
G01X3778451Y11273406D01*
G01X3778451Y11384921D01*
G01X3795421Y11384921D01*
G01X3815421Y11384315D01*
G01X3818452Y11383709D01*
G01X3818452Y11104921D01*
G01X3791785Y11104921D01*
G01X3771482Y11105527D01*
G37*
G36*
G01X3863300Y11106133D02*
G01X3863300Y11386133D01*
G01X4035421Y11386133D01*
G01X4035421Y11346133D01*
G01X3903300Y11346133D01*
G01X3903300Y11270982D01*
G01X4028148Y11270982D01*
G01X4028148Y11230982D01*
G01X3903300Y11230982D01*
G01X3903300Y11146133D01*
G01X4042694Y11146133D01*
G01X4042694Y11106133D01*
G01X3863300Y11106133D01*
G37*
G36*
G01X2494967Y-1110812D02*
G01X2489967Y-1109448D01*
G01X2490573Y-1105812D01*
G01X2491785Y-1092479D01*
G01X2494209Y-1068236D01*
G01X2495421Y-1054903D01*
G01X2497845Y-1030661D01*
G01X2499057Y-1017327D01*
G01X2502694Y-980964D01*
G01X2503906Y-967630D01*
G01X2506330Y-943388D01*
G01X2507542Y-930055D01*
G01X2509967Y-905812D01*
G01X2511179Y-892479D01*
G01X2513603Y-868237D01*
G01X2514815Y-854903D01*
G01X2516027Y-842782D01*
G01X2516633Y-836115D01*
G01X2516633Y-831267D01*
G01X2561482Y-831267D01*
G01X2565118Y-840358D01*
G01X2567542Y-847024D01*
G01X2569967Y-853085D01*
G01X2571785Y-858539D01*
G01X2575421Y-868237D01*
G01X2577239Y-873691D01*
G01X2579664Y-879752D01*
G01X2594209Y-919752D01*
G01X2596633Y-925812D01*
G01X2598451Y-931267D01*
G01X2602088Y-940964D01*
G01X2603906Y-946418D01*
G01X2606330Y-952479D01*
G01X2625724Y-1005812D01*
G01X2628148Y-1011873D01*
G01X2629967Y-1017327D01*
G01X2633603Y-1027024D01*
G01X2635421Y-1032479D01*
G01X2637845Y-1038539D01*
G01X2645118Y-1058539D01*
G01X2647542Y-1062176D01*
G01X2648603Y-1061873D01*
G01X2649360Y-1059751D01*
G01X2651179Y-1054297D01*
G01X2653603Y-1048236D01*
G01X2663300Y-1021570D01*
G01X2665724Y-1015509D01*
G01X2667542Y-1010055D01*
G01X2674815Y-990661D01*
G01X2676633Y-985206D01*
G01X2679058Y-979145D01*
G01X2688755Y-952479D01*
G01X2691179Y-946418D01*
G01X2692997Y-940964D01*
G01X2700270Y-921570D01*
G01X2702088Y-916115D01*
G01X2704512Y-910055D01*
G01X2714209Y-883388D01*
G01X2716633Y-877327D01*
G01X2718452Y-871873D01*
G01X2725724Y-852479D01*
G01X2727542Y-847024D01*
G01X2729967Y-840964D01*
G01X2732391Y-834297D01*
G01X2733603Y-831267D01*
G01X2752997Y-831267D01*
G01X2775421Y-831873D01*
G01X2777694Y-833388D01*
G01X2778451Y-836721D01*
G01X2780270Y-854903D01*
G01X2781482Y-868237D01*
G01X2782694Y-880358D01*
G01X2783906Y-893691D01*
G01X2786330Y-917933D01*
G01X2787542Y-931267D01*
G01X2788754Y-943388D01*
G01X2789967Y-956721D01*
G01X2791179Y-968842D01*
G01X2792391Y-982176D01*
G01X2793603Y-994297D01*
G01X2794815Y-1007630D01*
G01X2796027Y-1019752D01*
G01X2797239Y-1033085D01*
G01X2798452Y-1045206D01*
G01X2799664Y-1058539D01*
G01X2800876Y-1070661D01*
G01X2802088Y-1083994D01*
G01X2803300Y-1096115D01*
G01X2803906Y-1101570D01*
G01X2804512Y-1108236D01*
G01X2805118Y-1111267D01*
G01X2786330Y-1111267D01*
G01X2765724Y-1110055D01*
G01X2764360Y-1107933D01*
G01X2763906Y-1103994D01*
G01X2763300Y-1097327D01*
G01X2762088Y-1085206D01*
G01X2760876Y-1071873D01*
G01X2758451Y-1047630D01*
G01X2757239Y-1034297D01*
G01X2754815Y-1010055D01*
G01X2753603Y-996721D01*
G01X2751179Y-972479D01*
G01X2749967Y-959145D01*
G01X2748754Y-947024D01*
G01X2747542Y-933691D01*
G01X2746330Y-921570D01*
G01X2745724Y-917327D01*
G01X2745118Y-909449D01*
G01X2743906Y-902176D01*
G01X2743300Y-901115D01*
G01X2742694Y-901570D01*
G01X2740876Y-906418D01*
G01X2739058Y-911873D01*
G01X2737845Y-917933D01*
G01X2736027Y-924600D01*
G01X2734209Y-930661D01*
G01X2732391Y-938539D01*
G01X2729967Y-947024D01*
G01X2728148Y-953085D01*
G01X2725118Y-965206D01*
G01X2723300Y-971267D01*
G01X2722088Y-976115D01*
G01X2718452Y-985812D01*
G01X2716633Y-991267D01*
G01X2714209Y-997327D01*
G01X2699664Y-1037327D01*
G01X2697239Y-1043388D01*
G01X2695421Y-1048842D01*
G01X2691785Y-1058539D01*
G01X2689967Y-1063994D01*
G01X2686330Y-1073691D01*
G01X2683906Y-1079751D01*
G01X2681482Y-1087024D01*
G01X2679058Y-1093085D01*
G01X2677239Y-1098539D01*
G01X2673603Y-1108236D01*
G01X2672997Y-1111267D01*
G01X2648148Y-1111267D01*
G01X2629057Y-1110661D01*
G01X2621482Y-1108842D01*
G01X2618451Y-1102782D01*
G01X2599058Y-1049448D01*
G01X2596633Y-1043388D01*
G01X2594815Y-1037933D01*
G01X2591179Y-1028236D01*
G01X2589361Y-1022782D01*
G01X2586936Y-1016721D01*
G01X2572391Y-976721D01*
G01X2570573Y-971267D01*
G01X2567542Y-959145D01*
G01X2565724Y-953085D01*
G01X2562694Y-940964D01*
G01X2560876Y-934903D01*
G01X2557846Y-922782D01*
G01X2555421Y-914297D01*
G01X2553603Y-908236D01*
G01X2552997Y-903994D01*
G01X2552543Y-902479D01*
G01X2551179Y-902782D01*
G01X2549815Y-904752D01*
G01X2549361Y-908236D01*
G01X2547543Y-926418D01*
G01X2546330Y-939751D01*
G01X2543906Y-963994D01*
G01X2542694Y-977327D01*
G01X2540270Y-1001570D01*
G01X2539058Y-1014903D01*
G01X2537846Y-1027024D01*
G01X2536633Y-1040358D01*
G01X2534209Y-1064600D01*
G01X2532997Y-1077933D01*
G01X2530573Y-1102176D01*
G01X2529967Y-1107630D01*
G01X2529967Y-1111267D01*
G01X2509967Y-1111267D01*
G01X2494967Y-1110812D01*
G37*
G36*
G01X2159058Y-1111267D02*
G01X2159058Y-1107630D01*
G01X2159664Y-1102176D01*
G01X2162088Y-1077933D01*
G01X2163300Y-1064600D01*
G01X2165724Y-1040358D01*
G01X2166936Y-1027024D01*
G01X2169361Y-1002782D01*
G01X2170573Y-989449D01*
G01X2172997Y-965206D01*
G01X2174209Y-951873D01*
G01X2177846Y-915509D01*
G01X2179058Y-902176D01*
G01X2181482Y-877933D01*
G01X2182694Y-864600D01*
G01X2185118Y-840358D01*
G01X2185724Y-834903D01*
G01X2185724Y-831267D01*
G01X2207542Y-831267D01*
G01X2224209Y-831721D01*
G01X2230573Y-833085D01*
G01X2232997Y-837327D01*
G01X2234815Y-842782D01*
G01X2238451Y-852479D01*
G01X2240270Y-857933D01*
G01X2243906Y-867630D01*
G01X2246330Y-873691D01*
G01X2248754Y-880964D01*
G01X2251179Y-887024D01*
G01X2252997Y-892479D01*
G01X2256633Y-902176D01*
G01X2258451Y-907630D01*
G01X2260876Y-913691D01*
G01X2275421Y-953691D01*
G01X2277846Y-959751D01*
G01X2279664Y-965206D01*
G01X2283300Y-974903D01*
G01X2285118Y-980358D01*
G01X2287543Y-986418D01*
G01X2302088Y-1026418D01*
G01X2304512Y-1032479D01*
G01X2306330Y-1037933D01*
G01X2309967Y-1047630D01*
G01X2311785Y-1053085D01*
G01X2313603Y-1057933D01*
G01X2315421Y-1060964D01*
G01X2317239Y-1060358D01*
G01X2319058Y-1057327D01*
G01X2320876Y-1052479D01*
G01X2322694Y-1047024D01*
G01X2325118Y-1040964D01*
G01X2334815Y-1014297D01*
G01X2337239Y-1008236D01*
G01X2339058Y-1002782D01*
G01X2346330Y-983388D01*
G01X2348148Y-977933D01*
G01X2350573Y-971873D01*
G01X2360270Y-945206D01*
G01X2362694Y-939145D01*
G01X2364512Y-933691D01*
G01X2371785Y-914297D01*
G01X2373603Y-908842D01*
G01X2376027Y-902782D01*
G01X2385724Y-876115D01*
G01X2388148Y-870055D01*
G01X2389967Y-864600D01*
G01X2397239Y-845206D01*
G01X2400876Y-834297D01*
G01X2401482Y-831267D01*
G01X2423300Y-831267D01*
G01X2439967Y-831721D01*
G01X2446330Y-833085D01*
G01X2447542Y-839145D01*
G01X2448149Y-845206D01*
G01X2449361Y-858539D01*
G01X2450573Y-870661D01*
G01X2451785Y-883994D01*
G01X2452997Y-896115D01*
G01X2454209Y-909449D01*
G01X2456633Y-933691D01*
G01X2457845Y-947024D01*
G01X2459058Y-959145D01*
G01X2460270Y-972479D01*
G01X2461482Y-984600D01*
G01X2462694Y-997933D01*
G01X2463906Y-1010055D01*
G01X2465118Y-1023388D01*
G01X2466330Y-1035509D01*
G01X2467542Y-1048842D01*
G01X2468755Y-1060964D01*
G01X2469967Y-1074297D01*
G01X2472391Y-1098539D01*
G01X2472997Y-1105812D01*
G01X2472997Y-1111267D01*
G01X2432997Y-1111267D01*
G01X2432997Y-1107024D01*
G01X2432391Y-1100964D01*
G01X2431179Y-1087630D01*
G01X2428755Y-1063388D01*
G01X2427543Y-1050055D01*
G01X2426330Y-1037933D01*
G01X2425118Y-1024600D01*
G01X2422694Y-1000358D01*
G01X2421482Y-987024D01*
G01X2419058Y-962782D01*
G01X2417846Y-949448D01*
G01X2415421Y-925206D01*
G01X2414209Y-911873D01*
G01X2413603Y-904600D01*
G01X2413300Y-900661D01*
G01X2412391Y-899752D01*
G01X2410573Y-902176D01*
G01X2407542Y-914297D01*
G01X2405724Y-920358D01*
G01X2402694Y-932479D01*
G01X2400876Y-938539D01*
G01X2397845Y-950661D01*
G01X2396027Y-956721D01*
G01X2392997Y-968842D01*
G01X2390573Y-976721D01*
G01X2376027Y-1016721D01*
G01X2373603Y-1022782D01*
G01X2371785Y-1028236D01*
G01X2368148Y-1037933D01*
G01X2366330Y-1043388D01*
G01X2362694Y-1053085D01*
G01X2360270Y-1059145D01*
G01X2357845Y-1066418D01*
G01X2355421Y-1072479D01*
G01X2353603Y-1077933D01*
G01X2346330Y-1097327D01*
G01X2342694Y-1108236D01*
G01X2342088Y-1111267D01*
G01X2289967Y-1111267D01*
G01X2289361Y-1108236D01*
G01X2285724Y-1098539D01*
G01X2283906Y-1093085D01*
G01X2281482Y-1087024D01*
G01X2266936Y-1047024D01*
G01X2264512Y-1040964D01*
G01X2262694Y-1035509D01*
G01X2259058Y-1025812D01*
G01X2257239Y-1020358D01*
G01X2253603Y-1010661D01*
G01X2251179Y-1004600D01*
G01X2248754Y-997327D01*
G01X2246330Y-991267D01*
G01X2244512Y-985812D01*
G01X2240876Y-976115D01*
G01X2239057Y-968842D01*
G01X2236633Y-960357D01*
G01X2234815Y-954297D01*
G01X2231785Y-942176D01*
G01X2229967Y-936115D01*
G01X2226936Y-923994D01*
G01X2225118Y-917933D01*
G01X2222088Y-905812D01*
G01X2219664Y-900964D01*
G01X2218755Y-901570D01*
G01X2217845Y-910661D01*
G01X2216633Y-923994D01*
G01X2214209Y-948236D01*
G01X2212997Y-961570D01*
G01X2211785Y-973691D01*
G01X2210573Y-987024D01*
G01X2208148Y-1011267D01*
G01X2206936Y-1024600D01*
G01X2204512Y-1048842D01*
G01X2203300Y-1062176D01*
G01X2200876Y-1086418D01*
G01X2199058Y-1106418D01*
G01X2199058Y-1111267D01*
G01X2159058Y-1111267D01*
G37*
G36*
G01X3050573Y-1111267D02*
G01X3031179Y-1110661D01*
G01X3031785Y-1105206D01*
G01X3032391Y-1098539D01*
G01X3034815Y-1074297D01*
G01X3036027Y-1060964D01*
G01X3039663Y-1024600D01*
G01X3040876Y-1011267D01*
G01X3043300Y-987024D01*
G01X3044512Y-973691D01*
G01X3046936Y-949448D01*
G01X3048148Y-936115D01*
G01X3050573Y-911873D01*
G01X3051785Y-898539D01*
G01X3055421Y-862176D01*
G01X3056633Y-848842D01*
G01X3057239Y-844600D01*
G01X3057845Y-836721D01*
G01X3058451Y-831267D01*
G01X3080270Y-831267D01*
G01X3096936Y-831721D01*
G01X3103300Y-833085D01*
G01X3105724Y-838539D01*
G01X3120270Y-878540D01*
G01X3122694Y-884600D01*
G01X3124512Y-890055D01*
G01X3128148Y-899752D01*
G01X3129967Y-905206D01*
G01X3132391Y-911267D01*
G01X3146936Y-951267D01*
G01X3149360Y-957327D01*
G01X3151179Y-962782D01*
G01X3154815Y-972479D01*
G01X3156633Y-977933D01*
G01X3159057Y-983994D01*
G01X3173603Y-1023994D01*
G01X3176027Y-1030055D01*
G01X3177845Y-1035509D01*
G01X3181482Y-1045206D01*
G01X3183300Y-1050661D01*
G01X3186936Y-1060358D01*
G01X3188148Y-1061721D01*
G01X3189361Y-1060964D01*
G01X3191785Y-1056721D01*
G01X3193603Y-1051267D01*
G01X3200876Y-1031873D01*
G01X3202694Y-1026418D01*
G01X3205118Y-1020358D01*
G01X3214815Y-993691D01*
G01X3217239Y-987630D01*
G01X3219058Y-982176D01*
G01X3226330Y-962782D01*
G01X3228148Y-957327D01*
G01X3230573Y-951267D01*
G01X3240270Y-924600D01*
G01X3242694Y-918539D01*
G01X3244512Y-913085D01*
G01X3251785Y-893691D01*
G01X3253603Y-888236D01*
G01X3257239Y-878540D01*
G01X3259664Y-872479D01*
G01X3262088Y-865206D01*
G01X3264512Y-859146D01*
G01X3266330Y-853691D01*
G01X3273603Y-834297D01*
G01X3274209Y-831267D01*
G01X3296027Y-831267D01*
G01X3312542Y-831721D01*
G01X3318451Y-833085D01*
G01X3319664Y-836721D01*
G01X3322088Y-860964D01*
G01X3323300Y-874297D01*
G01X3324512Y-886418D01*
G01X3325724Y-899752D01*
G01X3326936Y-911873D01*
G01X3328148Y-925206D01*
G01X3329361Y-937327D01*
G01X3330573Y-950661D01*
G01X3331785Y-962782D01*
G01X3332997Y-976115D01*
G01X3334209Y-988236D01*
G01X3335421Y-1001570D01*
G01X3336633Y-1013691D01*
G01X3337845Y-1027024D01*
G01X3340270Y-1051267D01*
G01X3341482Y-1064600D01*
G01X3342694Y-1076721D01*
G01X3343906Y-1090054D01*
G01X3345118Y-1102176D01*
G01X3345724Y-1107630D01*
G01X3345724Y-1111267D01*
G01X3305724Y-1111267D01*
G01X3305724Y-1108236D01*
G01X3305118Y-1103388D01*
G01X3302694Y-1079145D01*
G01X3301482Y-1065812D01*
G01X3299057Y-1041570D01*
G01X3297845Y-1028236D01*
G01X3296633Y-1016115D01*
G01X3295421Y-1002782D01*
G01X3292997Y-978539D01*
G01X3291785Y-965206D01*
G01X3289360Y-940964D01*
G01X3288148Y-927630D01*
G01X3286936Y-915509D01*
G01X3286330Y-908236D01*
G01X3285118Y-902176D01*
G01X3283906Y-902479D01*
G01X3282694Y-904600D01*
G01X3280876Y-909449D01*
G01X3279663Y-914903D01*
G01X3277845Y-922176D01*
G01X3276027Y-927630D01*
G01X3274815Y-933085D01*
G01X3272997Y-940358D01*
G01X3271179Y-945812D01*
G01X3269967Y-951267D01*
G01X3268148Y-958539D01*
G01X3266330Y-963994D01*
G01X3265118Y-969448D01*
G01X3263300Y-976115D01*
G01X3260876Y-982782D01*
G01X3258451Y-988843D01*
G01X3256633Y-994297D01*
G01X3252997Y-1003994D01*
G01X3251179Y-1009449D01*
G01X3248754Y-1015509D01*
G01X3234209Y-1055509D01*
G01X3231785Y-1061570D01*
G01X3229967Y-1067024D01*
G01X3226330Y-1076721D01*
G01X3224512Y-1082176D01*
G01X3222088Y-1088236D01*
G01X3214815Y-1108236D01*
G01X3213603Y-1111267D01*
G01X3162694Y-1111267D01*
G01X3161482Y-1107630D01*
G01X3151785Y-1080964D01*
G01X3149360Y-1074903D01*
G01X3147542Y-1069448D01*
G01X3143906Y-1059751D01*
G01X3142088Y-1054297D01*
G01X3139664Y-1048236D01*
G01X3125118Y-1008236D01*
G01X3122694Y-1002176D01*
G01X3120876Y-996721D01*
G01X3117239Y-987024D01*
G01X3115421Y-981570D01*
G01X3113603Y-976721D01*
G01X3111785Y-970661D01*
G01X3109967Y-965206D01*
G01X3108755Y-959751D01*
G01X3106936Y-952479D01*
G01X3105118Y-947024D01*
G01X3103906Y-941570D01*
G01X3102088Y-934297D01*
G01X3100270Y-928842D01*
G01X3099058Y-923388D01*
G01X3097239Y-916115D01*
G01X3095421Y-910661D01*
G01X3094209Y-904600D01*
G01X3092391Y-899752D01*
G01X3091482Y-900206D01*
G01X3090573Y-908236D01*
G01X3088149Y-932479D01*
G01X3086936Y-945812D01*
G01X3084512Y-970054D01*
G01X3083300Y-983388D01*
G01X3080876Y-1007630D01*
G01X3079664Y-1020964D01*
G01X3078452Y-1033085D01*
G01X3077239Y-1046418D01*
G01X3074815Y-1070661D01*
G01X3073603Y-1083994D01*
G01X3072391Y-1096115D01*
G01X3071785Y-1101570D01*
G01X3071179Y-1108236D01*
G01X3070573Y-1111267D01*
G01X3050573Y-1111267D01*
G37*
G36*
G01X2837845Y-1111267D02*
G01X2837845Y-831267D01*
G01X2877845Y-831267D01*
G01X2877845Y-1111267D01*
G01X2837845Y-1111267D01*
G37*
G36*
G01X4723906Y-1111267D02*
G01X4723906Y-974297D01*
G01X4724168Y-913691D01*
G01X4765118Y-913691D01*
G01X4765724Y-956721D01*
G01X4803906Y-957327D01*
G01X4845724Y-956721D01*
G01X4853603Y-954903D01*
G01X4860269Y-951873D01*
G01X4864512Y-948842D01*
G01X4868754Y-945206D01*
G01X4874209Y-939751D01*
G01X4877845Y-933691D01*
G01X4880269Y-928236D01*
G01X4881481Y-918539D01*
G01X4880875Y-907024D01*
G01X4879057Y-900358D01*
G01X4876633Y-894903D01*
G01X4873603Y-889449D01*
G01X4870572Y-885206D01*
G01X4867542Y-882176D01*
G01X4864512Y-879752D01*
G01X4860875Y-877327D01*
G01X4856633Y-874903D01*
G01X4851179Y-873085D01*
G01X4845724Y-871873D01*
G01X4804512Y-871267D01*
G01X4765118Y-871267D01*
G01X4765118Y-913691D01*
G01X4765118Y-913691D01*
G01X4724168Y-913691D01*
G01X4724512Y-834297D01*
G01X4725118Y-831267D01*
G01X4781482Y-831267D01*
G01X4843300Y-831873D01*
G01X4851785Y-833085D01*
G01X4856633Y-834297D01*
G01X4862088Y-835509D01*
G01X4868148Y-837327D01*
G01X4873603Y-839751D01*
G01X4878451Y-842176D01*
G01X4883300Y-845206D01*
G01X4888754Y-848842D01*
G01X4892997Y-851873D01*
G01X4903300Y-862176D01*
G01X4906936Y-867024D01*
G01X4909360Y-870661D01*
G01X4914209Y-879146D01*
G01X4917845Y-888843D01*
G01X4919664Y-894903D01*
G01X4920876Y-900964D01*
G01X4921482Y-912479D01*
G01X4920876Y-925206D01*
G01X4919664Y-930055D01*
G01X4918451Y-935509D01*
G01X4916633Y-942176D01*
G01X4914209Y-948236D01*
G01X4911785Y-953085D01*
G01X4909360Y-957327D01*
G01X4906330Y-962176D01*
G01X4903300Y-966418D01*
G01X4891178Y-978539D01*
G01X4886936Y-982176D01*
G01X4880875Y-985812D01*
G01X4876027Y-988843D01*
G01X4870572Y-991267D01*
G01X4866330Y-993691D01*
G01X4866936Y-996115D01*
G01X4869360Y-1000358D01*
G01X4874209Y-1010055D01*
G01X4880269Y-1020964D01*
G01X4885118Y-1030661D01*
G01X4891178Y-1041570D01*
G01X4896027Y-1051267D01*
G01X4902088Y-1062176D01*
G01X4906936Y-1071873D01*
G01X4911785Y-1080358D01*
G01X4916633Y-1090054D01*
G01X4921482Y-1098539D01*
G01X4926330Y-1108236D01*
G01X4927542Y-1111267D01*
G01X4905724Y-1111267D01*
G01X4882694Y-1110055D01*
G01X4880269Y-1107024D01*
G01X4874815Y-1096115D01*
G01X4871785Y-1091267D01*
G01X4866330Y-1080358D01*
G01X4863300Y-1075509D01*
G01X4858451Y-1065812D01*
G01X4853603Y-1057327D01*
G01X4848148Y-1046418D01*
G01X4845118Y-1041570D01*
G01X4840269Y-1031873D01*
G01X4835421Y-1023388D01*
G01X4832997Y-1018539D01*
G01X4828148Y-1010055D01*
G01X4823300Y-1000358D01*
G01X4822088Y-997327D01*
G01X4765118Y-997327D01*
G01X4765118Y-1111267D01*
G01X4723906Y-1111267D01*
G37*
G36*
G01X4235421Y-1111267D02*
G01X4235421Y-831267D01*
G01X4275421Y-831267D01*
G01X4275421Y-1071267D01*
G01X4411179Y-1071267D01*
G01X4411179Y-1111267D01*
G01X4235421Y-1111267D01*
G37*
G36*
G01X4441027Y-1110812D02*
G01X4436633Y-1109448D01*
G01X4438451Y-1104600D01*
G01X4440270Y-1099145D01*
G01X4443906Y-1089448D01*
G01X4445724Y-1083994D01*
G01X4449360Y-1074297D01*
G01X4451179Y-1068842D01*
G01X4453603Y-1062782D01*
G01X4456027Y-1055509D01*
G01X4465724Y-1028842D01*
G01X4468148Y-1021570D01*
G01X4470572Y-1015509D01*
G01X4474209Y-1004600D01*
G01X4476633Y-998540D01*
G01X4479057Y-991267D01*
G01X4481482Y-985206D01*
G01X4481886Y-983994D01*
G01X4523300Y-983994D01*
G01X4523300Y-987024D01*
G01X4563300Y-987630D01*
G01X4604512Y-987024D01*
G01X4605572Y-985661D01*
G01X4605118Y-982782D01*
G01X4585724Y-929448D01*
G01X4583300Y-923388D01*
G01X4581482Y-917933D01*
G01X4577845Y-908236D01*
G01X4576027Y-902782D01*
G01X4573603Y-896721D01*
G01X4566330Y-876721D01*
G01X4565118Y-874600D01*
G01X4563906Y-874297D01*
G01X4561482Y-877327D01*
G01X4557845Y-888236D01*
G01X4554209Y-897933D01*
G01X4552391Y-903388D01*
G01X4548754Y-913085D01*
G01X4546936Y-918539D01*
G01X4543300Y-928236D01*
G01X4541482Y-933691D01*
G01X4537845Y-943388D01*
G01X4536027Y-948842D01*
G01X4532391Y-958539D01*
G01X4530573Y-963994D01*
G01X4526936Y-973691D01*
G01X4525118Y-979145D01*
G01X4523300Y-983994D01*
G01X4523300Y-983994D01*
G01X4481886Y-983994D01*
G01X4485118Y-974297D01*
G01X4487542Y-968236D01*
G01X4489966Y-960964D01*
G01X4492391Y-954903D01*
G01X4496027Y-943994D01*
G01X4499663Y-934297D01*
G01X4501482Y-928842D01*
G01X4505118Y-919145D01*
G01X4506936Y-913691D01*
G01X4509360Y-907630D01*
G01X4511785Y-900358D01*
G01X4521482Y-873691D01*
G01X4523906Y-866418D01*
G01X4526330Y-860358D01*
G01X4528148Y-854903D01*
G01X4531785Y-845206D01*
G01X4535421Y-834297D01*
G01X4536027Y-831267D01*
G01X4562694Y-831267D01*
G01X4591179Y-831873D01*
G01X4594209Y-834903D01*
G01X4597845Y-844600D01*
G01X4599663Y-850055D01*
G01X4603300Y-859752D01*
G01X4605118Y-865206D01*
G01X4607542Y-871267D01*
G01X4609966Y-878540D01*
G01X4619663Y-905206D01*
G01X4622088Y-912479D01*
G01X4624512Y-918539D01*
G01X4628148Y-929448D01*
G01X4630572Y-935509D01*
G01X4632997Y-942782D01*
G01X4635421Y-948842D01*
G01X4639057Y-959751D01*
G01X4641482Y-965812D01*
G01X4643906Y-973085D01*
G01X4646330Y-979145D01*
G01X4649967Y-990055D01*
G01X4653603Y-999752D01*
G01X4655421Y-1005206D01*
G01X4659057Y-1014903D01*
G01X4660876Y-1020358D01*
G01X4664512Y-1030055D01*
G01X4666330Y-1035509D01*
G01X4669967Y-1045206D01*
G01X4671785Y-1050661D01*
G01X4675421Y-1060358D01*
G01X4677239Y-1065812D01*
G01X4680876Y-1075509D01*
G01X4682694Y-1080964D01*
G01X4685118Y-1087024D01*
G01X4687542Y-1094297D01*
G01X4692391Y-1107630D01*
G01X4693603Y-1111267D01*
G01X4651179Y-1111267D01*
G01X4647542Y-1102176D01*
G01X4645118Y-1095509D01*
G01X4642694Y-1088236D01*
G01X4640270Y-1082176D01*
G01X4636633Y-1071267D01*
G01X4634209Y-1065206D01*
G01X4631785Y-1057933D01*
G01X4622088Y-1031267D01*
G01X4620875Y-1027630D01*
G01X4565118Y-1027630D01*
G01X4508148Y-1028842D01*
G01X4505724Y-1033085D01*
G01X4503300Y-1039752D01*
G01X4500876Y-1047024D01*
G01X4498451Y-1053085D01*
G01X4494815Y-1063994D01*
G01X4491178Y-1073691D01*
G01X4489360Y-1079145D01*
G01X4485724Y-1088842D01*
G01X4483906Y-1094297D01*
G01X4481482Y-1100357D01*
G01X4477845Y-1111267D01*
G01X4456633Y-1111267D01*
G01X4441027Y-1110812D01*
G37*
G36*
G01X3508754Y-1116115D02*
G01X3487542Y-1114903D01*
G01X3480876Y-1113085D01*
G01X3475421Y-1111873D01*
G01X3468149Y-1110055D01*
G01X3461482Y-1107630D01*
G01X3455421Y-1105206D01*
G01X3440876Y-1097933D01*
G01X3431179Y-1091873D01*
G01X3421482Y-1084600D01*
G01X3415421Y-1079751D01*
G01X3406330Y-1070661D01*
G01X3403906Y-1067630D01*
G01X3400270Y-1063388D01*
G01X3396633Y-1058539D01*
G01X3393603Y-1054297D01*
G01X3387542Y-1044600D01*
G01X3384512Y-1039145D01*
G01X3382088Y-1034297D01*
G01X3379664Y-1028842D01*
G01X3374815Y-1015509D01*
G01X3372997Y-1010055D01*
G01X3370573Y-997933D01*
G01X3369361Y-989449D01*
G01X3368755Y-976115D01*
G01X3369014Y-968842D01*
G01X3408754Y-968842D01*
G01X3409360Y-982176D01*
G01X3410573Y-990661D01*
G01X3411785Y-996721D01*
G01X3412997Y-1002176D01*
G01X3414815Y-1008236D01*
G01X3419663Y-1019146D01*
G01X3422088Y-1023994D01*
G01X3425118Y-1029449D01*
G01X3428148Y-1033691D01*
G01X3430573Y-1037327D01*
G01X3433603Y-1040964D01*
G01X3446936Y-1054297D01*
G01X3451785Y-1057933D01*
G01X3455421Y-1060358D01*
G01X3463906Y-1065206D01*
G01X3468755Y-1067630D01*
G01X3474209Y-1070055D01*
G01X3480876Y-1072479D01*
G01X3486936Y-1074297D01*
G01X3492391Y-1074903D01*
G01X3492391Y-1074903D01*
G01X3496633Y-1075509D01*
G01X3506330Y-1076115D01*
G01X3520876Y-1075509D01*
G01X3528148Y-1074297D01*
G01X3533603Y-1073085D01*
G01X3540876Y-1071267D01*
G01X3546936Y-1068842D01*
G01X3552391Y-1066418D01*
G01X3558451Y-1063388D01*
G01X3564512Y-1059751D01*
G01X3568754Y-1056721D01*
G01X3577845Y-1049448D01*
G01X3586936Y-1040358D01*
G01X3589361Y-1037327D01*
G01X3595421Y-1028842D01*
G01X3597845Y-1024600D01*
G01X3602694Y-1014903D01*
G01X3605118Y-1008843D01*
G01X3607542Y-1001570D01*
G01X3609361Y-995509D01*
G01X3610573Y-987024D01*
G01X3611179Y-974297D01*
G01X3610573Y-961570D01*
G01X3609361Y-953085D01*
G01X3608148Y-947630D01*
G01X3606330Y-940358D01*
G01X3603906Y-933691D01*
G01X3601482Y-927630D01*
G01X3599058Y-922782D01*
G01X3596633Y-918539D01*
G01X3593603Y-913691D01*
G01X3591179Y-909449D01*
G01X3588754Y-906418D01*
G01X3581482Y-897933D01*
G01X3575421Y-891873D01*
G01X3572391Y-889449D01*
G01X3568148Y-886418D01*
G01X3562694Y-882782D01*
G01X3557845Y-879752D01*
G01X3553603Y-877327D01*
G01X3548148Y-874903D01*
G01X3541482Y-872479D01*
G01X3536633Y-870661D01*
G01X3524512Y-868237D01*
G01X3511179Y-867630D01*
G01X3497845Y-868237D01*
G01X3493603Y-868843D01*
G01X3486936Y-870055D01*
G01X3480876Y-871873D01*
G01X3475421Y-873691D01*
G01X3468755Y-876115D01*
G01X3462694Y-879146D01*
G01X3456633Y-882782D01*
G01X3448148Y-888843D01*
G01X3443906Y-892479D01*
G01X3440270Y-895509D01*
G01X3437239Y-898539D01*
G01X3434815Y-901570D01*
G01X3431785Y-904600D01*
G01X3428148Y-909449D01*
G01X3422088Y-918539D01*
G01X3420270Y-922176D01*
G01X3418451Y-926418D01*
G01X3416027Y-931873D01*
G01X3413603Y-937933D01*
G01X3411785Y-943994D01*
G01X3410573Y-949448D01*
G01X3409360Y-957933D01*
G01X3408754Y-968842D01*
G01X3369014Y-968842D01*
G01X3369361Y-959145D01*
G01X3370573Y-950661D01*
G01X3371785Y-943388D01*
G01X3373603Y-934903D01*
G01X3376027Y-927024D01*
G01X3378451Y-920358D01*
G01X3380876Y-914297D01*
G01X3388148Y-899752D01*
G01X3390573Y-895509D01*
G01X3393603Y-890661D01*
G01X3396633Y-886418D01*
G01X3399057Y-883388D01*
G01X3401482Y-879752D01*
G01X3404512Y-876115D01*
G01X3407542Y-873085D01*
G01X3411179Y-868843D01*
G01X3415421Y-865206D01*
G01X3421482Y-859146D01*
G01X3431179Y-851873D01*
G01X3436027Y-848842D01*
G01X3440270Y-845812D01*
G01X3444512Y-843388D01*
G01X3449360Y-840964D01*
G01X3454815Y-838539D01*
G01X3468149Y-833691D01*
G01X3473603Y-831873D01*
G01X3485724Y-829448D01*
G01X3494209Y-828236D01*
G01X3505724Y-827630D01*
G01X3520876Y-828236D01*
G01X3529360Y-829448D01*
G01X3536633Y-830661D01*
G01X3545118Y-832479D01*
G01X3552997Y-834903D01*
G01X3559663Y-837327D01*
G01X3565724Y-839751D01*
G01X3575421Y-844600D01*
G01X3580876Y-847630D01*
G01X3585724Y-850661D01*
G01X3589361Y-853085D01*
G01X3595421Y-857933D01*
G01X3599058Y-860358D01*
G01X3602694Y-863388D01*
G01X3611785Y-872479D01*
G01X3616633Y-878540D01*
G01X3619664Y-881570D01*
G01X3625724Y-890055D01*
G01X3628148Y-893691D01*
G01X3630573Y-897933D01*
G01X3633603Y-902782D01*
G01X3636633Y-908842D01*
G01X3641482Y-919752D01*
G01X3643906Y-927024D01*
G01X3646330Y-934903D01*
G01X3648148Y-940964D01*
G01X3649360Y-949448D01*
G01X3650573Y-959145D01*
G01X3651179Y-970054D01*
G01X3650573Y-980964D01*
G01X3649967Y-985812D01*
G01X3649360Y-991873D01*
G01X3648148Y-999146D01*
G01X3646330Y-1007630D01*
G01X3644512Y-1013691D01*
G01X3640270Y-1026418D01*
G01X3637845Y-1031873D01*
G01X3632391Y-1042782D01*
G01X3626330Y-1052479D01*
G01X3623300Y-1056721D01*
G01X3621482Y-1059751D01*
G01X3614209Y-1068842D01*
G01X3600876Y-1082176D01*
G01X3596027Y-1085812D01*
G01X3589967Y-1090661D01*
G01X3585118Y-1093691D01*
G01X3579663Y-1097327D01*
G01X3574209Y-1100357D01*
G01X3564512Y-1105206D01*
G01X3558451Y-1107630D01*
G01X3551785Y-1110055D01*
G01X3546330Y-1111873D01*
G01X3535421Y-1114297D01*
G01X3526936Y-1115509D01*
G01X3508754Y-1116115D01*
G37*
G36*
G01X3686330Y-1111267D02*
G01X3686330Y-970661D01*
G01X3726330Y-970661D01*
G01X3726936Y-1070661D01*
G01X3763300Y-1071267D01*
G01X3804512Y-1070661D01*
G01X3811785Y-1069448D01*
G01X3817239Y-1068236D01*
G01X3824512Y-1066418D01*
G01X3830572Y-1063994D01*
G01X3836027Y-1061570D01*
G01X3842088Y-1058539D01*
G01X3848148Y-1054903D01*
G01X3854209Y-1050661D01*
G01X3859058Y-1047024D01*
G01X3868148Y-1037933D01*
G01X3875421Y-1028236D01*
G01X3877845Y-1024600D01*
G01X3882694Y-1016115D01*
G01X3884512Y-1011873D01*
G01X3886330Y-1007024D01*
G01X3888754Y-1000358D01*
G01X3890573Y-994297D01*
G01X3891785Y-985812D01*
G01X3892391Y-973691D01*
G01X3891785Y-961570D01*
G01X3890573Y-953085D01*
G01X3889361Y-947024D01*
G01X3887542Y-940964D01*
G01X3883906Y-931267D01*
G01X3879058Y-921570D01*
G01X3876027Y-916721D01*
G01X3872997Y-912479D01*
G01X3870573Y-908842D01*
G01X3867542Y-905206D01*
G01X3855421Y-893085D01*
G01X3852391Y-890661D01*
G01X3845118Y-885812D01*
G01X3840876Y-883388D01*
G01X3836027Y-880964D01*
G01X3830572Y-878540D01*
G01X3824512Y-876115D01*
G01X3818451Y-874297D01*
G01X3812997Y-873085D01*
G01X3804512Y-871873D01*
G01X3764512Y-871267D01*
G01X3726330Y-871267D01*
G01X3726330Y-970661D01*
G01X3726330Y-970661D01*
G01X3686330Y-970661D01*
G01X3686330Y-831267D01*
G01X3740876Y-831267D01*
G01X3797239Y-831873D01*
G01X3802088Y-832479D01*
G01X3810573Y-833085D01*
G01X3817845Y-834297D01*
G01X3823300Y-835509D01*
G01X3831179Y-837327D01*
G01X3838451Y-839751D01*
G01X3845118Y-842176D01*
G01X3850573Y-844600D01*
G01X3860270Y-849449D01*
G01X3864512Y-851873D01*
G01X3869361Y-854903D01*
G01X3873603Y-857933D01*
G01X3883300Y-865206D01*
G01X3886330Y-868237D01*
G01X3889967Y-871267D01*
G01X3894209Y-875509D01*
G01X3897845Y-879752D01*
G01X3900876Y-882782D01*
G01X3908148Y-892479D01*
G01X3910573Y-896115D01*
G01X3915421Y-904600D01*
G01X3920270Y-914297D01*
G01X3922694Y-919752D01*
G01X3925118Y-926418D01*
G01X3927542Y-933691D01*
G01X3929360Y-939751D01*
G01X3931785Y-954297D01*
G01X3932391Y-968842D01*
G01X3931785Y-984600D01*
G01X3930573Y-993085D01*
G01X3928754Y-1002782D01*
G01X3926936Y-1008843D01*
G01X3925724Y-1013691D01*
G01X3923906Y-1019146D01*
G01X3922088Y-1023994D01*
G01X3920270Y-1028236D01*
G01X3914815Y-1039145D01*
G01X3908754Y-1048842D01*
G01X3905724Y-1053085D01*
G01X3903300Y-1056721D01*
G01X3900270Y-1060358D01*
G01X3892997Y-1068842D01*
G01X3885724Y-1076115D01*
G01X3879664Y-1080964D01*
G01X3874815Y-1084600D01*
G01X3870573Y-1087630D01*
G01X3865118Y-1091267D01*
G01X3860270Y-1094297D01*
G01X3850573Y-1099145D01*
G01X3846330Y-1100964D01*
G01X3841482Y-1102782D01*
G01X3835421Y-1105206D01*
G01X3829966Y-1107024D01*
G01X3819057Y-1109448D01*
G01X3810573Y-1110661D01*
G01X3747542Y-1111267D01*
G01X3686330Y-1111267D01*
G37*
G36*
G01X4080269Y-1116115D02*
G01X4060876Y-1115509D01*
G01X4054209Y-1114297D01*
G01X4044512Y-1112479D01*
G01X4036633Y-1110055D01*
G01X4029360Y-1107630D01*
G01X4023906Y-1105206D01*
G01X4014209Y-1100357D01*
G01X4009361Y-1097327D01*
G01X4005118Y-1094297D01*
G01X4002088Y-1092479D01*
G01X3999058Y-1090054D01*
G01X3991785Y-1082782D01*
G01X3986936Y-1076721D01*
G01X3983300Y-1071873D01*
G01X3980876Y-1068842D01*
G01X3978451Y-1064600D01*
G01X3976027Y-1059751D01*
G01X3972391Y-1051267D01*
G01X3970573Y-1046418D01*
G01X3968754Y-1040964D01*
G01X3966936Y-1034903D01*
G01X3965724Y-1029449D01*
G01X3964512Y-1020964D01*
G01X3963300Y-1002782D01*
G01X3962694Y-919145D01*
G01X3963300Y-834297D01*
G01X3963906Y-831267D01*
G01X4003906Y-831267D01*
G01X4003906Y-920358D01*
G01X4004512Y-1014903D01*
G01X4005724Y-1022176D01*
G01X4006936Y-1027630D01*
G01X4008754Y-1034297D01*
G01X4011179Y-1040358D01*
G01X4014209Y-1046418D01*
G01X4017239Y-1050661D01*
G01X4024512Y-1059145D01*
G01X4030573Y-1063994D01*
G01X4034209Y-1066418D01*
G01X4038451Y-1068842D01*
G01X4043300Y-1070661D01*
G01X4048754Y-1072479D01*
G01X4056027Y-1074297D01*
G01X4062694Y-1075509D01*
G01X4076027Y-1076115D01*
G01X4092997Y-1075509D01*
G01X4101482Y-1074297D01*
G01X4107542Y-1073085D01*
G01X4114209Y-1071267D01*
G01X4120876Y-1068842D01*
G01X4129361Y-1064600D01*
G01X4132391Y-1062176D01*
G01X4139664Y-1056115D01*
G01X4143300Y-1051267D01*
G01X4146936Y-1045812D01*
G01X4149361Y-1041570D01*
G01X4151179Y-1037327D01*
G01X4152997Y-1032479D01*
G01X4154815Y-1026418D01*
G01X4156027Y-1020964D01*
G01X4157239Y-1002782D01*
G01X4157845Y-916115D01*
G01X4157845Y-831267D01*
G01X4196633Y-831267D01*
G01X4196633Y-922176D01*
G01X4196027Y-1014903D01*
G01X4194815Y-1024600D01*
G01X4193603Y-1030661D01*
G01X4191785Y-1039145D01*
G01X4189360Y-1047024D01*
G01X4186936Y-1053085D01*
G01X4184512Y-1058539D01*
G01X4181482Y-1064600D01*
G01X4177845Y-1070055D01*
G01X4174815Y-1074903D01*
G01X4171785Y-1078539D01*
G01X4164512Y-1087024D01*
G01X4161482Y-1089448D01*
G01X4157239Y-1093085D01*
G01X4152391Y-1096721D01*
G01X4148754Y-1099145D01*
G01X4140270Y-1103994D01*
G01X4131785Y-1107630D01*
G01X4126936Y-1109448D01*
G01X4121482Y-1111267D01*
G01X4114815Y-1113085D01*
G01X4108754Y-1114297D01*
G01X4100269Y-1115509D01*
G01X4080269Y-1116115D01*
G37*
G04 Text End*

G04 PolygonModel Start*
G54D10*
G01X6101975Y603200D02*
G01X5276575Y-222200D01*
G01X1727575Y-222200D01*
G01X908425Y596950D01*
G01X38100Y10934700D02*
G01X7035527Y10934700D01*
G01X38100Y-723900D02*
G01X7035527Y-723900D01*

G04 Rect Start*
G36*
G01X374700Y569900D02*
G01X374700Y624000D01*
G02X874700Y1124000I500000J0D01*
G01X928800Y1124000D01*
G02X1428800Y624000I0J-500000D01*
G01X1428800Y569900D01*
G02X928800Y69900I-500000J0D01*
G01X874700Y69900D01*
G02X374700Y569900I0J500000D01*
G37*
G36*
G01X5569000Y578150D02*
G01X5569000Y9636550D01*
G02X6069000Y10136550I500000J0D01*
G01X6123100Y10136550D01*
G02X6623100Y9636550I0J-500000D01*
G01X6623100Y578150D01*
G02X6123100Y78150I-500000J0D01*
G01X6069000Y78150D01*
G02X5569000Y578150I0J500000D01*
G37*
G04 Rect End*

G04 Pad Start*
G54D11*
G01X901700Y9613900D03*
G01X6101600Y9609500D03*
G01X6101600Y8609500D03*
G01X6101600Y7609500D03*
G01X6101600Y6609500D03*
G01X6101600Y5609500D03*
G01X6101600Y4609500D03*
G01X6101600Y3609500D03*
G01X6101600Y2609500D03*
G01X6101600Y1609500D03*
G01X6101600Y609500D03*
G01X901600Y609500D03*
G54D12*
G01X749300Y11226800D03*
G01X749300Y-1003300D03*
G01X6337300Y-1003300D03*
G01X6337300Y11226800D03*
G04 Pad End*

M02*

