G04 Layer: BoardOutlineLayer*
G04 EasyEDA Pro v3.2.148, 2026-08-31 22:48:32*
G04 Gerber Generator version 0.3*
G04 Scale: 100 percent, Rotated: No, Reflected: No*
G04 Dimensions in millimeters*
G04 Leading zeros omitted, absolute positions, 4 integers and 5 decimals*
G04 Generated by one-click*
G04 Object Configs: Pad,Via,Track,Text,Image,Dimension,BoardOutline,BoardCutout,CopperFilled,SolidRegion,FPCStiffener,Line,PlaneZone,ComponentProperty,ComponentSilkscreen,TearDrop*
G04 Layer Configs: 1,2,3,4,5,6,7,8,9,10,11,13,14,71,72,73,74,75,76,77,78,79,80,81,82,83,84,85,86,87,88,56*
G04 Copper Areas: 0*
%FSLAX45Y45*%
%MOMM*%
%ADD10C,0.254*%
%ADD11C,0.0254*%
%ADD12C,0.1250*%
G75*


G04 Rect Start*
G54D10*
G01X0Y-1308100D02*
G01X0Y11537930D01*
G01X7063428Y11537930D01*
G01X7063428Y-1308100D01*
G01X0Y-1308100D01*
G54D11*
G01X2120900Y9460900D02*
G01X2120900Y9740900D01*
G01X4876800Y9740900D01*
G01X4876800Y9460900D01*
G01X2120900Y9460900D01*
G01X2123650Y8462850D02*
G01X2123650Y8742850D01*
G01X4879550Y8742850D01*
G01X4879550Y8462850D01*
G01X2123650Y8462850D01*
G01X2123650Y7462850D02*
G01X2123650Y7742850D01*
G01X4879550Y7742850D01*
G01X4879550Y7462850D01*
G01X2123650Y7462850D01*
G01X2123650Y6462850D02*
G01X2123650Y6742850D01*
G01X4879550Y6742850D01*
G01X4879550Y6462850D01*
G01X2123650Y6462850D01*
G01X2123650Y5462850D02*
G01X2123650Y5742850D01*
G01X4879550Y5742850D01*
G01X4879550Y5462850D01*
G01X2123650Y5462850D01*
G01X2123650Y4462850D02*
G01X2123650Y4742850D01*
G01X4879550Y4742850D01*
G01X4879550Y4462850D01*
G01X2123650Y4462850D01*
G01X2123650Y3462850D02*
G01X2123650Y3742850D01*
G01X4879550Y3742850D01*
G01X4879550Y3462850D01*
G01X2123650Y3462850D01*
G01X2123650Y2462850D02*
G01X2123650Y2742850D01*
G01X4879550Y2742850D01*
G01X4879550Y2462850D01*
G01X2123650Y2462850D01*
G01X2123650Y1462850D02*
G01X2123650Y1742850D01*
G01X4879550Y1742850D01*
G01X4879550Y1462850D01*
G01X2123650Y1462850D01*
G01X2123650Y462850D02*
G01X2123650Y742850D01*
G01X4879550Y742850D01*
G01X4879550Y462850D01*
G01X2123650Y462850D01*
G04 Rect End*

M02*

