G04 Layer: TopSilkscreenLayer*
G04 EasyEDA Pro v3.2.148, 2026-08-31 22:48:32*
G04 Gerber Generator version 0.3*
G04 Scale: 100 percent, Rotated: No, Reflected: No*
G04 Dimensions in millimeters*
G04 Leading zeros omitted, absolute positions, 4 integers and 5 decimals*
G04 Generated by one-click*
G04 Object Configs: Pad,Via,Track,Text,Image,Dimension,BoardOutline,BoardCutout,CopperFilled,SolidRegion,FPCStiffener,Line,PlaneZone,ComponentProperty,ComponentSilkscreen,TearDrop*
G04 Layer Configs: 1,2,3,4,5,6,7,8,9,10,11,13,14,71,72,73,74,75,76,77,78,79,80,81,82,83,84,85,86,87,88,56*
G04 Copper Areas: 0*
%FSLAX45Y45*%
%MOMM*%
%ADD10C,0.254*%
%ADD11C,0.2537*%
G75*


G04 Text Start*
G36*
G01X975591Y8788862D02*
G01X981364Y8787823D01*
G01X996834Y8787476D01*
G01X1017154Y8787476D01*
G01X1017154Y8999913D01*
G01X1014846Y9000374D01*
G01X999606Y9000836D01*
G01X986674Y9000836D01*
G01X986674Y8915862D01*
G01X986328Y8852246D01*
G01X985289Y8831349D01*
G01X983442Y8833196D01*
G01X981594Y8836429D01*
G01X976053Y8844742D01*
G01X971434Y8852131D01*
G01X963122Y8864600D01*
G01X960351Y8869218D01*
G01X949267Y8885844D01*
G01X946496Y8890462D01*
G01X938184Y8902931D01*
G01X933566Y8910320D01*
G01X925253Y8922789D01*
G01X922482Y8927407D01*
G01X911398Y8944033D01*
G01X908627Y8948651D01*
G01X900314Y8961120D01*
G01X895696Y8968509D01*
G01X887384Y8980978D01*
G01X884613Y8985596D01*
G01X876300Y8998066D01*
G01X873529Y9000374D01*
G01X853209Y9000836D01*
G01X834274Y9000836D01*
G01X834274Y8788400D01*
G01X864754Y8788400D01*
G01X864754Y8872913D01*
G01X865101Y8936182D01*
G01X866140Y8956964D01*
G01X867987Y8955116D01*
G01X869834Y8951884D01*
G01X872606Y8947727D01*
G01X875376Y8943109D01*
G01X883689Y8930640D01*
G01X888307Y8923251D01*
G01X896620Y8910782D01*
G01X901238Y8903393D01*
G01X909551Y8890924D01*
G01X914169Y8883534D01*
G01X922482Y8871066D01*
G01X925253Y8866447D01*
G01X933566Y8853978D01*
G01X938184Y8846589D01*
G01X946496Y8834120D01*
G01X949267Y8829502D01*
G01X957580Y8817033D01*
G01X962198Y8809644D01*
G01X970511Y8797174D01*
G01X973282Y8792556D01*
G01X975591Y8788862D01*
G37*
G36*
G01X767773Y8895080D02*
G01X767773Y8788400D01*
G01X798253Y8788400D01*
G01X798253Y9001760D01*
G01X767773Y9001760D01*
G01X767773Y8895080D01*
G37*
G36*
G01X688340Y1240906D02*
G01X672176Y1241829D01*
G01X667096Y1243214D01*
G01X662940Y1244138D01*
G01X657398Y1245524D01*
G01X652318Y1247371D01*
G01X647700Y1249218D01*
G01X636616Y1254760D01*
G01X632922Y1257069D01*
G01X628766Y1259840D01*
G01X625533Y1262149D01*
G01X616296Y1269538D01*
G01X611678Y1274156D01*
G01X607984Y1278774D01*
G01X605674Y1281084D01*
G01X601056Y1287549D01*
G01X599209Y1289858D01*
G01X597362Y1293091D01*
G01X592744Y1301404D01*
G01X590896Y1305560D01*
G01X589511Y1309254D01*
G01X588126Y1312487D01*
G01X586740Y1316644D01*
G01X585354Y1321262D01*
G01X583969Y1326342D01*
G01X583046Y1330960D01*
G01X582122Y1337426D01*
G01X581660Y1348047D01*
G01X581814Y1352204D01*
G01X612140Y1352204D01*
G01X612602Y1342967D01*
G01X613526Y1336502D01*
G01X614449Y1331422D01*
G01X615834Y1325880D01*
G01X617220Y1322186D01*
G01X619991Y1315720D01*
G01X621376Y1312949D01*
G01X623224Y1309716D01*
G01X625994Y1305098D01*
G01X628766Y1300942D01*
G01X631074Y1298171D01*
G01X641234Y1288011D01*
G01X644929Y1285240D01*
G01X647700Y1283393D01*
G01X654166Y1279698D01*
G01X657860Y1277851D01*
G01X662016Y1276004D01*
G01X667096Y1274156D01*
G01X671714Y1272771D01*
G01X675871Y1272309D01*
G01X675871Y1272309D01*
G01X679104Y1271847D01*
G01X686493Y1271386D01*
G01X697576Y1271847D01*
G01X703118Y1272771D01*
G01X707736Y1273694D01*
G01X712816Y1275080D01*
G01X716511Y1276466D01*
G01X719744Y1277851D01*
G01X727133Y1281546D01*
G01X730827Y1283854D01*
G01X734060Y1286164D01*
G01X736369Y1287549D01*
G01X738678Y1289396D01*
G01X747914Y1298633D01*
G01X749762Y1300942D01*
G01X754380Y1307407D01*
G01X756227Y1310640D01*
G01X759922Y1318029D01*
G01X761769Y1322647D01*
G01X763616Y1328189D01*
G01X765002Y1332807D01*
G01X765926Y1339273D01*
G01X766387Y1348971D01*
G01X765926Y1358669D01*
G01X765002Y1365134D01*
G01X764078Y1369753D01*
G01X762693Y1374833D01*
G01X761307Y1378989D01*
G01X759922Y1382684D01*
G01X756227Y1390073D01*
G01X754380Y1393306D01*
G01X752533Y1396076D01*
G01X751147Y1398386D01*
G01X749300Y1400694D01*
G01X743758Y1407160D01*
G01X739140Y1411778D01*
G01X735446Y1414549D01*
G01X730827Y1417782D01*
G01X726671Y1420553D01*
G01X722514Y1422862D01*
G01X718358Y1424709D01*
G01X713740Y1426556D01*
G01X709584Y1427942D01*
G01X700347Y1429789D01*
G01X690187Y1430251D01*
G01X680027Y1429789D01*
G01X676794Y1429327D01*
G01X671714Y1428404D01*
G01X667096Y1427018D01*
G01X662940Y1425633D01*
G01X657860Y1423786D01*
G01X653242Y1421476D01*
G01X648624Y1418706D01*
G01X642158Y1414087D01*
G01X638926Y1411316D01*
G01X629689Y1402080D01*
G01X626918Y1398386D01*
G01X624147Y1394229D01*
G01X622300Y1390996D01*
G01X619529Y1385454D01*
G01X617682Y1381298D01*
G01X615834Y1376218D01*
G01X614449Y1371600D01*
G01X613526Y1367906D01*
G01X612602Y1361440D01*
G01X612140Y1352204D01*
G01X581814Y1352204D01*
G01X582122Y1360516D01*
G01X583046Y1366982D01*
G01X583969Y1372524D01*
G01X584893Y1376218D01*
G01X585816Y1380374D01*
G01X587202Y1384993D01*
G01X589049Y1389611D01*
G01X590896Y1394691D01*
G01X594591Y1402080D01*
G01X598286Y1408546D01*
G01X600594Y1412702D01*
G01X602904Y1415934D01*
G01X604751Y1418244D01*
G01X606598Y1421014D01*
G01X608907Y1423786D01*
G01X612140Y1427018D01*
G01X614911Y1430251D01*
G01X617220Y1432098D01*
G01X621838Y1436716D01*
G01X629227Y1442258D01*
G01X632922Y1444567D01*
G01X636154Y1446876D01*
G01X639387Y1448724D01*
G01X643082Y1450571D01*
G01X647238Y1452418D01*
G01X657398Y1456113D01*
G01X661554Y1457498D01*
G01X670791Y1459346D01*
G01X677256Y1460269D01*
G01X686031Y1460731D01*
G01X697576Y1460269D01*
G01X704042Y1459346D01*
G01X709584Y1458422D01*
G01X716049Y1457036D01*
G01X722053Y1455189D01*
G01X727133Y1453342D01*
G01X731751Y1451494D01*
G01X739140Y1447800D01*
G01X743296Y1445491D01*
G01X746991Y1443182D01*
G01X749762Y1441334D01*
G01X752071Y1439949D01*
G01X754380Y1438102D01*
G01X759922Y1433484D01*
G01X766849Y1426556D01*
G01X770544Y1421938D01*
G01X772853Y1419629D01*
G01X774700Y1417320D01*
G01X777009Y1414087D01*
G01X782551Y1404851D01*
G01X784860Y1401156D01*
G01X789016Y1391458D01*
G01X790402Y1387764D01*
G01X792249Y1382684D01*
G01X793634Y1378066D01*
G01X795482Y1368829D01*
G01X796406Y1360516D01*
G01X796867Y1352204D01*
G01X796406Y1343891D01*
G01X795944Y1340196D01*
G01X795482Y1335578D01*
G01X794558Y1330036D01*
G01X793173Y1323571D01*
G01X791787Y1318953D01*
G01X788554Y1309254D01*
G01X786707Y1305098D01*
G01X782551Y1296786D01*
G01X777933Y1289396D01*
G01X775624Y1286164D01*
G01X774238Y1283854D01*
G01X768696Y1276927D01*
G01X758536Y1266767D01*
G01X753918Y1263073D01*
G01X750224Y1260302D01*
G01X746529Y1257993D01*
G01X742373Y1255222D01*
G01X738216Y1252913D01*
G01X730827Y1249218D01*
G01X726209Y1247371D01*
G01X721129Y1245524D01*
G01X716973Y1244138D01*
G01X708660Y1242291D01*
G01X702194Y1241367D01*
G01X688340Y1240906D01*
G37*
G36*
G01X907704Y1240906D02*
G01X892926Y1241367D01*
G01X888769Y1242291D01*
G01X884151Y1243214D01*
G01X880918Y1243676D01*
G01X877224Y1244600D01*
G01X873067Y1245986D01*
G01X869373Y1247371D01*
G01X862907Y1250142D01*
G01X859674Y1251989D01*
G01X855518Y1254298D01*
G01X850900Y1257531D01*
G01X847206Y1260302D01*
G01X839354Y1268153D01*
G01X836584Y1271847D01*
G01X834736Y1274156D01*
G01X832889Y1276927D01*
G01X829194Y1283393D01*
G01X827347Y1287087D01*
G01X825500Y1291706D01*
G01X822267Y1301404D01*
G01X820420Y1311564D01*
G01X819496Y1320800D01*
G01X819034Y1390073D01*
G01X819034Y1457960D01*
G01X849514Y1457960D01*
G01X849514Y1393306D01*
G01X849976Y1327266D01*
G01X850438Y1323109D01*
G01X850900Y1316182D01*
G01X852286Y1308793D01*
G01X854133Y1302789D01*
G01X855980Y1298633D01*
G01X857827Y1294938D01*
G01X859674Y1291706D01*
G01X861984Y1288473D01*
G01X865678Y1284316D01*
G01X869373Y1281546D01*
G01X871682Y1279698D01*
G01X874914Y1277851D01*
G01X879071Y1276004D01*
G01X884151Y1274156D01*
G01X888769Y1272771D01*
G01X895234Y1271847D01*
G01X906780Y1271386D01*
G01X918326Y1271847D01*
G01X924791Y1272771D01*
G01X928947Y1273694D01*
G01X934489Y1275080D01*
G01X938646Y1276927D01*
G01X942340Y1278774D01*
G01X946496Y1281084D01*
G01X949729Y1283393D01*
G01X954347Y1288011D01*
G01X958042Y1292629D01*
G01X960351Y1295862D01*
G01X962198Y1300018D01*
G01X964046Y1305098D01*
G01X965431Y1309716D01*
G01X966354Y1316182D01*
G01X966816Y1387764D01*
G01X966816Y1457960D01*
G01X997296Y1457960D01*
G01X997296Y1389611D01*
G01X996834Y1319876D01*
G01X995911Y1312487D01*
G01X995449Y1309254D01*
G01X994526Y1304174D01*
G01X993140Y1299556D01*
G01X992216Y1295862D01*
G01X990831Y1291706D01*
G01X988984Y1287549D01*
G01X985289Y1280160D01*
G01X982518Y1275542D01*
G01X979747Y1271386D01*
G01X977438Y1268614D01*
G01X968202Y1259378D01*
G01X965893Y1257531D01*
G01X962660Y1255222D01*
G01X958966Y1252913D01*
G01X955733Y1251066D01*
G01X952038Y1249218D01*
G01X947882Y1247371D01*
G01X942802Y1245524D01*
G01X938646Y1244138D01*
G01X930333Y1242291D01*
G01X922944Y1241367D01*
G01X907704Y1240906D01*
G37*
G36*
G01X1092431Y1244600D02*
G01X1092431Y1427480D01*
G01X1018540Y1427480D01*
G01X1018540Y1440411D01*
G01X1019002Y1455651D01*
G01X1019464Y1457960D01*
G01X1105824Y1457960D01*
G01X1194493Y1457498D01*
G01X1196802Y1457036D01*
G01X1196802Y1427480D01*
G01X1122911Y1427480D01*
G01X1122911Y1244600D01*
G01X1092431Y1244600D01*
G37*
G36*
G01X3606107Y9248371D02*
G01X3606107Y9144000D01*
G01X3637511Y9144000D01*
G01X3637511Y9239134D01*
G01X3751118Y9239134D01*
G01X3751118Y9144000D01*
G01X3781598Y9144000D01*
G01X3781598Y9357360D01*
G01X3751118Y9357360D01*
G01X3751118Y9269614D01*
G01X3637511Y9269614D01*
G01X3637511Y9356436D01*
G01X3635202Y9356898D01*
G01X3619962Y9357360D01*
G01X3607031Y9357360D01*
G01X3606569Y9355051D01*
G01X3606107Y9248371D01*
G37*
G36*
G01X3453707Y9257146D02*
G01X3453707Y9144000D01*
G01X3484187Y9144000D01*
G01X3484187Y9170786D01*
G01X3484534Y9191106D01*
G01X3485573Y9198494D01*
G01X3490191Y9203113D01*
G01X3495733Y9209578D01*
G01X3498042Y9211887D01*
G01X3500351Y9213734D01*
G01X3501736Y9213504D01*
G01X3503122Y9211887D01*
G01X3507740Y9205422D01*
G01X3521594Y9184640D01*
G01X3526213Y9178174D01*
G01X3540067Y9157393D01*
G01X3544686Y9150927D01*
G01X3547456Y9146771D01*
G01X3550227Y9144462D01*
G01X3568700Y9144000D01*
G01X3585787Y9144000D01*
G01X3584402Y9146309D01*
G01X3570547Y9167091D01*
G01X3565929Y9173556D01*
G01X3552074Y9194338D01*
G01X3545609Y9203574D01*
G01X3531754Y9224356D01*
G01X3527136Y9230822D01*
G01X3524366Y9234978D01*
G01X3523557Y9237056D01*
G01X3523904Y9238673D01*
G01X3544686Y9259454D01*
G01X3550227Y9265920D01*
G01X3575627Y9291320D01*
G01X3579322Y9295938D01*
G01X3574819Y9296977D01*
G01X3559464Y9297324D01*
G01X3543646Y9296977D01*
G01X3537758Y9295938D01*
G01X3535449Y9293629D01*
G01X3530831Y9288087D01*
G01X3489267Y9246524D01*
G01X3486034Y9244676D01*
G01X3484187Y9243753D01*
G01X3484187Y9370291D01*
G01X3453707Y9370291D01*
G01X3453707Y9257146D01*
G37*
G36*
G01X3299460Y9144924D02*
G01X3303039Y9144231D01*
G01X3315624Y9144000D01*
G01X3332711Y9144000D01*
G01X3334096Y9146309D01*
G01X3341947Y9162011D01*
G01X3345642Y9168476D01*
G01X3353031Y9183254D01*
G01X3355340Y9186949D01*
G01X3363191Y9202651D01*
G01X3366886Y9209116D01*
G01X3374274Y9223894D01*
G01X3377969Y9230360D01*
G01X3385358Y9245138D01*
G01X3387667Y9248833D01*
G01X3395518Y9264534D01*
G01X3399213Y9271000D01*
G01X3406602Y9285778D01*
G01X3410296Y9292244D01*
G01X3417686Y9307022D01*
G01X3419994Y9310716D01*
G01X3427846Y9326418D01*
G01X3428769Y9338426D01*
G01X3428769Y9349047D01*
G01X3426460Y9349509D01*
G01X3354416Y9349971D01*
G01X3284682Y9349971D01*
G01X3284682Y9319491D01*
G01X3389976Y9319491D01*
G01X3389514Y9317644D01*
G01X3388129Y9314411D01*
G01X3386282Y9310716D01*
G01X3382587Y9304251D01*
G01X3375198Y9289473D01*
G01X3370580Y9281160D01*
G01X3363191Y9266382D01*
G01X3359496Y9259916D01*
G01X3352107Y9245138D01*
G01X3347489Y9236826D01*
G01X3340100Y9222047D01*
G01X3336406Y9215582D01*
G01X3329016Y9200804D01*
G01X3324398Y9192491D01*
G01X3317009Y9177713D01*
G01X3313314Y9171247D01*
G01X3305926Y9156469D01*
G01X3301307Y9148156D01*
G01X3299460Y9144924D01*
G37*
G36*
G01X3110114Y9176789D02*
G01X3110114Y9166167D01*
G01X3112424Y9167091D01*
G01X3208482Y9215120D01*
G01X3216794Y9218814D01*
G01X3253740Y9237287D01*
G01X3256973Y9239596D01*
G01X3257896Y9250680D01*
G01X3257896Y9260378D01*
G01X3255587Y9261302D01*
G01X3144751Y9316720D01*
G01X3140133Y9318567D01*
G01X3111500Y9332884D01*
G01X3110461Y9330113D01*
G01X3110114Y9320876D01*
G01X3110576Y9311409D01*
G01X3111962Y9307946D01*
G01X3115656Y9306560D01*
G01X3119813Y9304713D01*
G01X3134591Y9297324D01*
G01X3139209Y9295476D01*
G01X3157682Y9286240D01*
G01X3164147Y9283469D01*
G01X3178926Y9276080D01*
G01X3185391Y9273309D01*
G01X3200169Y9265920D01*
G01X3206634Y9263149D01*
G01X3221413Y9255760D01*
G01X3229726Y9252066D01*
G01X3231573Y9250218D01*
G01X3231342Y9249294D01*
G01X3229726Y9248371D01*
G01X3221413Y9244676D01*
G01X3206634Y9237287D01*
G01X3202016Y9235440D01*
G01X3187238Y9228051D01*
G01X3178926Y9224356D01*
G01X3164147Y9216967D01*
G01X3155834Y9213273D01*
G01X3141056Y9205884D01*
G01X3136438Y9204036D01*
G01X3121660Y9196647D01*
G01X3113347Y9192953D01*
G01X3111500Y9191683D01*
G01X3110576Y9189720D01*
G01X3110114Y9176789D01*
G37*
G36*
G01X3807460Y9152313D02*
G01X3807460Y9144000D01*
G01X3946006Y9144000D01*
G01X3946006Y9174480D01*
G01X3899362Y9174480D01*
G01X3864494Y9174826D01*
G01X3853180Y9175866D01*
G01X3855027Y9178174D01*
G01X3860569Y9184640D01*
G01X3865187Y9189258D01*
G01X3868882Y9193876D01*
G01X3871191Y9196186D01*
G01X3874886Y9200804D01*
G01X3879504Y9205422D01*
G01X3882274Y9209116D01*
G01X3885507Y9212349D01*
G01X3891049Y9218814D01*
G01X3893358Y9221124D01*
G01X3897053Y9225742D01*
G01X3901671Y9230360D01*
G01X3904442Y9234054D01*
G01X3907674Y9237287D01*
G01X3913216Y9243753D01*
G01X3915526Y9246062D01*
G01X3919220Y9250680D01*
G01X3923838Y9255298D01*
G01X3926609Y9258993D01*
G01X3932151Y9264534D01*
G01X3934922Y9268229D01*
G01X3938154Y9271462D01*
G01X3943696Y9277927D01*
G01X3945544Y9281160D01*
G01X3946006Y9290396D01*
G01X3946006Y9297324D01*
G01X3809307Y9297324D01*
G01X3809307Y9266844D01*
G01X3855027Y9266844D01*
G01X3889202Y9266497D01*
G01X3900286Y9265458D01*
G01X3898438Y9263149D01*
G01X3896129Y9260840D01*
G01X3892434Y9256222D01*
G01X3887816Y9251604D01*
G01X3885046Y9247909D01*
G01X3879504Y9242367D01*
G01X3876733Y9238673D01*
G01X3873500Y9235440D01*
G01X3867958Y9228974D01*
G01X3865649Y9226666D01*
G01X3861954Y9222047D01*
G01X3857336Y9217429D01*
G01X3853642Y9212811D01*
G01X3849024Y9208193D01*
G01X3846253Y9204498D01*
G01X3840711Y9198956D01*
G01X3837940Y9195262D01*
G01X3834707Y9192029D01*
G01X3829166Y9185564D01*
G01X3826856Y9183254D01*
G01X3823162Y9178636D01*
G01X3818544Y9174018D01*
G01X3814849Y9169400D01*
G01X3810231Y9164782D01*
G01X3808384Y9162011D01*
G01X3807460Y9152313D01*
G37*
G36*
G01X3638492Y8245071D02*
G01X3638492Y8140700D01*
G01X3669896Y8140700D01*
G01X3669896Y8235834D01*
G01X3783503Y8235834D01*
G01X3783503Y8140700D01*
G01X3813983Y8140700D01*
G01X3813983Y8354060D01*
G01X3783503Y8354060D01*
G01X3783503Y8266314D01*
G01X3669896Y8266314D01*
G01X3669896Y8353136D01*
G01X3667587Y8353598D01*
G01X3652347Y8354060D01*
G01X3639416Y8354060D01*
G01X3638954Y8351751D01*
G01X3638492Y8245071D01*
G37*
G36*
G01X3134649Y8136544D02*
G01X3140652Y8136082D01*
G01X3147580Y8136544D01*
G01X3158663Y8137467D01*
G01X3164205Y8138391D01*
G01X3170209Y8139776D01*
G01X3179445Y8142547D01*
G01X3183140Y8143933D01*
G01X3186372Y8145318D01*
G01X3190067Y8147166D01*
G01X3194223Y8149474D01*
G01X3198380Y8152246D01*
G01X3201612Y8155016D01*
G01X3206231Y8158711D01*
G01X3213620Y8167947D01*
G01X3215467Y8170718D01*
G01X3219161Y8178107D01*
G01X3220547Y8181802D01*
G01X3222394Y8189191D01*
G01X3222856Y8193347D01*
G01X3223318Y8196580D01*
G01X3223780Y8200274D01*
G01X3223318Y8203969D01*
G01X3222394Y8210434D01*
G01X3221009Y8214591D01*
G01X3219161Y8218747D01*
G01X3217314Y8222442D01*
G01X3215467Y8225674D01*
G01X3213620Y8227984D01*
G01X3211311Y8230293D01*
G01X3209463Y8232602D01*
G01X3207616Y8234449D01*
G01X3205307Y8236296D01*
G01X3202074Y8239067D01*
G01X3197456Y8241838D01*
G01X3192838Y8244147D01*
G01X3188681Y8245994D01*
G01X3184063Y8247842D01*
G01X3178521Y8249227D01*
G01X3176559Y8249920D01*
G01X3176212Y8251074D01*
G01X3178983Y8252922D01*
G01X3182678Y8254307D01*
G01X3190067Y8258002D01*
G01X3193761Y8260311D01*
G01X3196994Y8262620D01*
G01X3199303Y8264467D01*
G01X3203921Y8269086D01*
G01X3206231Y8271856D01*
G01X3208540Y8275551D01*
G01X3210849Y8279707D01*
G01X3212696Y8283402D01*
G01X3214081Y8288020D01*
G01X3215005Y8292638D01*
G01X3215467Y8300951D01*
G01X3215005Y8309264D01*
G01X3213620Y8313420D01*
G01X3211772Y8318500D01*
G01X3209463Y8322656D01*
G01X3206692Y8326813D01*
G01X3203921Y8330046D01*
G01X3201612Y8332354D01*
G01X3198841Y8334664D01*
G01X3196071Y8336511D01*
G01X3192838Y8338820D01*
G01X3184525Y8342976D01*
G01X3181292Y8344362D01*
G01X3177598Y8345747D01*
G01X3172056Y8347133D01*
G01X3166976Y8348056D01*
G01X3161434Y8348980D01*
G01X3145732Y8349442D01*
G01X3132801Y8348980D01*
G01X3126336Y8348056D01*
G01X3117100Y8346209D01*
G01X3112481Y8344824D01*
G01X3106478Y8342976D01*
G01X3097241Y8339282D01*
G01X3093085Y8337434D01*
G01X3089391Y8335126D01*
G01X3086158Y8332816D01*
G01X3086158Y8329584D01*
G01X3090776Y8321271D01*
G01X3096318Y8310187D01*
G01X3098165Y8308340D01*
G01X3100474Y8308802D01*
G01X3107863Y8312496D01*
G01X3112020Y8314344D01*
G01X3116638Y8316191D01*
G01X3121256Y8317576D01*
G01X3125412Y8318500D01*
G01X3130031Y8319424D01*
G01X3136496Y8320347D01*
G01X3145732Y8320809D01*
G01X3153121Y8320347D01*
G01X3159587Y8319424D01*
G01X3163281Y8318500D01*
G01X3166976Y8317114D01*
G01X3170209Y8315729D01*
G01X3172980Y8314344D01*
G01X3175751Y8312496D01*
G01X3178521Y8310187D01*
G01X3180369Y8307878D01*
G01X3182678Y8304646D01*
G01X3184525Y8299104D01*
G01X3185449Y8294024D01*
G01X3185449Y8290791D01*
G01X3184525Y8287096D01*
G01X3182678Y8282940D01*
G01X3180369Y8280169D01*
G01X3178060Y8278322D01*
G01X3175751Y8276013D01*
G01X3173441Y8274166D01*
G01X3170671Y8272780D01*
G01X3167438Y8270933D01*
G01X3163281Y8269086D01*
G01X3158201Y8267238D01*
G01X3153121Y8265853D01*
G01X3149427Y8264929D01*
G01X3142961Y8264006D01*
G01X3132801Y8263082D01*
G01X3121718Y8262620D01*
G01X3112020Y8262620D01*
G01X3112020Y8237682D01*
G01X3128183Y8237682D01*
G01X3145732Y8237220D01*
G01X3153121Y8236296D01*
G01X3161434Y8234449D01*
G01X3165591Y8233064D01*
G01X3170209Y8231216D01*
G01X3173903Y8229369D01*
G01X3177598Y8227060D01*
G01X3180831Y8224751D01*
G01X3185449Y8220133D01*
G01X3187296Y8217824D01*
G01X3188681Y8214591D01*
G01X3190067Y8210434D01*
G01X3190991Y8205816D01*
G01X3191452Y8200736D01*
G01X3190991Y8196580D01*
G01X3190067Y8192424D01*
G01X3188681Y8188267D01*
G01X3186372Y8184573D01*
G01X3183601Y8181340D01*
G01X3181292Y8179031D01*
G01X3178521Y8176722D01*
G01X3175289Y8174874D01*
G01X3171594Y8173027D01*
G01X3166976Y8171180D01*
G01X3161896Y8169794D01*
G01X3157740Y8168871D01*
G01X3151274Y8167947D01*
G01X3139267Y8167486D01*
G01X3127260Y8167947D01*
G01X3119871Y8168871D01*
G01X3115252Y8169794D01*
G01X3110172Y8171180D01*
G01X3105554Y8172566D01*
G01X3101398Y8173951D01*
G01X3098165Y8175336D01*
G01X3094471Y8176722D01*
G01X3091238Y8178107D01*
G01X3089968Y8178107D01*
G01X3088929Y8177184D01*
G01X3083387Y8166100D01*
G01X3081540Y8161482D01*
G01X3079692Y8157787D01*
G01X3077845Y8154554D01*
G01X3077730Y8152823D01*
G01X3079231Y8151322D01*
G01X3083849Y8149013D01*
G01X3088005Y8147166D01*
G01X3092623Y8145318D01*
G01X3098165Y8143471D01*
G01X3104169Y8141624D01*
G01X3110172Y8140238D01*
G01X3114329Y8139314D01*
G01X3118947Y8138391D01*
G01X3125412Y8137467D01*
G01X3131416Y8137006D01*
G01X3134649Y8136544D01*
G37*
G36*
G01X3486092Y8253846D02*
G01X3486092Y8140700D01*
G01X3516572Y8140700D01*
G01X3516572Y8167486D01*
G01X3516919Y8187806D01*
G01X3517958Y8195194D01*
G01X3522576Y8199813D01*
G01X3527194Y8205354D01*
G01X3529503Y8207664D01*
G01X3532274Y8209973D01*
G01X3534006Y8210088D01*
G01X3535507Y8208587D01*
G01X3541972Y8199351D01*
G01X3553056Y8182726D01*
G01X3559521Y8173489D01*
G01X3570605Y8156864D01*
G01X3577071Y8147627D01*
G01X3579841Y8143471D01*
G01X3582612Y8141162D01*
G01X3601085Y8140700D01*
G01X3618172Y8140700D01*
G01X3616787Y8143009D01*
G01X3602932Y8163791D01*
G01X3598314Y8170256D01*
G01X3584460Y8191038D01*
G01X3579841Y8197504D01*
G01X3565987Y8218286D01*
G01X3561369Y8224751D01*
G01X3558598Y8228907D01*
G01X3556289Y8232602D01*
G01X3556289Y8235373D01*
G01X3577071Y8256154D01*
G01X3582612Y8262620D01*
G01X3608012Y8288020D01*
G01X3610783Y8291714D01*
G01X3612631Y8294024D01*
G01X3591849Y8294024D01*
G01X3576031Y8293677D01*
G01X3570143Y8292638D01*
G01X3567834Y8290329D01*
G01X3562292Y8283864D01*
G01X3520729Y8242300D01*
G01X3518420Y8240453D01*
G01X3517611Y8240106D01*
G01X3517034Y8240914D01*
G01X3516572Y8304646D01*
G01X3516572Y8366991D01*
G01X3486092Y8366991D01*
G01X3486092Y8253846D01*
G37*
G36*
G01X3361863Y8137467D02*
G01X3376180Y8137006D01*
G01X3391420Y8137467D01*
G01X3397885Y8138391D01*
G01X3402041Y8139314D01*
G01X3406660Y8140700D01*
G01X3410816Y8142086D01*
G01X3414511Y8143471D01*
G01X3425594Y8149013D01*
G01X3428827Y8150860D01*
G01X3431136Y8152707D01*
G01X3434831Y8155478D01*
G01X3444991Y8165638D01*
G01X3447300Y8168409D01*
G01X3449609Y8172104D01*
G01X3452380Y8176260D01*
G01X3454689Y8180878D01*
G01X3456536Y8185034D01*
G01X3457921Y8189191D01*
G01X3458845Y8192886D01*
G01X3459769Y8197504D01*
G01X3460692Y8203969D01*
G01X3461154Y8209973D01*
G01X3460692Y8214129D01*
G01X3459769Y8221518D01*
G01X3458845Y8225213D01*
G01X3457460Y8229369D01*
G01X3456074Y8233064D01*
G01X3454689Y8236296D01*
G01X3452841Y8239529D01*
G01X3450532Y8243224D01*
G01X3448223Y8246456D01*
G01X3443605Y8251074D01*
G01X3440372Y8253846D01*
G01X3433907Y8258464D01*
G01X3429289Y8261234D01*
G01X3424209Y8263544D01*
G01X3419591Y8265391D01*
G01X3411278Y8268162D01*
G01X3407583Y8269086D01*
G01X3404351Y8269547D01*
G01X3399732Y8270471D01*
G01X3394191Y8271394D01*
G01X3387263Y8271856D01*
G01X3381260Y8272318D01*
G01X3377565Y8272780D01*
G01X3373871Y8272318D01*
G01X3368791Y8271856D01*
G01X3364172Y8271394D01*
G01X3363595Y8272087D01*
G01X3363711Y8275089D01*
G01X3364634Y8281554D01*
G01X3365096Y8285711D01*
G01X3367405Y8301874D01*
G01X3368329Y8309264D01*
G01X3368791Y8312496D01*
G01X3370176Y8315267D01*
G01X3410354Y8316191D01*
G01X3449147Y8316191D01*
G01X3449147Y8345747D01*
G01X3446838Y8346209D01*
G01X3393729Y8346671D01*
G01X3355629Y8346209D01*
G01X3342929Y8344824D01*
G01X3342467Y8341591D01*
G01X3340620Y8326813D01*
G01X3337849Y8307416D01*
G01X3334154Y8277860D01*
G01X3332307Y8264929D01*
G01X3331383Y8257540D01*
G01X3329074Y8241376D01*
G01X3328612Y8238606D01*
G01X3329074Y8238028D01*
G01X3331383Y8238144D01*
G01X3336001Y8239067D01*
G01X3340620Y8240453D01*
G01X3348009Y8241838D01*
G01X3353551Y8242762D01*
G01X3360940Y8243686D01*
G01X3372947Y8244609D01*
G01X3380336Y8245071D01*
G01X3387725Y8244609D01*
G01X3396038Y8243686D01*
G01X3404351Y8241838D01*
G01X3408045Y8240453D01*
G01X3412663Y8238144D01*
G01X3416820Y8235834D01*
G01X3419591Y8233526D01*
G01X3421900Y8231216D01*
G01X3424671Y8227984D01*
G01X3426980Y8224289D01*
G01X3428827Y8219671D01*
G01X3430212Y8212282D01*
G01X3430674Y8205816D01*
G01X3430212Y8202122D01*
G01X3429289Y8197966D01*
G01X3427903Y8193347D01*
G01X3426056Y8189191D01*
G01X3423747Y8185958D01*
G01X3420052Y8181340D01*
G01X3417743Y8179031D01*
G01X3414972Y8176722D01*
G01X3411740Y8174874D01*
G01X3408045Y8173027D01*
G01X3403889Y8171180D01*
G01X3399271Y8169794D01*
G01X3395114Y8168871D01*
G01X3389572Y8167947D01*
G01X3382183Y8167486D01*
G01X3378027Y8167024D01*
G01X3375718Y8167024D01*
G01X3360016Y8167947D01*
G01X3350780Y8169794D01*
G01X3341081Y8173027D01*
G01X3336925Y8174874D01*
G01X3333231Y8176722D01*
G01X3331383Y8176953D01*
G01X3330460Y8175798D01*
G01X3329074Y8172566D01*
G01X3321685Y8157787D01*
G01X3318914Y8151322D01*
G01X3318683Y8150167D01*
G01X3319838Y8149474D01*
G01X3326303Y8146242D01*
G01X3330921Y8144394D01*
G01X3335078Y8143009D01*
G01X3338772Y8142086D01*
G01X3343391Y8140700D01*
G01X3348471Y8139776D01*
G01X3351703Y8139314D01*
G01X3357245Y8138391D01*
G01X3361863Y8137467D01*
G37*
G36*
G01X3839845Y8149013D02*
G01X3839845Y8140700D01*
G01X3978391Y8140700D01*
G01X3978391Y8171180D01*
G01X3931747Y8171180D01*
G01X3896880Y8171526D01*
G01X3885565Y8172566D01*
G01X3887412Y8174874D01*
G01X3892954Y8181340D01*
G01X3895263Y8183649D01*
G01X3898958Y8188267D01*
G01X3903576Y8192886D01*
G01X3907271Y8197504D01*
G01X3911889Y8202122D01*
G01X3914660Y8205816D01*
G01X3917892Y8209049D01*
G01X3923434Y8215514D01*
G01X3925743Y8217824D01*
G01X3929438Y8222442D01*
G01X3934056Y8227060D01*
G01X3936827Y8230754D01*
G01X3940060Y8233987D01*
G01X3945601Y8240453D01*
G01X3947911Y8242762D01*
G01X3951605Y8247380D01*
G01X3956223Y8251998D01*
G01X3958994Y8255693D01*
G01X3962227Y8258926D01*
G01X3967769Y8265391D01*
G01X3972387Y8270009D01*
G01X3976081Y8274627D01*
G01X3977929Y8277860D01*
G01X3978391Y8287096D01*
G01X3978391Y8294024D01*
G01X3841692Y8294024D01*
G01X3841692Y8263544D01*
G01X3887412Y8263544D01*
G01X3921587Y8263197D01*
G01X3932671Y8262158D01*
G01X3930823Y8259849D01*
G01X3928514Y8257540D01*
G01X3924820Y8252922D01*
G01X3920201Y8248304D01*
G01X3917431Y8244609D01*
G01X3911889Y8239067D01*
G01X3909118Y8235373D01*
G01X3905885Y8232140D01*
G01X3900343Y8225674D01*
G01X3895725Y8221056D01*
G01X3892031Y8216438D01*
G01X3889721Y8214129D01*
G01X3886027Y8209511D01*
G01X3881409Y8204893D01*
G01X3878638Y8201198D01*
G01X3873096Y8195656D01*
G01X3870325Y8191962D01*
G01X3867092Y8188729D01*
G01X3861551Y8182264D01*
G01X3859241Y8179954D01*
G01X3855547Y8175336D01*
G01X3850929Y8170718D01*
G01X3847234Y8166100D01*
G01X3842616Y8161482D01*
G01X3840769Y8158711D01*
G01X3839845Y8149013D01*
G37*
G36*
G01X3271347Y8138391D02*
G01X3275041Y8137929D01*
G01X3278736Y8138391D01*
G01X3282431Y8139314D01*
G01X3286125Y8140700D01*
G01X3288896Y8142547D01*
G01X3291205Y8144856D01*
G01X3293052Y8147166D01*
G01X3294900Y8150398D01*
G01X3296747Y8154554D01*
G01X3297671Y8161020D01*
G01X3297209Y8167024D01*
G01X3295823Y8170718D01*
G01X3293052Y8175336D01*
G01X3289820Y8178569D01*
G01X3287511Y8180416D01*
G01X3283816Y8182264D01*
G01X3277812Y8183649D01*
G01X3272732Y8184111D01*
G01X3269500Y8183649D01*
G01X3265805Y8182264D01*
G01X3261187Y8179493D01*
G01X3257492Y8175336D01*
G01X3255183Y8171642D01*
G01X3253798Y8167024D01*
G01X3252874Y8162406D01*
G01X3252412Y8159173D01*
G01X3252874Y8155940D01*
G01X3254260Y8151784D01*
G01X3256107Y8148089D01*
G01X3257954Y8145780D01*
G01X3260263Y8143471D01*
G01X3263034Y8141624D01*
G01X3267191Y8139776D01*
G01X3271347Y8138391D01*
G37*
G36*
G01X3525924Y7241771D02*
G01X3525924Y7137400D01*
G01X3557328Y7137400D01*
G01X3557328Y7232534D01*
G01X3670935Y7232534D01*
G01X3670935Y7137400D01*
G01X3701415Y7137400D01*
G01X3701415Y7350760D01*
G01X3670935Y7350760D01*
G01X3670935Y7263014D01*
G01X3557328Y7263014D01*
G01X3557328Y7349836D01*
G01X3555019Y7350298D01*
G01X3539779Y7350760D01*
G01X3526848Y7350760D01*
G01X3526386Y7348451D01*
G01X3525924Y7241771D01*
G37*
G36*
G01X3195262Y7152640D02*
G01X3195262Y7137400D01*
G01X3343968Y7137400D01*
G01X3343968Y7166956D01*
G01X3341659Y7167418D01*
G01X3289935Y7167880D01*
G01X3252990Y7168111D01*
G01X3240982Y7168804D01*
G01X3243753Y7171113D01*
G01X3256684Y7180349D01*
G01X3259917Y7183120D01*
G01X3266844Y7188662D01*
G01X3269153Y7190047D01*
G01X3271462Y7191894D01*
G01X3273771Y7194204D01*
G01X3279313Y7198822D01*
G01X3281622Y7201131D01*
G01X3285317Y7203902D01*
G01X3304713Y7223298D01*
G01X3313026Y7232996D01*
G01X3315335Y7236229D01*
G01X3319030Y7240847D01*
G01X3321339Y7244080D01*
G01X3326881Y7252393D01*
G01X3332884Y7264400D01*
G01X3334731Y7269480D01*
G01X3336579Y7275484D01*
G01X3337964Y7281949D01*
G01X3338426Y7290262D01*
G01X3337964Y7296727D01*
G01X3336579Y7301346D01*
G01X3334731Y7307349D01*
G01X3332884Y7311506D01*
G01X3330575Y7315200D01*
G01X3328266Y7318433D01*
G01X3326419Y7320742D01*
G01X3319491Y7327669D01*
G01X3314873Y7331364D01*
G01X3311641Y7333673D01*
G01X3307946Y7335982D01*
G01X3304713Y7337829D01*
G01X3298248Y7340600D01*
G01X3294553Y7341986D01*
G01X3290397Y7343371D01*
G01X3284393Y7344756D01*
G01X3278851Y7345680D01*
G01X3266844Y7346142D01*
G01X3254837Y7345680D01*
G01X3244677Y7343833D01*
G01X3234979Y7340600D01*
G01X3225742Y7336906D01*
G01X3221586Y7335058D01*
G01X3217891Y7333211D01*
G01X3213735Y7330902D01*
G01X3206346Y7326284D01*
G01X3203113Y7323974D01*
G01X3199419Y7321204D01*
G01X3196186Y7317971D01*
G01X3193415Y7315662D01*
G01X3190644Y7312891D01*
G01X3190298Y7311274D01*
G01X3191106Y7310120D01*
G01X3193415Y7307811D01*
G01X3197110Y7303193D01*
G01X3199419Y7300884D01*
G01X3204037Y7295342D01*
G01X3208655Y7290724D01*
G01X3209925Y7290377D01*
G01X3210964Y7291186D01*
G01X3213273Y7293494D01*
G01X3216968Y7296266D01*
G01X3221586Y7299498D01*
G01X3225742Y7302269D01*
G01X3229899Y7304578D01*
G01X3237288Y7308273D01*
G01X3241444Y7310120D01*
G01X3246062Y7311967D01*
G01X3251604Y7313814D01*
G01X3258531Y7315200D01*
G01X3264535Y7315662D01*
G01X3267768Y7316124D01*
G01X3272386Y7316124D01*
G01X3277466Y7315662D01*
G01X3280699Y7315200D01*
G01X3285317Y7313814D01*
G01X3289935Y7311967D01*
G01X3293168Y7310120D01*
G01X3297324Y7307349D01*
G01X3300557Y7304116D01*
G01X3302404Y7301807D01*
G01X3304251Y7299036D01*
G01X3306099Y7295342D01*
G01X3307022Y7291647D01*
G01X3307484Y7288414D01*
G01X3307946Y7284720D01*
G01X3307484Y7281026D01*
G01X3306099Y7276869D01*
G01X3304251Y7271789D01*
G01X3302404Y7268094D01*
G01X3300095Y7264400D01*
G01X3297324Y7260244D01*
G01X3295015Y7257011D01*
G01X3292244Y7253316D01*
G01X3288550Y7248698D01*
G01X3285317Y7245466D01*
G01X3281622Y7240847D01*
G01X3274695Y7233920D01*
G01X3272848Y7231611D01*
G01X3269615Y7228840D01*
G01X3257146Y7216371D01*
G01X3252528Y7212676D01*
G01X3247910Y7208058D01*
G01X3243291Y7204364D01*
G01X3226666Y7190509D01*
G01X3224357Y7188662D01*
G01X3222048Y7187276D01*
G01X3219739Y7185429D01*
G01X3208655Y7177116D01*
G01X3204037Y7173884D01*
G01X3197571Y7169266D01*
G01X3195262Y7167880D01*
G01X3195262Y7152640D01*
G37*
G36*
G01X3373524Y7248236D02*
G01X3373524Y7137400D01*
G01X3404004Y7137400D01*
G01X3404004Y7164186D01*
G01X3404351Y7184506D01*
G01X3405390Y7191894D01*
G01X3414626Y7201131D01*
G01X3417397Y7204364D01*
G01X3420630Y7207134D01*
G01X3422131Y7207134D01*
G01X3422939Y7206211D01*
G01X3424786Y7202978D01*
G01X3435870Y7186353D01*
G01X3440488Y7179887D01*
G01X3454342Y7159106D01*
G01X3458961Y7152640D01*
G01X3467273Y7140171D01*
G01X3470044Y7137862D01*
G01X3488517Y7137400D01*
G01X3505604Y7137400D01*
G01X3504681Y7139247D01*
G01X3501910Y7143404D01*
G01X3498677Y7148022D01*
G01X3484822Y7168804D01*
G01X3480204Y7175269D01*
G01X3466350Y7196051D01*
G01X3459884Y7205287D01*
G01X3448801Y7221913D01*
G01X3445568Y7226531D01*
G01X3443259Y7230226D01*
G01X3443259Y7231496D01*
G01X3444182Y7232534D01*
G01X3467273Y7255626D01*
G01X3472815Y7262091D01*
G01X3498215Y7287491D01*
G01X3500062Y7289800D01*
G01X3495444Y7290493D01*
G01X3479742Y7290724D01*
G01X3463579Y7290262D01*
G01X3457575Y7288876D01*
G01X3455266Y7286106D01*
G01X3409084Y7239924D01*
G01X3405851Y7238076D01*
G01X3404004Y7237153D01*
G01X3404004Y7363691D01*
G01X3374448Y7363691D01*
G01X3373986Y7361382D01*
G01X3373524Y7248236D01*
G37*
G36*
G01X3727277Y7144789D02*
G01X3727277Y7137400D01*
G01X3865822Y7137400D01*
G01X3865822Y7167880D01*
G01X3819179Y7167880D01*
G01X3784311Y7168226D01*
G01X3772997Y7169266D01*
G01X3774844Y7171574D01*
G01X3777153Y7173884D01*
G01X3779924Y7177578D01*
G01X3783157Y7180811D01*
G01X3788699Y7187276D01*
G01X3793317Y7191894D01*
G01X3797011Y7196513D01*
G01X3799321Y7198822D01*
G01X3803015Y7203440D01*
G01X3807633Y7208058D01*
G01X3810404Y7211753D01*
G01X3813637Y7214986D01*
G01X3819179Y7221451D01*
G01X3821488Y7223760D01*
G01X3825182Y7228378D01*
G01X3829801Y7232996D01*
G01X3832571Y7236691D01*
G01X3835804Y7239924D01*
G01X3841346Y7246389D01*
G01X3843655Y7248698D01*
G01X3847350Y7253316D01*
G01X3851968Y7257934D01*
G01X3854739Y7261629D01*
G01X3857971Y7264862D01*
G01X3863513Y7271327D01*
G01X3865361Y7274560D01*
G01X3865822Y7283796D01*
G01X3865822Y7290724D01*
G01X3729124Y7290724D01*
G01X3729124Y7260244D01*
G01X3774844Y7260244D01*
G01X3809019Y7259897D01*
G01X3820102Y7258858D01*
G01X3818255Y7256549D01*
G01X3815946Y7254240D01*
G01X3813175Y7250546D01*
G01X3807633Y7245004D01*
G01X3804862Y7241309D01*
G01X3801630Y7238076D01*
G01X3796088Y7231611D01*
G01X3793779Y7229302D01*
G01X3790084Y7224684D01*
G01X3785466Y7220066D01*
G01X3781771Y7215447D01*
G01X3777153Y7210829D01*
G01X3774382Y7207134D01*
G01X3771150Y7203902D01*
G01X3765608Y7197436D01*
G01X3760990Y7192818D01*
G01X3757295Y7188200D01*
G01X3754986Y7185891D01*
G01X3751291Y7181273D01*
G01X3746673Y7176654D01*
G01X3743902Y7172960D01*
G01X3738361Y7167418D01*
G01X3735590Y7163724D01*
G01X3732357Y7160491D01*
G01X3729586Y7157258D01*
G01X3727739Y7153564D01*
G01X3727277Y7144789D01*
G37*
G36*
G01X3141980Y6134100D02*
G01X3141980Y6308667D01*
G01X3140133Y6308206D01*
G01X3136900Y6306820D01*
G01X3125816Y6301278D01*
G01X3119351Y6297584D01*
G01X3108267Y6292042D01*
G01X3105035Y6290656D01*
G01X3103534Y6290772D01*
G01X3102726Y6292042D01*
G01X3101802Y6295274D01*
G01X3100878Y6299893D01*
G01X3099493Y6306358D01*
G01X3098107Y6310976D01*
G01X3097646Y6314209D01*
G01X3098223Y6315826D01*
G01X3099955Y6316980D01*
G01X3129511Y6331758D01*
G01X3134129Y6333606D01*
G01X3145213Y6339147D01*
G01X3159529Y6340071D01*
G01X3172460Y6340071D01*
G01X3172460Y6134100D01*
G01X3141980Y6134100D01*
G37*
G36*
G01X3819929Y6134100D02*
G01X3819929Y6141951D01*
G01X3820391Y6151187D01*
G01X3821776Y6153958D01*
G01X3824086Y6156267D01*
G01X3829627Y6162733D01*
G01X3832860Y6165966D01*
G01X3835631Y6169660D01*
G01X3841173Y6175202D01*
G01X3843944Y6178896D01*
G01X3848562Y6183514D01*
G01X3852256Y6188133D01*
G01X3854566Y6190442D01*
G01X3858260Y6195060D01*
G01X3862878Y6199678D01*
G01X3868420Y6206144D01*
G01X3871653Y6209376D01*
G01X3874424Y6213071D01*
G01X3879042Y6217689D01*
G01X3882736Y6222307D01*
G01X3887355Y6226926D01*
G01X3891049Y6231544D01*
G01X3893358Y6233853D01*
G01X3897053Y6238471D01*
G01X3901671Y6243089D01*
G01X3905366Y6247707D01*
G01X3909984Y6252326D01*
G01X3911831Y6255096D01*
G01X3912293Y6256944D01*
G01X3821776Y6256944D01*
G01X3821776Y6287424D01*
G01X3958475Y6287424D01*
G01X3958475Y6280034D01*
G01X3958013Y6271260D01*
G01X3956627Y6268489D01*
G01X3952009Y6263871D01*
G01X3948315Y6259253D01*
G01X3946006Y6256944D01*
G01X3940464Y6250478D01*
G01X3937231Y6247246D01*
G01X3934460Y6243551D01*
G01X3929842Y6238933D01*
G01X3926147Y6234314D01*
G01X3923838Y6232006D01*
G01X3918296Y6225540D01*
G01X3915064Y6222307D01*
G01X3912293Y6218613D01*
G01X3907675Y6213994D01*
G01X3903980Y6209376D01*
G01X3901671Y6207067D01*
G01X3897976Y6202449D01*
G01X3893358Y6197831D01*
G01X3887816Y6191366D01*
G01X3884584Y6188133D01*
G01X3881813Y6184438D01*
G01X3877195Y6179820D01*
G01X3873500Y6175202D01*
G01X3871191Y6172893D01*
G01X3865649Y6165966D01*
G01X3876964Y6164926D01*
G01X3911831Y6164580D01*
G01X3958475Y6164580D01*
G01X3958475Y6134100D01*
G01X3819929Y6134100D01*
G37*
G36*
G01X3618576Y6134100D02*
G01X3618576Y6347460D01*
G01X3649056Y6347460D01*
G01X3649056Y6259714D01*
G01X3763587Y6259714D01*
G01X3763587Y6347460D01*
G01X3794067Y6347460D01*
G01X3794067Y6134100D01*
G01X3763587Y6134100D01*
G01X3763587Y6229234D01*
G01X3649056Y6229234D01*
G01X3649056Y6134100D01*
G01X3618576Y6134100D01*
G37*
G36*
G01X3230187Y6131329D02*
G01X3224646Y6132253D01*
G01X3220027Y6134100D01*
G01X3217256Y6135947D01*
G01X3214947Y6137794D01*
G01X3213100Y6139642D01*
G01X3211253Y6142413D01*
G01X3209406Y6146107D01*
G01X3208482Y6153034D01*
G01X3209406Y6161347D01*
G01X3211253Y6165966D01*
G01X3213100Y6169198D01*
G01X3215409Y6171507D01*
G01X3217718Y6173354D01*
G01X3220489Y6175202D01*
G01X3224184Y6176587D01*
G01X3229264Y6177511D01*
G01X3233882Y6177049D01*
G01X3237576Y6176126D01*
G01X3241271Y6174740D01*
G01X3244042Y6173354D01*
G01X3247275Y6170584D01*
G01X3250046Y6166427D01*
G01X3251893Y6162733D01*
G01X3252816Y6154882D01*
G01X3251893Y6147031D01*
G01X3250507Y6143336D01*
G01X3248660Y6140566D01*
G01X3244042Y6135947D01*
G01X3241271Y6134100D01*
G01X3237576Y6132714D01*
G01X3233882Y6131791D01*
G01X3230187Y6131329D01*
G37*
G36*
G01X3381202Y6134100D02*
G01X3381202Y6187671D01*
G01X3276831Y6187671D01*
G01X3276831Y6198754D01*
G01X3277293Y6207644D01*
G01X3278678Y6212147D01*
G01X3281449Y6215842D01*
G01X3283296Y6218151D01*
G01X3283626Y6218613D01*
G01X3312391Y6218613D01*
G01X3347027Y6218151D01*
G01X3381202Y6218151D01*
G01X3381202Y6265256D01*
G01X3380856Y6300354D01*
G01X3379816Y6311438D01*
G01X3377507Y6309129D01*
G01X3372889Y6302664D01*
G01X3367347Y6295274D01*
G01X3362729Y6288809D01*
G01X3357187Y6281420D01*
G01X3355340Y6279111D01*
G01X3353031Y6275878D01*
G01X3349798Y6271260D01*
G01X3347027Y6267566D01*
G01X3345180Y6265256D01*
G01X3342871Y6262024D01*
G01X3339638Y6257406D01*
G01X3331326Y6246322D01*
G01X3326707Y6239856D01*
G01X3321166Y6232467D01*
G01X3316547Y6226002D01*
G01X3314700Y6223693D01*
G01X3312853Y6220922D01*
G01X3312853Y6220922D01*
G01X3312391Y6218613D01*
G01X3283626Y6218613D01*
G01X3285606Y6221384D01*
G01X3288838Y6226002D01*
G01X3291609Y6229696D01*
G01X3296227Y6236162D01*
G01X3301769Y6243551D01*
G01X3306387Y6250016D01*
G01X3311929Y6257406D01*
G01X3316547Y6263871D01*
G01X3322089Y6271260D01*
G01X3326707Y6277726D01*
G01X3332249Y6285114D01*
G01X3336867Y6291580D01*
G01X3338715Y6293889D01*
G01X3341024Y6297122D01*
G01X3344256Y6301740D01*
G01X3347027Y6305434D01*
G01X3348875Y6307744D01*
G01X3351184Y6310976D01*
G01X3354416Y6315594D01*
G01X3357187Y6319289D01*
G01X3359035Y6321598D01*
G01X3361344Y6324831D01*
G01X3364576Y6329449D01*
G01X3367347Y6333144D01*
G01X3369195Y6335453D01*
G01X3371042Y6338224D01*
G01X3376122Y6339609D01*
G01X3389515Y6340071D01*
G01X3409373Y6339609D01*
G01X3411682Y6339147D01*
G01X3411682Y6218151D01*
G01X3442162Y6218151D01*
G01X3442162Y6187671D01*
G01X3411682Y6187671D01*
G01X3411682Y6134100D01*
G01X3381202Y6134100D01*
G37*
G36*
G01X3466176Y6134100D02*
G01X3466176Y6360391D01*
G01X3496656Y6360391D01*
G01X3496656Y6298046D01*
G01X3497118Y6234314D01*
G01X3497696Y6233506D01*
G01X3498504Y6233853D01*
G01X3500813Y6235700D01*
G01X3528522Y6263409D01*
G01X3534064Y6269874D01*
G01X3550227Y6286038D01*
G01X3556116Y6287077D01*
G01X3571933Y6287424D01*
G01X3592715Y6286962D01*
G01X3583478Y6277726D01*
G01X3580707Y6274031D01*
G01X3555307Y6248631D01*
G01X3550689Y6243089D01*
G01X3536835Y6229234D01*
G01X3535911Y6228196D01*
G01X3535911Y6226926D01*
G01X3537296Y6224154D01*
G01X3539606Y6220922D01*
G01X3553460Y6200140D01*
G01X3559926Y6190904D01*
G01X3573780Y6170122D01*
G01X3578398Y6163656D01*
G01X3592253Y6142874D01*
G01X3596871Y6136409D01*
G01X3598256Y6134100D01*
G01X3580246Y6134100D01*
G01X3566391Y6134446D01*
G01X3560849Y6135486D01*
G01X3558078Y6139180D01*
G01X3552536Y6147493D01*
G01X3547918Y6153958D01*
G01X3534064Y6174740D01*
G01X3529446Y6181206D01*
G01X3515591Y6201987D01*
G01X3514090Y6203488D01*
G01X3512358Y6203373D01*
G01X3509587Y6201064D01*
G01X3498042Y6189518D01*
G01X3497003Y6182014D01*
G01X3496656Y6161347D01*
G01X3496656Y6134100D01*
G01X3466176Y6134100D01*
G37*
G36*
G01X3491114Y5250180D02*
G01X3491114Y5143500D01*
G01X3521594Y5143500D01*
G01X3521594Y5238634D01*
G01X3635202Y5238634D01*
G01X3635202Y5143500D01*
G01X3665682Y5143500D01*
G01X3665682Y5356860D01*
G01X3636126Y5356860D01*
G01X3635664Y5354551D01*
G01X3635202Y5310678D01*
G01X3635202Y5269114D01*
G01X3521594Y5269114D01*
G01X3521594Y5356860D01*
G01X3491114Y5356860D01*
G01X3491114Y5250180D01*
G37*
G36*
G01X3338714Y5256646D02*
G01X3338714Y5143500D01*
G01X3368271Y5143500D01*
G01X3368271Y5170286D01*
G01X3368617Y5190606D01*
G01X3369656Y5197994D01*
G01X3383511Y5211849D01*
G01X3385820Y5213234D01*
G01X3387206Y5212311D01*
G01X3389053Y5209078D01*
G01X3394594Y5200766D01*
G01X3399213Y5194300D01*
G01X3413067Y5173518D01*
G01X3417686Y5167053D01*
G01X3428769Y5150427D01*
G01X3432002Y5145809D01*
G01X3433849Y5143500D01*
G01X3469871Y5143500D01*
G01X3468947Y5145347D01*
G01X3466638Y5149042D01*
G01X3461096Y5157354D01*
G01X3456478Y5163820D01*
G01X3442624Y5184602D01*
G01X3438006Y5191067D01*
G01X3424151Y5211849D01*
G01X3419533Y5218314D01*
G01X3411220Y5230784D01*
G01X3408911Y5234478D01*
G01X3408449Y5237711D01*
G01X3410296Y5240482D01*
G01X3435696Y5265882D01*
G01X3439391Y5270500D01*
G01X3464791Y5295900D01*
G01X3460519Y5296593D01*
G01X3444933Y5296824D01*
G01X3428769Y5296477D01*
G01X3422766Y5295438D01*
G01X3374274Y5246947D01*
G01X3372427Y5244638D01*
G01X3370118Y5242329D01*
G01X3368271Y5241406D01*
G01X3368271Y5369791D01*
G01X3338714Y5369791D01*
G01X3338714Y5256646D01*
G37*
G36*
G01X3691544Y5150889D02*
G01X3691544Y5143500D01*
G01X3830089Y5143500D01*
G01X3830089Y5173980D01*
G01X3783446Y5173980D01*
G01X3748578Y5174326D01*
G01X3737264Y5175366D01*
G01X3739111Y5177674D01*
G01X3741420Y5179984D01*
G01X3745114Y5184602D01*
G01X3749733Y5189220D01*
G01X3752504Y5192914D01*
G01X3758046Y5198456D01*
G01X3760816Y5202151D01*
G01X3764049Y5205384D01*
G01X3769591Y5211849D01*
G01X3771900Y5214158D01*
G01X3775594Y5218776D01*
G01X3780213Y5223394D01*
G01X3782984Y5227089D01*
G01X3786216Y5230322D01*
G01X3791758Y5236787D01*
G01X3794067Y5239096D01*
G01X3797762Y5243714D01*
G01X3802380Y5248333D01*
G01X3805151Y5252027D01*
G01X3808384Y5255260D01*
G01X3813926Y5261726D01*
G01X3816234Y5264034D01*
G01X3819929Y5268653D01*
G01X3824547Y5273271D01*
G01X3828242Y5277889D01*
G01X3829627Y5280660D01*
G01X3830089Y5289434D01*
G01X3830089Y5296824D01*
G01X3693391Y5296824D01*
G01X3693391Y5266344D01*
G01X3739111Y5266344D01*
G01X3773286Y5265997D01*
G01X3784369Y5264958D01*
G01X3782522Y5262649D01*
G01X3776980Y5256184D01*
G01X3774671Y5253874D01*
G01X3770976Y5249256D01*
G01X3766358Y5244638D01*
G01X3762664Y5240020D01*
G01X3758046Y5235402D01*
G01X3755274Y5231707D01*
G01X3752042Y5228474D01*
G01X3746500Y5222009D01*
G01X3741882Y5217391D01*
G01X3738187Y5212773D01*
G01X3735878Y5210464D01*
G01X3732184Y5205846D01*
G01X3727566Y5201227D01*
G01X3723871Y5196609D01*
G01X3719253Y5191991D01*
G01X3716482Y5188296D01*
G01X3713249Y5185064D01*
G01X3707707Y5178598D01*
G01X3703089Y5173980D01*
G01X3699394Y5169362D01*
G01X3697086Y5167053D01*
G01X3693391Y5162434D01*
G01X3692006Y5159664D01*
G01X3691544Y5150889D01*
G37*
G36*
G01X3270366Y5230784D02*
G01X3270366Y5143500D01*
G01X3300846Y5143500D01*
G01X3300846Y5349471D01*
G01X3287914Y5349471D01*
G01X3273598Y5348547D01*
G01X3262514Y5343006D01*
G01X3257896Y5341158D01*
G01X3228340Y5326380D01*
G01X3226608Y5325226D01*
G01X3226031Y5323609D01*
G01X3226493Y5320376D01*
G01X3227878Y5315758D01*
G01X3229264Y5309293D01*
G01X3230187Y5304674D01*
G01X3231111Y5301442D01*
G01X3231919Y5300172D01*
G01X3233420Y5300056D01*
G01X3236653Y5301442D01*
G01X3247736Y5306984D01*
G01X3254202Y5310678D01*
G01X3265286Y5316220D01*
G01X3268518Y5317606D01*
G01X3270366Y5318067D01*
G01X3270366Y5230784D01*
G37*
G36*
G01X3103187Y4140200D02*
G01X3104573Y4142509D01*
G01X3106882Y4146204D01*
G01X3108729Y4149898D01*
G01X3112424Y4156364D01*
G01X3119813Y4171142D01*
G01X3124431Y4179454D01*
G01X3131820Y4194233D01*
G01X3135515Y4200698D01*
G01X3142904Y4215476D01*
G01X3147522Y4223789D01*
G01X3154911Y4238567D01*
G01X3158606Y4245033D01*
G01X3165995Y4259811D01*
G01X3169689Y4266276D01*
G01X3178926Y4284749D01*
G01X3182620Y4291214D01*
G01X3190471Y4306916D01*
G01X3192780Y4310611D01*
G01X3194166Y4313844D01*
G01X3194627Y4315691D01*
G01X3088409Y4315691D01*
G01X3088409Y4328622D01*
G01X3088871Y4343862D01*
G01X3089333Y4346171D01*
G01X3159067Y4346171D01*
G01X3231111Y4345709D01*
G01X3233420Y4345247D01*
G01X3233420Y4335087D01*
G01X3232496Y4322618D01*
G01X3226493Y4310611D01*
G01X3224184Y4306916D01*
G01X3216795Y4292138D01*
G01X3213100Y4285673D01*
G01X3205711Y4270894D01*
G01X3202016Y4264429D01*
G01X3194166Y4248727D01*
G01X3191856Y4245033D01*
G01X3184467Y4230254D01*
G01X3180773Y4223789D01*
G01X3173384Y4209011D01*
G01X3169689Y4202546D01*
G01X3162300Y4187767D01*
G01X3158606Y4181302D01*
G01X3153064Y4170218D01*
G01X3149369Y4163753D01*
G01X3141980Y4148974D01*
G01X3138286Y4142509D01*
G01X3137362Y4140200D01*
G01X3103187Y4140200D01*
G37*
G36*
G01X3829166Y4140200D02*
G01X3829166Y4147589D01*
G01X3829627Y4156364D01*
G01X3831013Y4159134D01*
G01X3834707Y4163753D01*
G01X3837016Y4166062D01*
G01X3840711Y4170680D01*
G01X3845329Y4175298D01*
G01X3850871Y4181764D01*
G01X3854104Y4184996D01*
G01X3856875Y4188691D01*
G01X3861493Y4193309D01*
G01X3865187Y4197927D01*
G01X3869806Y4202546D01*
G01X3873500Y4207164D01*
G01X3875809Y4209473D01*
G01X3881351Y4215938D01*
G01X3884584Y4219171D01*
G01X3887355Y4222866D01*
G01X3892896Y4228407D01*
G01X3895667Y4232102D01*
G01X3900286Y4236720D01*
G01X3903980Y4241338D01*
G01X3906289Y4243647D01*
G01X3909984Y4248266D01*
G01X3914602Y4252884D01*
G01X3920144Y4259349D01*
G01X3921991Y4261658D01*
G01X3910907Y4262697D01*
G01X3876733Y4263044D01*
G01X3831013Y4263044D01*
G01X3831013Y4293524D01*
G01X3967711Y4293524D01*
G01X3967711Y4286134D01*
G01X3967249Y4277360D01*
G01X3964940Y4273666D01*
G01X3962169Y4269971D01*
G01X3957551Y4265353D01*
G01X3953856Y4260734D01*
G01X3951547Y4258426D01*
G01X3946006Y4251960D01*
G01X3942773Y4248727D01*
G01X3940002Y4245033D01*
G01X3935384Y4240414D01*
G01X3931689Y4235796D01*
G01X3929380Y4233487D01*
G01X3923838Y4227022D01*
G01X3920606Y4223789D01*
G01X3917835Y4220094D01*
G01X3913216Y4215476D01*
G01X3909522Y4210858D01*
G01X3907213Y4208549D01*
G01X3901671Y4202084D01*
G01X3898438Y4198851D01*
G01X3895667Y4195156D01*
G01X3890126Y4189614D01*
G01X3887355Y4185920D01*
G01X3882736Y4181302D01*
G01X3879042Y4176684D01*
G01X3876733Y4174374D01*
G01X3874886Y4172066D01*
G01X3886200Y4171026D01*
G01X3921067Y4170680D01*
G01X3967711Y4170680D01*
G01X3967711Y4140200D01*
G01X3829166Y4140200D01*
G37*
G36*
G01X3334558Y4136506D02*
G01X3323013Y4136967D01*
G01X3319780Y4137891D01*
G01X3316086Y4138814D01*
G01X3311929Y4139738D01*
G01X3307773Y4141124D01*
G01X3301307Y4143894D01*
G01X3294842Y4147589D01*
G01X3292071Y4149436D01*
G01X3285606Y4154054D01*
G01X3277755Y4161906D01*
G01X3274060Y4166524D01*
G01X3270827Y4171142D01*
G01X3268056Y4175760D01*
G01X3265747Y4179454D01*
G01X3262053Y4187767D01*
G01X3260667Y4191462D01*
G01X3257896Y4199774D01*
G01X3256511Y4205316D01*
G01X3255126Y4211782D01*
G01X3254202Y4216400D01*
G01X3253278Y4225636D01*
G01X3252816Y4239953D01*
G01X3252979Y4245956D01*
G01X3283296Y4245956D01*
G01X3283758Y4232102D01*
G01X3285606Y4219171D01*
G01X3286991Y4211782D01*
G01X3288376Y4207164D01*
G01X3289300Y4203931D01*
G01X3290686Y4200236D01*
G01X3292533Y4196080D01*
G01X3294842Y4191462D01*
G01X3297151Y4187767D01*
G01X3298998Y4184996D01*
G01X3302693Y4180378D01*
G01X3305926Y4177146D01*
G01X3309620Y4174374D01*
G01X3312853Y4172066D01*
G01X3316547Y4170218D01*
G01X3320242Y4168833D01*
G01X3324398Y4167909D01*
G01X3324398Y4167909D01*
G01X3327169Y4167447D01*
G01X3334096Y4166986D01*
G01X3341947Y4167447D01*
G01X3346566Y4168371D01*
G01X3351646Y4169756D01*
G01X3355802Y4171604D01*
G01X3359958Y4173913D01*
G01X3363191Y4176222D01*
G01X3370118Y4183149D01*
G01X3371966Y4185458D01*
G01X3374275Y4188691D01*
G01X3376584Y4192386D01*
G01X3378431Y4196080D01*
G01X3380278Y4200236D01*
G01X3383049Y4208549D01*
G01X3384435Y4213167D01*
G01X3385358Y4217324D01*
G01X3386282Y4224713D01*
G01X3387206Y4234873D01*
G01X3387667Y4241338D01*
G01X3387206Y4247804D01*
G01X3386744Y4251498D01*
G01X3386282Y4257964D01*
G01X3385358Y4264429D01*
G01X3384435Y4269971D01*
G01X3383049Y4275974D01*
G01X3380278Y4284287D01*
G01X3378431Y4288444D01*
G01X3376584Y4292138D01*
G01X3374275Y4296294D01*
G01X3371966Y4299989D01*
G01X3369656Y4302760D01*
G01X3361344Y4311073D01*
G01X3359035Y4312920D01*
G01X3355802Y4314767D01*
G01X3351646Y4316614D01*
G01X3347027Y4318000D01*
G01X3342871Y4318924D01*
G01X3336406Y4319386D01*
G01X3329940Y4318924D01*
G01X3326707Y4318462D01*
G01X3322089Y4317538D01*
G01X3317009Y4315691D01*
G01X3310544Y4312458D01*
G01X3308235Y4310611D01*
G01X3299922Y4302298D01*
G01X3298075Y4299989D01*
G01X3294380Y4294447D01*
G01X3292533Y4290753D01*
G01X3290686Y4286596D01*
G01X3289300Y4282902D01*
G01X3287915Y4278746D01*
G01X3286529Y4274127D01*
G01X3285606Y4269971D01*
G01X3283758Y4257040D01*
G01X3283296Y4245956D01*
G01X3252979Y4245956D01*
G01X3253278Y4257040D01*
G01X3254202Y4265353D01*
G01X3255126Y4270894D01*
G01X3255587Y4274127D01*
G01X3256511Y4279207D01*
G01X3258358Y4285673D01*
G01X3260206Y4291676D01*
G01X3262053Y4296756D01*
G01X3265747Y4305069D01*
G01X3267595Y4308764D01*
G01X3269442Y4311996D01*
G01X3274984Y4320309D01*
G01X3277293Y4323080D01*
G01X3287453Y4333240D01*
G01X3291147Y4335549D01*
G01X3293456Y4337396D01*
G01X3296689Y4339706D01*
G01X3304078Y4343400D01*
G01X3308696Y4345247D01*
G01X3312391Y4346633D01*
G01X3320704Y4348480D01*
G01X3328093Y4349404D01*
G01X3333173Y4349866D01*
G01X3338253Y4349404D01*
G01X3346566Y4348480D01*
G01X3351646Y4347556D01*
G01X3357187Y4346171D01*
G01X3361344Y4344786D01*
G01X3365038Y4343400D01*
G01X3373351Y4339244D01*
G01X3381664Y4333702D01*
G01X3384896Y4330931D01*
G01X3394133Y4321694D01*
G01X3398751Y4315229D01*
G01X3403369Y4307840D01*
G01X3407064Y4300451D01*
G01X3411220Y4289367D01*
G01X3412606Y4284287D01*
G01X3413991Y4280131D01*
G01X3415838Y4269971D01*
G01X3416762Y4263506D01*
G01X3417686Y4249651D01*
G01X3418147Y4244571D01*
G01X3417686Y4239491D01*
G01X3416762Y4225636D01*
G01X3415838Y4218247D01*
G01X3413067Y4204393D01*
G01X3411682Y4199313D01*
G01X3408911Y4191000D01*
G01X3407064Y4186844D01*
G01X3401060Y4174836D01*
G01X3398289Y4170680D01*
G01X3396442Y4167447D01*
G01X3394595Y4165138D01*
G01X3392286Y4162829D01*
G01X3388591Y4158211D01*
G01X3383973Y4154516D01*
G01X3381664Y4152207D01*
G01X3379355Y4150360D01*
G01X3376122Y4148051D01*
G01X3372427Y4145742D01*
G01X3368733Y4143894D01*
G01X3364576Y4142047D01*
G01X3359958Y4140200D01*
G01X3355802Y4138814D01*
G01X3346566Y4136967D01*
G01X3334558Y4136506D01*
G37*
G36*
G01X3519286Y4136506D02*
G01X3507740Y4136967D01*
G01X3504507Y4137891D01*
G01X3500813Y4138814D01*
G01X3496656Y4139738D01*
G01X3492500Y4141124D01*
G01X3488344Y4142971D01*
G01X3484649Y4144818D01*
G01X3481416Y4146666D01*
G01X3476798Y4149436D01*
G01X3473104Y4151746D01*
G01X3470795Y4153593D01*
G01X3461558Y4162829D01*
G01X3458787Y4166524D01*
G01X3455555Y4171142D01*
G01X3452784Y4175760D01*
G01X3450475Y4179454D01*
G01X3446780Y4187767D01*
G01X3445395Y4191462D01*
G01X3442624Y4199774D01*
G01X3441238Y4205316D01*
G01X3439853Y4211782D01*
G01X3438929Y4216400D01*
G01X3438006Y4224713D01*
G01X3437544Y4241338D01*
G01X3437634Y4244571D01*
G01X3468024Y4244571D01*
G01X3468486Y4232102D01*
G01X3469409Y4224713D01*
G01X3470333Y4219171D01*
G01X3471718Y4211782D01*
G01X3473104Y4207164D01*
G01X3474027Y4203931D01*
G01X3475413Y4200236D01*
G01X3477260Y4196080D01*
G01X3479569Y4191462D01*
G01X3481878Y4187767D01*
G01X3483726Y4184996D01*
G01X3487420Y4180378D01*
G01X3490653Y4177146D01*
G01X3494347Y4174374D01*
G01X3497580Y4172066D01*
G01X3501275Y4170218D01*
G01X3504969Y4168833D01*
G01X3509126Y4167909D01*
G01X3509126Y4167909D01*
G01X3511896Y4167447D01*
G01X3518824Y4166986D01*
G01X3526675Y4167447D01*
G01X3531293Y4168371D01*
G01X3536373Y4169756D01*
G01X3540529Y4171604D01*
G01X3544686Y4173913D01*
G01X3547918Y4176222D01*
G01X3554846Y4183149D01*
G01X3556693Y4185458D01*
G01X3559002Y4188691D01*
G01X3561311Y4192386D01*
G01X3563158Y4196080D01*
G01X3565006Y4200236D01*
G01X3567776Y4208549D01*
G01X3569162Y4213629D01*
G01X3570086Y4218247D01*
G01X3571009Y4224713D01*
G01X3572395Y4241338D01*
G01X3571009Y4257964D01*
G01X3569624Y4267662D01*
G01X3568700Y4272742D01*
G01X3566853Y4278746D01*
G01X3565006Y4284287D01*
G01X3563158Y4288444D01*
G01X3561311Y4292138D01*
G01X3559002Y4296294D01*
G01X3556693Y4299989D01*
G01X3554384Y4302760D01*
G01X3546071Y4311073D01*
G01X3543762Y4312920D01*
G01X3540529Y4314767D01*
G01X3536373Y4316614D01*
G01X3531755Y4318000D01*
G01X3527598Y4318924D01*
G01X3521133Y4319386D01*
G01X3514667Y4318924D01*
G01X3511435Y4318462D01*
G01X3506816Y4317538D01*
G01X3501736Y4315691D01*
G01X3495271Y4312458D01*
G01X3492962Y4310611D01*
G01X3484649Y4302298D01*
G01X3482802Y4299989D01*
G01X3479107Y4294447D01*
G01X3477260Y4290753D01*
G01X3475413Y4286596D01*
G01X3474027Y4282902D01*
G01X3472642Y4278746D01*
G01X3471256Y4274127D01*
G01X3470333Y4269971D01*
G01X3468486Y4257040D01*
G01X3468024Y4244571D01*
G01X3437634Y4244571D01*
G01X3438006Y4257964D01*
G01X3438929Y4266276D01*
G01X3440776Y4276436D01*
G01X3441700Y4281054D01*
G01X3443086Y4286134D01*
G01X3445856Y4294447D01*
G01X3447242Y4298142D01*
G01X3448627Y4301374D01*
G01X3452322Y4308764D01*
G01X3454169Y4311996D01*
G01X3459711Y4320309D01*
G01X3462020Y4323080D01*
G01X3472180Y4333240D01*
G01X3475875Y4335549D01*
G01X3478184Y4337396D01*
G01X3481416Y4339706D01*
G01X3488806Y4343400D01*
G01X3493424Y4345247D01*
G01X3497118Y4346633D01*
G01X3505431Y4348480D01*
G01X3512820Y4349404D01*
G01X3517900Y4349866D01*
G01X3522980Y4349404D01*
G01X3531293Y4348480D01*
G01X3536373Y4347556D01*
G01X3541915Y4346171D01*
G01X3546071Y4344786D01*
G01X3549766Y4343400D01*
G01X3557155Y4339706D01*
G01X3560849Y4337396D01*
G01X3567315Y4332778D01*
G01X3570547Y4330007D01*
G01X3577475Y4323080D01*
G01X3580246Y4319847D01*
G01X3582555Y4316614D01*
G01X3586249Y4311073D01*
G01X3588096Y4307840D01*
G01X3589944Y4304146D01*
G01X3592715Y4297680D01*
G01X3595486Y4290291D01*
G01X3596871Y4285673D01*
G01X3598256Y4280593D01*
G01X3599642Y4275051D01*
G01X3600566Y4269971D01*
G01X3601489Y4262582D01*
G01X3602413Y4248727D01*
G01X3602875Y4244571D01*
G01X3602413Y4240414D01*
G01X3601489Y4225636D01*
G01X3600566Y4218247D01*
G01X3597795Y4204393D01*
G01X3596409Y4199313D01*
G01X3593638Y4191000D01*
G01X3591791Y4186844D01*
G01X3585787Y4174836D01*
G01X3583016Y4170680D01*
G01X3581169Y4167447D01*
G01X3579322Y4165138D01*
G01X3576089Y4161906D01*
G01X3573318Y4158211D01*
G01X3568700Y4154516D01*
G01X3566391Y4152207D01*
G01X3564082Y4150360D01*
G01X3560849Y4148051D01*
G01X3557155Y4145742D01*
G01X3553460Y4143894D01*
G01X3549304Y4142047D01*
G01X3544686Y4140200D01*
G01X3540529Y4138814D01*
G01X3531293Y4136967D01*
G01X3519286Y4136506D01*
G37*
G36*
G01X3628736Y4140200D02*
G01X3628736Y4353560D01*
G01X3659216Y4353560D01*
G01X3659216Y4265814D01*
G01X3772824Y4265814D01*
G01X3772824Y4307378D01*
G01X3773286Y4351251D01*
G01X3773747Y4353560D01*
G01X3803304Y4353560D01*
G01X3803304Y4140200D01*
G01X3772824Y4140200D01*
G01X3772824Y4235334D01*
G01X3659216Y4235334D01*
G01X3659216Y4140200D01*
G01X3628736Y4140200D01*
G37*
G36*
G01X3147118Y3133206D02*
G01X3132340Y3133667D01*
G01X3128183Y3134591D01*
G01X3121718Y3135514D01*
G01X3117100Y3136438D01*
G01X3113867Y3136900D01*
G01X3110172Y3137824D01*
G01X3105554Y3139209D01*
G01X3101398Y3140594D01*
G01X3094932Y3143366D01*
G01X3091238Y3145213D01*
G01X3089737Y3146483D01*
G01X3089852Y3148446D01*
G01X3093547Y3155834D01*
G01X3097241Y3164147D01*
G01X3100936Y3171536D01*
G01X3102321Y3173846D01*
G01X3104631Y3172460D01*
G01X3108325Y3170613D01*
G01X3112020Y3169227D01*
G01X3120332Y3166456D01*
G01X3125874Y3165071D01*
G01X3130954Y3164147D01*
G01X3145732Y3163224D01*
G01X3148503Y3163224D01*
G01X3160511Y3164147D01*
G01X3163743Y3164609D01*
G01X3168823Y3165533D01*
G01X3174827Y3167380D01*
G01X3178983Y3169227D01*
G01X3182216Y3170613D01*
G01X3184987Y3172460D01*
G01X3191452Y3178002D01*
G01X3194223Y3181696D01*
G01X3196994Y3185853D01*
G01X3198841Y3190471D01*
G01X3200227Y3194627D01*
G01X3201151Y3201093D01*
G01X3201151Y3205249D01*
G01X3200227Y3211253D01*
G01X3199303Y3215871D01*
G01X3197918Y3219566D01*
G01X3195609Y3223722D01*
G01X3193300Y3226954D01*
G01X3190067Y3230187D01*
G01X3185911Y3232958D01*
G01X3182678Y3234806D01*
G01X3179445Y3236191D01*
G01X3175751Y3237576D01*
G01X3171132Y3238962D01*
G01X3166976Y3239886D01*
G01X3158663Y3240809D01*
G01X3151274Y3241271D01*
G01X3143885Y3240809D01*
G01X3131878Y3239886D01*
G01X3124489Y3238962D01*
G01X3113405Y3237114D01*
G01X3108787Y3236191D01*
G01X3103707Y3234806D01*
G01X3100474Y3234344D01*
G01X3099551Y3235036D01*
G01X3099551Y3236191D01*
G01X3101398Y3249122D01*
G01X3102321Y3256511D01*
G01X3103245Y3262976D01*
G01X3104169Y3270366D01*
G01X3106016Y3283296D01*
G01X3108787Y3305464D01*
G01X3111096Y3321627D01*
G01X3111558Y3325784D01*
G01X3112481Y3332249D01*
G01X3113405Y3339638D01*
G01X3113867Y3342871D01*
G01X3164667Y3342871D01*
G01X3217776Y3342409D01*
G01X3220085Y3341947D01*
G01X3220085Y3312391D01*
G01X3179907Y3312391D01*
G01X3149773Y3311929D01*
G01X3139729Y3310544D01*
G01X3138343Y3300846D01*
G01X3137420Y3293456D01*
G01X3134649Y3274060D01*
G01X3134187Y3269904D01*
G01X3134418Y3267941D01*
G01X3135111Y3267594D01*
G01X3139267Y3268056D01*
G01X3143885Y3268518D01*
G01X3147580Y3268980D01*
G01X3151274Y3268518D01*
G01X3156816Y3268056D01*
G01X3165129Y3267594D01*
G01X3170671Y3266671D01*
G01X3175289Y3265747D01*
G01X3181754Y3264362D01*
G01X3187758Y3262514D01*
G01X3192838Y3260667D01*
G01X3200227Y3256973D01*
G01X3204383Y3254664D01*
G01X3207616Y3252816D01*
G01X3209925Y3250969D01*
G01X3216391Y3245427D01*
G01X3221932Y3238500D01*
G01X3223780Y3235267D01*
G01X3225627Y3231573D01*
G01X3227012Y3228340D01*
G01X3228398Y3224646D01*
G01X3229783Y3220027D01*
G01X3230707Y3215871D01*
G01X3231169Y3205249D01*
G01X3230707Y3194627D01*
G01X3230245Y3191394D01*
G01X3229321Y3187700D01*
G01X3227936Y3183544D01*
G01X3226551Y3179849D01*
G01X3222856Y3172460D01*
G01X3220547Y3168766D01*
G01X3217314Y3164147D01*
G01X3214543Y3160453D01*
G01X3206692Y3152602D01*
G01X3202998Y3149831D01*
G01X3199765Y3147522D01*
G01X3196071Y3145213D01*
G01X3192838Y3143366D01*
G01X3189143Y3141518D01*
G01X3184987Y3139671D01*
G01X3181292Y3138286D01*
G01X3176674Y3136900D01*
G01X3172518Y3135514D01*
G01X3162358Y3133667D01*
G01X3147118Y3133206D01*
G37*
G36*
G01X3827838Y3136900D02*
G01X3827838Y3145213D01*
G01X3828761Y3154911D01*
G01X3830609Y3157682D01*
G01X3835227Y3162300D01*
G01X3838921Y3166918D01*
G01X3841231Y3169227D01*
G01X3844925Y3173846D01*
G01X3849543Y3178464D01*
G01X3855085Y3184929D01*
G01X3858318Y3188162D01*
G01X3861089Y3191856D01*
G01X3865707Y3196474D01*
G01X3869401Y3201093D01*
G01X3874020Y3205711D01*
G01X3877714Y3210329D01*
G01X3880023Y3212638D01*
G01X3885565Y3219104D01*
G01X3888798Y3222336D01*
G01X3891569Y3226031D01*
G01X3897111Y3231573D01*
G01X3899881Y3235267D01*
G01X3904500Y3239886D01*
G01X3908194Y3244504D01*
G01X3910503Y3246813D01*
G01X3914198Y3251431D01*
G01X3918816Y3256049D01*
G01X3920663Y3258358D01*
G01X3909580Y3259397D01*
G01X3875405Y3259744D01*
G01X3829685Y3259744D01*
G01X3829685Y3290224D01*
G01X3966383Y3290224D01*
G01X3966383Y3283296D01*
G01X3965921Y3274060D01*
G01X3964074Y3270827D01*
G01X3961765Y3268518D01*
G01X3958071Y3263900D01*
G01X3955761Y3261591D01*
G01X3950220Y3255126D01*
G01X3946987Y3251893D01*
G01X3944216Y3248198D01*
G01X3939598Y3243580D01*
G01X3935903Y3238962D01*
G01X3933594Y3236653D01*
G01X3928052Y3230187D01*
G01X3924820Y3226954D01*
G01X3922049Y3223260D01*
G01X3917431Y3218642D01*
G01X3913736Y3214024D01*
G01X3909118Y3209406D01*
G01X3905423Y3204787D01*
G01X3903114Y3202478D01*
G01X3897572Y3196013D01*
G01X3894340Y3192780D01*
G01X3891569Y3189086D01*
G01X3886951Y3184467D01*
G01X3883256Y3179849D01*
G01X3880947Y3177540D01*
G01X3875405Y3171074D01*
G01X3873558Y3168766D01*
G01X3884872Y3167726D01*
G01X3919740Y3167380D01*
G01X3966383Y3167380D01*
G01X3966383Y3136900D01*
G01X3827838Y3136900D01*
G37*
G36*
G01X3333231Y3133206D02*
G01X3318914Y3134129D01*
G01X3311987Y3135976D01*
G01X3306445Y3137824D01*
G01X3301827Y3139671D01*
G01X3297209Y3141980D01*
G01X3292591Y3144751D01*
G01X3289358Y3147060D01*
G01X3286587Y3148907D01*
G01X3283816Y3151216D01*
G01X3274580Y3160453D01*
G01X3271809Y3164147D01*
G01X3267191Y3171074D01*
G01X3265343Y3174307D01*
G01X3261649Y3181696D01*
G01X3259801Y3186314D01*
G01X3257954Y3191394D01*
G01X3256107Y3197398D01*
G01X3254721Y3202016D01*
G01X3252874Y3212176D01*
G01X3251951Y3219566D01*
G01X3251027Y3234344D01*
G01X3250565Y3238038D01*
G01X3250969Y3241271D01*
G01X3281969Y3241271D01*
G01X3282431Y3226954D01*
G01X3283354Y3220489D01*
G01X3283816Y3216794D01*
G01X3284740Y3211253D01*
G01X3286125Y3206634D01*
G01X3287049Y3202940D01*
G01X3288434Y3198784D01*
G01X3292129Y3190471D01*
G01X3294438Y3186314D01*
G01X3297209Y3182158D01*
G01X3299518Y3178926D01*
G01X3304136Y3174307D01*
G01X3307369Y3171536D01*
G01X3311525Y3168766D01*
G01X3315220Y3166918D01*
G01X3318914Y3165533D01*
G01X3322609Y3164609D01*
G01X3322609Y3164609D01*
G01X3324918Y3164147D01*
G01X3330921Y3163686D01*
G01X3340620Y3164147D01*
G01X3347547Y3165533D01*
G01X3352627Y3167380D01*
G01X3356783Y3169689D01*
G01X3360478Y3171998D01*
G01X3363249Y3174307D01*
G01X3367867Y3178926D01*
G01X3370638Y3182620D01*
G01X3375256Y3189547D01*
G01X3377103Y3193242D01*
G01X3380798Y3202478D01*
G01X3382183Y3206634D01*
G01X3384031Y3215871D01*
G01X3384954Y3223260D01*
G01X3385416Y3229264D01*
G01X3385878Y3236191D01*
G01X3385878Y3239886D01*
G01X3384954Y3252816D01*
G01X3384492Y3256049D01*
G01X3384031Y3260206D01*
G01X3382183Y3269442D01*
G01X3380336Y3276831D01*
G01X3378951Y3280526D01*
G01X3377103Y3284682D01*
G01X3374794Y3289762D01*
G01X3372485Y3293456D01*
G01X3370638Y3296227D01*
G01X3366943Y3300846D01*
G01X3360016Y3307773D01*
G01X3357707Y3309620D01*
G01X3354474Y3311467D01*
G01X3350318Y3313314D01*
G01X3345238Y3314700D01*
G01X3340620Y3315624D01*
G01X3334616Y3316086D01*
G01X3327689Y3315624D01*
G01X3323071Y3314700D01*
G01X3319376Y3313776D01*
G01X3316143Y3312853D01*
G01X3310601Y3310082D01*
G01X3307831Y3308234D01*
G01X3304598Y3305464D01*
G01X3300441Y3301769D01*
G01X3297671Y3298074D01*
G01X3295361Y3294842D01*
G01X3293052Y3291147D01*
G01X3291205Y3287914D01*
G01X3288434Y3281449D01*
G01X3287049Y3277293D01*
G01X3285663Y3272674D01*
G01X3284278Y3267133D01*
G01X3283354Y3262053D01*
G01X3282431Y3255587D01*
G01X3281969Y3241271D01*
G01X3250969Y3241271D01*
G01X3251027Y3241733D01*
G01X3251489Y3248198D01*
G01X3251951Y3256511D01*
G01X3252874Y3263900D01*
G01X3253798Y3269442D01*
G01X3254260Y3272674D01*
G01X3255183Y3276369D01*
G01X3256569Y3280987D01*
G01X3257954Y3286529D01*
G01X3259801Y3291609D01*
G01X3261649Y3296227D01*
G01X3267652Y3308234D01*
G01X3273194Y3316547D01*
G01X3278736Y3323013D01*
G01X3281507Y3325784D01*
G01X3283816Y3327631D01*
G01X3286125Y3329940D01*
G01X3289820Y3332711D01*
G01X3293976Y3335482D01*
G01X3297209Y3337329D01*
G01X3302751Y3340100D01*
G01X3306907Y3341947D01*
G01X3311063Y3343333D01*
G01X3318452Y3345180D01*
G01X3326765Y3346104D01*
G01X3331845Y3346566D01*
G01X3336925Y3346104D01*
G01X3345238Y3345180D01*
G01X3349856Y3344256D01*
G01X3355860Y3342871D01*
G01X3360940Y3341024D01*
G01X3365558Y3339176D01*
G01X3369252Y3337329D01*
G01X3372485Y3335482D01*
G01X3375256Y3333634D01*
G01X3381721Y3329016D01*
G01X3384031Y3327169D01*
G01X3390958Y3320242D01*
G01X3396500Y3312853D01*
G01X3398347Y3310544D01*
G01X3402041Y3304078D01*
G01X3403427Y3301307D01*
G01X3404812Y3298074D01*
G01X3406660Y3293918D01*
G01X3408507Y3289300D01*
G01X3409892Y3285144D01*
G01X3411278Y3280064D01*
G01X3412663Y3275907D01*
G01X3414511Y3265747D01*
G01X3415434Y3257434D01*
G01X3415896Y3241271D01*
G01X3415434Y3225107D01*
G01X3414972Y3221413D01*
G01X3414511Y3216794D01*
G01X3413587Y3211253D01*
G01X3412663Y3206634D01*
G01X3411740Y3202478D01*
G01X3410354Y3196936D01*
G01X3408507Y3191394D01*
G01X3406660Y3186314D01*
G01X3402965Y3178002D01*
G01X3399271Y3171536D01*
G01X3396500Y3166918D01*
G01X3393267Y3162300D01*
G01X3390496Y3159067D01*
G01X3380336Y3148907D01*
G01X3375718Y3145674D01*
G01X3371561Y3142904D01*
G01X3367405Y3140594D01*
G01X3363249Y3138747D01*
G01X3358631Y3136900D01*
G01X3354474Y3135514D01*
G01X3345238Y3133667D01*
G01X3333231Y3133206D01*
G37*
G36*
G01X3517958Y3133206D02*
G01X3505951Y3133667D01*
G01X3503180Y3134591D01*
G01X3499023Y3135514D01*
G01X3493481Y3136900D01*
G01X3488863Y3138747D01*
G01X3484707Y3140594D01*
G01X3481012Y3142442D01*
G01X3477318Y3144751D01*
G01X3474085Y3147060D01*
G01X3471314Y3148907D01*
G01X3468543Y3151216D01*
G01X3459307Y3160453D01*
G01X3457460Y3162762D01*
G01X3455151Y3165994D01*
G01X3452380Y3170151D01*
G01X3450071Y3174307D01*
G01X3446376Y3181696D01*
G01X3444529Y3186314D01*
G01X3442681Y3191394D01*
G01X3440834Y3197398D01*
G01X3439449Y3202016D01*
G01X3437601Y3212176D01*
G01X3436678Y3219566D01*
G01X3435754Y3234344D01*
G01X3435292Y3238038D01*
G01X3435696Y3241271D01*
G01X3466696Y3241271D01*
G01X3467158Y3226954D01*
G01X3469005Y3214024D01*
G01X3469929Y3209406D01*
G01X3471314Y3204326D01*
G01X3472700Y3200169D01*
G01X3474085Y3196474D01*
G01X3475471Y3193242D01*
G01X3476856Y3190471D01*
G01X3478703Y3187238D01*
G01X3481474Y3182620D01*
G01X3484245Y3178926D01*
G01X3488863Y3174307D01*
G01X3492096Y3171536D01*
G01X3496252Y3168766D01*
G01X3499947Y3166918D01*
G01X3503641Y3165533D01*
G01X3507336Y3164609D01*
G01X3507336Y3164609D01*
G01X3509645Y3164147D01*
G01X3515649Y3163686D01*
G01X3525347Y3164147D01*
G01X3532274Y3165533D01*
G01X3537354Y3167380D01*
G01X3541511Y3169689D01*
G01X3545205Y3171998D01*
G01X3547976Y3174307D01*
G01X3552594Y3178926D01*
G01X3554441Y3181234D01*
G01X3556751Y3184467D01*
G01X3559521Y3189086D01*
G01X3561831Y3193704D01*
G01X3563678Y3197860D01*
G01X3565525Y3202478D01*
G01X3566911Y3206634D01*
G01X3568758Y3215871D01*
G01X3569681Y3223260D01*
G01X3570605Y3237114D01*
G01X3570605Y3239424D01*
G01X3570143Y3244966D01*
G01X3569681Y3252816D01*
G01X3568758Y3259282D01*
G01X3567834Y3264824D01*
G01X3566911Y3269442D01*
G01X3565525Y3274984D01*
G01X3563678Y3280064D01*
G01X3561831Y3284682D01*
G01X3559521Y3289762D01*
G01X3557212Y3293456D01*
G01X3555365Y3296227D01*
G01X3551671Y3300846D01*
G01X3544743Y3307773D01*
G01X3541972Y3309620D01*
G01X3538740Y3311467D01*
G01X3535045Y3313314D01*
G01X3529965Y3314700D01*
G01X3525347Y3315624D01*
G01X3518881Y3316086D01*
G01X3512416Y3315624D01*
G01X3507798Y3314700D01*
G01X3502256Y3313314D01*
G01X3498100Y3311467D01*
G01X3494867Y3309620D01*
G01X3487478Y3304078D01*
G01X3485169Y3301769D01*
G01X3482398Y3298074D01*
G01X3479165Y3293456D01*
G01X3476856Y3289762D01*
G01X3475009Y3286067D01*
G01X3473161Y3281449D01*
G01X3471314Y3276369D01*
G01X3469929Y3272213D01*
G01X3468081Y3262053D01*
G01X3467158Y3255587D01*
G01X3466696Y3241271D01*
G01X3435696Y3241271D01*
G01X3435754Y3241733D01*
G01X3436216Y3247736D01*
G01X3436678Y3256511D01*
G01X3437601Y3263900D01*
G01X3438525Y3269442D01*
G01X3439449Y3274060D01*
G01X3441296Y3281449D01*
G01X3442681Y3286529D01*
G01X3444529Y3292071D01*
G01X3446376Y3296227D01*
G01X3447761Y3299460D01*
G01X3449609Y3303154D01*
G01X3451918Y3307311D01*
G01X3454689Y3311929D01*
G01X3457921Y3316547D01*
G01X3463463Y3323013D01*
G01X3466234Y3325784D01*
G01X3468543Y3327631D01*
G01X3470852Y3329940D01*
G01X3474547Y3332711D01*
G01X3478703Y3335482D01*
G01X3481936Y3337329D01*
G01X3487478Y3340100D01*
G01X3491634Y3341947D01*
G01X3495791Y3343333D01*
G01X3503180Y3345180D01*
G01X3511492Y3346104D01*
G01X3516572Y3346566D01*
G01X3521652Y3346104D01*
G01X3529965Y3345180D01*
G01X3534583Y3344256D01*
G01X3540587Y3342871D01*
G01X3545667Y3341024D01*
G01X3550285Y3339176D01*
G01X3554903Y3336867D01*
G01X3558598Y3334558D01*
G01X3561369Y3332711D01*
G01X3567834Y3328093D01*
G01X3575685Y3320242D01*
G01X3581227Y3312853D01*
G01X3583998Y3308696D01*
G01X3587692Y3302231D01*
G01X3591387Y3293918D01*
G01X3593234Y3289300D01*
G01X3595081Y3283296D01*
G01X3596929Y3276831D01*
G01X3598314Y3270366D01*
G01X3599238Y3265747D01*
G01X3600161Y3257434D01*
G01X3600623Y3241271D01*
G01X3600161Y3225107D01*
G01X3599700Y3221413D01*
G01X3599238Y3216794D01*
G01X3598314Y3211253D01*
G01X3597391Y3206634D01*
G01X3596467Y3202478D01*
G01X3595081Y3196936D01*
G01X3593234Y3191394D01*
G01X3591387Y3186314D01*
G01X3587692Y3178002D01*
G01X3583998Y3171536D01*
G01X3581227Y3166918D01*
G01X3577994Y3162300D01*
G01X3575223Y3159067D01*
G01X3565987Y3149831D01*
G01X3562292Y3147060D01*
G01X3555365Y3142442D01*
G01X3552132Y3140594D01*
G01X3547976Y3138747D01*
G01X3543358Y3136900D01*
G01X3539201Y3135514D01*
G01X3529965Y3133667D01*
G01X3517958Y3133206D01*
G37*
G36*
G01X3626485Y3136900D02*
G01X3626485Y3241271D01*
G01X3626947Y3347951D01*
G01X3627409Y3350260D01*
G01X3656965Y3350260D01*
G01X3656965Y3262514D01*
G01X3771496Y3262514D01*
G01X3771496Y3350260D01*
G01X3801976Y3350260D01*
G01X3801976Y3136900D01*
G01X3771496Y3136900D01*
G01X3771496Y3232034D01*
G01X3656965Y3232034D01*
G01X3656965Y3136900D01*
G01X3626485Y3136900D01*
G37*
G36*
G01X3160049Y2128982D02*
G01X3154045Y2129444D01*
G01X3150812Y2129906D01*
G01X3144809Y2130367D01*
G01X3138343Y2131291D01*
G01X3133725Y2132214D01*
G01X3129569Y2133138D01*
G01X3123565Y2134524D01*
G01X3117561Y2136371D01*
G01X3112019Y2138218D01*
G01X3107401Y2140066D01*
G01X3103245Y2141913D01*
G01X3098627Y2144222D01*
G01X3097126Y2145723D01*
G01X3097241Y2147454D01*
G01X3099089Y2150687D01*
G01X3100936Y2154382D01*
G01X3102783Y2159000D01*
G01X3108325Y2170084D01*
G01X3109364Y2171007D01*
G01X3110634Y2171007D01*
G01X3113867Y2169622D01*
G01X3117561Y2168236D01*
G01X3120794Y2166851D01*
G01X3124950Y2165466D01*
G01X3129569Y2164080D01*
G01X3134649Y2162694D01*
G01X3139267Y2161771D01*
G01X3146656Y2160847D01*
G01X3158663Y2160386D01*
G01X3170670Y2160847D01*
G01X3177136Y2161771D01*
G01X3181292Y2162694D01*
G01X3186372Y2164080D01*
G01X3190990Y2165927D01*
G01X3194685Y2167774D01*
G01X3197918Y2169622D01*
G01X3200689Y2171931D01*
G01X3202998Y2174240D01*
G01X3205769Y2177473D01*
G01X3208078Y2181167D01*
G01X3209463Y2185324D01*
G01X3210387Y2189480D01*
G01X3210849Y2193636D01*
G01X3210387Y2198716D01*
G01X3209463Y2203334D01*
G01X3208078Y2207491D01*
G01X3206692Y2210724D01*
G01X3204845Y2213033D01*
G01X3200227Y2217651D01*
G01X3196994Y2219960D01*
G01X3193299Y2222269D01*
G01X3189605Y2224116D01*
G01X3184987Y2225964D01*
G01X3180830Y2227349D01*
G01X3172518Y2229196D01*
G01X3165129Y2230120D01*
G01X3147579Y2230582D01*
G01X3131416Y2230582D01*
G01X3131416Y2255520D01*
G01X3141114Y2255520D01*
G01X3152198Y2255982D01*
G01X3162358Y2256906D01*
G01X3168823Y2257829D01*
G01X3172518Y2258753D01*
G01X3177598Y2260138D01*
G01X3182678Y2261986D01*
G01X3186834Y2263833D01*
G01X3190067Y2265680D01*
G01X3192838Y2267066D01*
G01X3195147Y2268913D01*
G01X3197456Y2271222D01*
G01X3199765Y2273069D01*
G01X3202074Y2275840D01*
G01X3203921Y2279996D01*
G01X3204845Y2283691D01*
G01X3204845Y2286924D01*
G01X3203921Y2292004D01*
G01X3202074Y2297546D01*
G01X3199765Y2300778D01*
G01X3197918Y2303087D01*
G01X3195147Y2305396D01*
G01X3192376Y2307244D01*
G01X3189605Y2308629D01*
G01X3186372Y2310014D01*
G01X3182678Y2311400D01*
G01X3178983Y2312324D01*
G01X3172518Y2313247D01*
G01X3165129Y2313709D01*
G01X3155892Y2313247D01*
G01X3149427Y2312324D01*
G01X3144809Y2311400D01*
G01X3140652Y2310476D01*
G01X3136034Y2309091D01*
G01X3131416Y2307244D01*
G01X3127259Y2305396D01*
G01X3119870Y2301702D01*
G01X3117561Y2301240D01*
G01X3115714Y2303087D01*
G01X3110172Y2314171D01*
G01X3105554Y2322484D01*
G01X3105554Y2325716D01*
G01X3108787Y2328026D01*
G01X3112481Y2330334D01*
G01X3116638Y2332182D01*
G01X3125874Y2335876D01*
G01X3131878Y2337724D01*
G01X3136496Y2339109D01*
G01X3145732Y2340956D01*
G01X3152198Y2341880D01*
G01X3165129Y2342342D01*
G01X3180830Y2341880D01*
G01X3186372Y2340956D01*
G01X3191452Y2340033D01*
G01X3196994Y2338647D01*
G01X3200689Y2337262D01*
G01X3203921Y2335876D01*
G01X3212234Y2331720D01*
G01X3215467Y2329411D01*
G01X3218238Y2327564D01*
G01X3221009Y2325254D01*
G01X3223318Y2322946D01*
G01X3226089Y2319713D01*
G01X3228859Y2315556D01*
G01X3231169Y2311400D01*
G01X3233016Y2306320D01*
G01X3234401Y2302164D01*
G01X3234863Y2293851D01*
G01X3234401Y2285538D01*
G01X3233478Y2280920D01*
G01X3232092Y2276302D01*
G01X3230245Y2272607D01*
G01X3227936Y2268451D01*
G01X3225627Y2264756D01*
G01X3223318Y2261986D01*
G01X3218699Y2257367D01*
G01X3216390Y2255520D01*
G01X3213158Y2253211D01*
G01X3209463Y2250902D01*
G01X3202074Y2247207D01*
G01X3198379Y2245822D01*
G01X3195609Y2243974D01*
G01X3195955Y2242820D01*
G01X3197918Y2242127D01*
G01X3203459Y2240742D01*
G01X3208078Y2238894D01*
G01X3212234Y2237047D01*
G01X3216852Y2234738D01*
G01X3221470Y2231967D01*
G01X3224703Y2229196D01*
G01X3227012Y2227349D01*
G01X3228859Y2225502D01*
G01X3230707Y2223193D01*
G01X3233016Y2220884D01*
G01X3234863Y2218574D01*
G01X3236710Y2215342D01*
G01X3238558Y2211647D01*
G01X3240405Y2207491D01*
G01X3241790Y2203334D01*
G01X3242714Y2196869D01*
G01X3243176Y2193174D01*
G01X3242714Y2189480D01*
G01X3242252Y2186247D01*
G01X3241790Y2182091D01*
G01X3239943Y2174702D01*
G01X3238558Y2171007D01*
G01X3234863Y2163618D01*
G01X3233016Y2160847D01*
G01X3225627Y2151611D01*
G01X3221009Y2147916D01*
G01X3217776Y2145146D01*
G01X3213619Y2142374D01*
G01X3209463Y2140066D01*
G01X3205769Y2138218D01*
G01X3202536Y2136833D01*
G01X3198841Y2135447D01*
G01X3189605Y2132676D01*
G01X3183601Y2131291D01*
G01X3178059Y2130367D01*
G01X3166976Y2129444D01*
G01X3160049Y2128982D01*
G37*
G36*
G01X3819525Y2133600D02*
G01X3819525Y2142374D01*
G01X3819871Y2149186D01*
G01X3820910Y2152073D01*
G01X3823219Y2154382D01*
G01X3826914Y2159000D01*
G01X3829223Y2161309D01*
G01X3832918Y2165927D01*
G01X3837536Y2170546D01*
G01X3843078Y2177011D01*
G01X3846310Y2180244D01*
G01X3849081Y2183938D01*
G01X3853699Y2188556D01*
G01X3857394Y2193174D01*
G01X3862012Y2197793D01*
G01X3865707Y2202411D01*
G01X3868016Y2204720D01*
G01X3873558Y2211186D01*
G01X3876790Y2214418D01*
G01X3879561Y2218113D01*
G01X3885103Y2223654D01*
G01X3887874Y2227349D01*
G01X3892492Y2231967D01*
G01X3896187Y2236586D01*
G01X3900805Y2241204D01*
G01X3904499Y2245822D01*
G01X3906809Y2248131D01*
G01X3912350Y2255058D01*
G01X3901267Y2256097D01*
G01X3867092Y2256444D01*
G01X3821372Y2256444D01*
G01X3821372Y2286924D01*
G01X3958070Y2286924D01*
G01X3958070Y2279073D01*
G01X3957147Y2269374D01*
G01X3955299Y2266604D01*
G01X3953452Y2264294D01*
G01X3951143Y2261986D01*
G01X3945601Y2255520D01*
G01X3942369Y2252287D01*
G01X3939598Y2248593D01*
G01X3934979Y2243974D01*
G01X3931285Y2239356D01*
G01X3928976Y2237047D01*
G01X3923434Y2230582D01*
G01X3920201Y2227349D01*
G01X3917430Y2223654D01*
G01X3912812Y2219036D01*
G01X3909118Y2214418D01*
G01X3906809Y2212109D01*
G01X3901267Y2205644D01*
G01X3898034Y2202411D01*
G01X3895263Y2198716D01*
G01X3889721Y2193174D01*
G01X3886950Y2189480D01*
G01X3882332Y2184862D01*
G01X3878638Y2180244D01*
G01X3876329Y2177934D01*
G01X3872634Y2173316D01*
G01X3868016Y2168698D01*
G01X3866169Y2165927D01*
G01X3865707Y2164080D01*
G01X3910041Y2164080D01*
G01X3956685Y2163618D01*
G01X3958994Y2163156D01*
G01X3958994Y2133600D01*
G01X3819525Y2133600D01*
G37*
G36*
G01X3323532Y2129906D02*
G01X3308754Y2130367D01*
G01X3304598Y2131291D01*
G01X3293514Y2133138D01*
G01X3287049Y2134524D01*
G01X3281045Y2136371D01*
G01X3275965Y2138218D01*
G01X3268576Y2141913D01*
G01X3266267Y2143298D01*
G01X3267190Y2146069D01*
G01X3269038Y2149764D01*
G01X3272732Y2158076D01*
G01X3276427Y2165466D01*
G01X3277812Y2168698D01*
G01X3278736Y2169853D01*
G01X3280583Y2169622D01*
G01X3284278Y2167774D01*
G01X3288434Y2165927D01*
G01X3298132Y2162694D01*
G01X3307369Y2160847D01*
G01X3323070Y2159924D01*
G01X3325379Y2159924D01*
G01X3330921Y2160386D01*
G01X3336925Y2160847D01*
G01X3343390Y2161771D01*
G01X3347085Y2162694D01*
G01X3351241Y2164080D01*
G01X3355398Y2165927D01*
G01X3359092Y2167774D01*
G01X3362325Y2169622D01*
G01X3365096Y2171931D01*
G01X3369714Y2176549D01*
G01X3371561Y2178858D01*
G01X3373409Y2182091D01*
G01X3375256Y2185786D01*
G01X3376641Y2189942D01*
G01X3377565Y2194098D01*
G01X3378027Y2198716D01*
G01X3377565Y2205182D01*
G01X3376641Y2210724D01*
G01X3375256Y2215342D01*
G01X3372947Y2219960D01*
G01X3370176Y2223193D01*
G01X3365558Y2227811D01*
G01X3362787Y2229658D01*
G01X3359554Y2231506D01*
G01X3355398Y2233353D01*
G01X3351703Y2234738D01*
G01X3343390Y2236586D01*
G01X3335078Y2237509D01*
G01X3327689Y2237971D01*
G01X3320299Y2237509D01*
G01X3308292Y2236586D01*
G01X3300903Y2235662D01*
G01X3295361Y2234738D01*
G01X3287972Y2233353D01*
G01X3283354Y2231967D01*
G01X3279198Y2231044D01*
G01X3276427Y2230582D01*
G01X3276427Y2232891D01*
G01X3276889Y2236586D01*
G01X3278736Y2249516D01*
G01X3279659Y2256906D01*
G01X3280583Y2263371D01*
G01X3281507Y2270760D01*
G01X3282430Y2277226D01*
G01X3285201Y2299393D01*
G01X3287972Y2318789D01*
G01X3290281Y2337262D01*
G01X3290281Y2339571D01*
G01X3341081Y2339571D01*
G01X3394190Y2339109D01*
G01X3396499Y2338647D01*
G01X3396499Y2309091D01*
G01X3357245Y2309091D01*
G01X3327573Y2308744D01*
G01X3317067Y2307706D01*
G01X3316143Y2304473D01*
G01X3315681Y2301240D01*
G01X3314758Y2293851D01*
G01X3311525Y2271222D01*
G01X3311987Y2267066D01*
G01X3313257Y2265334D01*
G01X3316143Y2264756D01*
G01X3321223Y2265218D01*
G01X3324918Y2265680D01*
G01X3328612Y2265218D01*
G01X3334616Y2264756D01*
G01X3341543Y2264294D01*
G01X3347085Y2263371D01*
G01X3351703Y2262447D01*
G01X3354936Y2261986D01*
G01X3358630Y2261062D01*
G01X3363249Y2259676D01*
G01X3367405Y2258291D01*
G01X3371561Y2256444D01*
G01X3376641Y2254134D01*
G01X3381259Y2251364D01*
G01X3385878Y2248131D01*
G01X3389572Y2245360D01*
G01X3394190Y2240742D01*
G01X3396961Y2237509D01*
G01X3399732Y2233353D01*
G01X3402041Y2229196D01*
G01X3403889Y2225040D01*
G01X3405736Y2219960D01*
G01X3407121Y2215342D01*
G01X3408045Y2208876D01*
G01X3408507Y2202873D01*
G01X3408045Y2195022D01*
G01X3407121Y2189480D01*
G01X3406198Y2185786D01*
G01X3405274Y2181629D01*
G01X3403889Y2177473D01*
G01X3400194Y2170084D01*
G01X3398347Y2166851D01*
G01X3394652Y2161309D01*
G01X3392343Y2158538D01*
G01X3390496Y2156229D01*
G01X3387725Y2153458D01*
G01X3384492Y2150687D01*
G01X3382183Y2148378D01*
G01X3379874Y2146531D01*
G01X3376641Y2144222D01*
G01X3372023Y2141451D01*
G01X3368329Y2139142D01*
G01X3361863Y2136371D01*
G01X3358169Y2134986D01*
G01X3354012Y2133600D01*
G01X3349394Y2132214D01*
G01X3345238Y2131291D01*
G01X3338772Y2130367D01*
G01X3323532Y2129906D01*
G37*
G36*
G01X3509645Y2129906D02*
G01X3498099Y2130367D01*
G01X3494867Y2131291D01*
G01X3487478Y2133138D01*
G01X3483321Y2134524D01*
G01X3479627Y2135909D01*
G01X3476856Y2137294D01*
G01X3473623Y2139142D01*
G01X3469467Y2141451D01*
G01X3466234Y2143298D01*
G01X3459307Y2148840D01*
G01X3453765Y2154382D01*
G01X3450070Y2159000D01*
G01X3446838Y2163618D01*
G01X3444067Y2167774D01*
G01X3441758Y2171931D01*
G01X3438063Y2179320D01*
G01X3436216Y2184400D01*
G01X3434369Y2189942D01*
G01X3432521Y2195946D01*
G01X3431136Y2200564D01*
G01X3429289Y2211647D01*
G01X3428365Y2220884D01*
G01X3427903Y2234738D01*
G01X3427996Y2237509D01*
G01X3458383Y2237509D01*
G01X3458845Y2228273D01*
G01X3459307Y2224578D01*
G01X3459769Y2219960D01*
G01X3460692Y2213494D01*
G01X3462078Y2206106D01*
G01X3463463Y2201487D01*
G01X3464387Y2197793D01*
G01X3465772Y2194098D01*
G01X3467158Y2190866D01*
G01X3469005Y2186709D01*
G01X3471314Y2183014D01*
G01X3472699Y2180244D01*
G01X3474547Y2177934D01*
G01X3480089Y2171469D01*
G01X3484707Y2167774D01*
G01X3487478Y2165927D01*
G01X3491172Y2164080D01*
G01X3495329Y2162233D01*
G01X3499485Y2161309D01*
G01X3499485Y2161309D01*
G01X3502256Y2160847D01*
G01X3507798Y2160386D01*
G01X3517034Y2160847D01*
G01X3524423Y2162233D01*
G01X3529503Y2164080D01*
G01X3533659Y2166389D01*
G01X3536892Y2168698D01*
G01X3539201Y2170546D01*
G01X3546129Y2177473D01*
G01X3547976Y2179782D01*
G01X3549823Y2182553D01*
G01X3551670Y2185786D01*
G01X3555365Y2193174D01*
G01X3556750Y2196869D01*
G01X3558136Y2201026D01*
G01X3559521Y2205644D01*
G01X3560445Y2209800D01*
G01X3561369Y2216266D01*
G01X3562292Y2224578D01*
G01X3562754Y2234738D01*
G01X3562292Y2244898D01*
G01X3561369Y2253211D01*
G01X3560445Y2259676D01*
G01X3559521Y2264756D01*
G01X3558136Y2270298D01*
G01X3556750Y2274454D01*
G01X3555365Y2278149D01*
G01X3553979Y2281382D01*
G01X3552132Y2285538D01*
G01X3549823Y2289233D01*
G01X3548438Y2292004D01*
G01X3546590Y2294313D01*
G01X3543819Y2297546D01*
G01X3540125Y2301702D01*
G01X3535507Y2305396D01*
G01X3530889Y2308167D01*
G01X3527194Y2310014D01*
G01X3522576Y2311400D01*
G01X3517958Y2312324D01*
G01X3511954Y2312786D01*
G01X3505027Y2312324D01*
G01X3499485Y2311400D01*
G01X3494405Y2310014D01*
G01X3490249Y2308167D01*
G01X3486092Y2305858D01*
G01X3482859Y2303549D01*
G01X3475009Y2295698D01*
G01X3471776Y2291080D01*
G01X3469467Y2287386D01*
G01X3467619Y2283691D01*
G01X3465772Y2279534D01*
G01X3463001Y2271222D01*
G01X3461616Y2266604D01*
G01X3460692Y2262447D01*
G01X3459769Y2255982D01*
G01X3458845Y2246746D01*
G01X3458383Y2237509D01*
G01X3427996Y2237509D01*
G01X3428365Y2248593D01*
G01X3428827Y2252749D01*
G01X3429289Y2257829D01*
G01X3431136Y2268913D01*
G01X3432059Y2272607D01*
G01X3432983Y2276764D01*
G01X3434369Y2281382D01*
G01X3437139Y2289694D01*
G01X3440834Y2298007D01*
G01X3442681Y2301702D01*
G01X3444529Y2304934D01*
G01X3446838Y2308629D01*
G01X3449147Y2311862D01*
G01X3450532Y2314171D01*
G01X3452379Y2316480D01*
G01X3461616Y2325716D01*
G01X3463925Y2327564D01*
G01X3467158Y2329873D01*
G01X3471314Y2332644D01*
G01X3475470Y2334953D01*
G01X3479165Y2336800D01*
G01X3482859Y2338186D01*
G01X3487016Y2339571D01*
G01X3491634Y2340956D01*
G01X3495790Y2341880D01*
G01X3504103Y2342804D01*
G01X3508721Y2343266D01*
G01X3513339Y2342804D01*
G01X3521652Y2341880D01*
G01X3524885Y2341418D01*
G01X3529503Y2340494D01*
G01X3537816Y2337724D01*
G01X3541972Y2335876D01*
G01X3550285Y2331720D01*
G01X3553518Y2329411D01*
G01X3556289Y2327564D01*
G01X3559059Y2325254D01*
G01X3561369Y2322946D01*
G01X3564139Y2320636D01*
G01X3566449Y2317866D01*
G01X3568758Y2315556D01*
G01X3571529Y2312324D01*
G01X3574299Y2308167D01*
G01X3576609Y2304473D01*
G01X3578456Y2301240D01*
G01X3583074Y2292004D01*
G01X3584921Y2286924D01*
G01X3588154Y2277226D01*
G01X3590001Y2269836D01*
G01X3591849Y2258753D01*
G01X3592772Y2248593D01*
G01X3593234Y2237971D01*
G01X3592772Y2227349D01*
G01X3591849Y2217189D01*
G01X3590925Y2210724D01*
G01X3588154Y2196869D01*
G01X3586769Y2191789D01*
G01X3583998Y2184400D01*
G01X3582150Y2180244D01*
G01X3580303Y2175626D01*
G01X3577994Y2171007D01*
G01X3575223Y2166389D01*
G01X3572914Y2163156D01*
G01X3571529Y2160847D01*
G01X3569681Y2158538D01*
G01X3564139Y2152073D01*
G01X3561830Y2149764D01*
G01X3557212Y2146069D01*
G01X3553979Y2143298D01*
G01X3550747Y2140989D01*
G01X3547514Y2139142D01*
G01X3540125Y2135447D01*
G01X3535045Y2133600D01*
G01X3530889Y2132214D01*
G01X3521652Y2130367D01*
G01X3509645Y2129906D01*
G37*
G36*
G01X3619096Y2133600D02*
G01X3619096Y2346960D01*
G01X3649576Y2346960D01*
G01X3649576Y2259214D01*
G01X3763183Y2259214D01*
G01X3763183Y2300778D01*
G01X3763645Y2344651D01*
G01X3764107Y2346960D01*
G01X3793663Y2346960D01*
G01X3793663Y2133600D01*
G01X3763183Y2133600D01*
G01X3763183Y2228734D01*
G01X3649576Y2228734D01*
G01X3649576Y2133600D01*
G01X3619096Y2133600D01*
G37*
G36*
G01X3176616Y150553D02*
G01X3174769Y151014D01*
G01X3171536Y152862D01*
G01X3093951Y191654D01*
G01X3087485Y194426D01*
G01X3032067Y222134D01*
G01X3029758Y223058D01*
G01X3029758Y233680D01*
G01X3030220Y241877D01*
G01X3031605Y245226D01*
G01X3034838Y247073D01*
G01X3045922Y252614D01*
G01X3050540Y254462D01*
G01X3172460Y315422D01*
G01X3175693Y316807D01*
G01X3177540Y317269D01*
G01X3177540Y305724D01*
G01X3176616Y292793D01*
G01X3173384Y290484D01*
G01X3169689Y288636D01*
G01X3161376Y284942D01*
G01X3146598Y277553D01*
G01X3138285Y273858D01*
G01X3123507Y266469D01*
G01X3115194Y262774D01*
G01X3100416Y255386D01*
G01X3092104Y251691D01*
G01X3077325Y244302D01*
G01X3069013Y240607D01*
G01X3061624Y236913D01*
G01X3058391Y235527D01*
G01X3057121Y234834D01*
G01X3057005Y233680D01*
G01X3058853Y231371D01*
G01X3066242Y227676D01*
G01X3074554Y223982D01*
G01X3089333Y216593D01*
G01X3097645Y212898D01*
G01X3112424Y205509D01*
G01X3120736Y201814D01*
G01X3135514Y194426D01*
G01X3143827Y190731D01*
G01X3158605Y183342D01*
G01X3165071Y180571D01*
G01X3172460Y176876D01*
G01X3175693Y175491D01*
G01X3177078Y172143D01*
G01X3177540Y163022D01*
G01X3176616Y150553D01*
G37*
G36*
G01X3887816Y127000D02*
G01X3887816Y134389D01*
G01X3888278Y143164D01*
G01X3890587Y146858D01*
G01X3893358Y150553D01*
G01X3897976Y155171D01*
G01X3901671Y159789D01*
G01X3903980Y162098D01*
G01X3907674Y166716D01*
G01X3912293Y171334D01*
G01X3917834Y177800D01*
G01X3921067Y181033D01*
G01X3923838Y184727D01*
G01X3928456Y189346D01*
G01X3932151Y193964D01*
G01X3936769Y198582D01*
G01X3940464Y203200D01*
G01X3942773Y205509D01*
G01X3948314Y211974D01*
G01X3951547Y215207D01*
G01X3954318Y218902D01*
G01X3959860Y224444D01*
G01X3962631Y228138D01*
G01X3967249Y232756D01*
G01X3970944Y237374D01*
G01X3973253Y239684D01*
G01X3978794Y246149D01*
G01X3980642Y248458D01*
G01X3969558Y249497D01*
G01X3935384Y249844D01*
G01X3889664Y249844D01*
G01X3889664Y280324D01*
G01X4026362Y280324D01*
G01X4026362Y272011D01*
G01X4025900Y265199D01*
G01X4024514Y261389D01*
G01X4021744Y257694D01*
G01X4017125Y253076D01*
G01X4013431Y248458D01*
G01X4011122Y246149D01*
G01X4005580Y239684D01*
G01X4002347Y236451D01*
G01X3999576Y232756D01*
G01X3994958Y228138D01*
G01X3991264Y223520D01*
G01X3986645Y218902D01*
G01X3982951Y214284D01*
G01X3980642Y211974D01*
G01X3975100Y205509D01*
G01X3971867Y202276D01*
G01X3969096Y198582D01*
G01X3964478Y193964D01*
G01X3960784Y189346D01*
G01X3958474Y187036D01*
G01X3952933Y180571D01*
G01X3949700Y177338D01*
G01X3946929Y173644D01*
G01X3942311Y169026D01*
G01X3938616Y164407D01*
G01X3936307Y162098D01*
G01X3934460Y159327D01*
G01X3933998Y157480D01*
G01X4026362Y157480D01*
G01X4026362Y127000D01*
G01X3887816Y127000D01*
G37*
G36*
G01X3249584Y127000D02*
G01X3249584Y214746D01*
G01X3249237Y280439D01*
G01X3248198Y302029D01*
G01X3245427Y300644D01*
G01X3238962Y296949D01*
G01X3227878Y291407D01*
G01X3219565Y286789D01*
G01X3215871Y284942D01*
G01X3212638Y283556D01*
G01X3211137Y283556D01*
G01X3210329Y284480D01*
G01X3209405Y287251D01*
G01X3208482Y291869D01*
G01X3207096Y298334D01*
G01X3205711Y302953D01*
G01X3205249Y306186D01*
G01X3205711Y308494D01*
G01X3207558Y309880D01*
G01X3248198Y330200D01*
G01X3252354Y332047D01*
G01X3267133Y332971D01*
G01X3280064Y332971D01*
G01X3280064Y127000D01*
G01X3249584Y127000D01*
G37*
G36*
G01X3393209Y123306D02*
G01X3381664Y123767D01*
G01X3378431Y124691D01*
G01X3374736Y125614D01*
G01X3370580Y126538D01*
G01X3366424Y127924D01*
G01X3362267Y129771D01*
G01X3358573Y131618D01*
G01X3352107Y135313D01*
G01X3345642Y139931D01*
G01X3343333Y141778D01*
G01X3336405Y148706D01*
G01X3330864Y156094D01*
G01X3329016Y158404D01*
G01X3325322Y164869D01*
G01X3323474Y168564D01*
G01X3321627Y172720D01*
G01X3320242Y175953D01*
G01X3318856Y179647D01*
G01X3317471Y183804D01*
G01X3316085Y189346D01*
G01X3314700Y193964D01*
G01X3312853Y204124D01*
G01X3311929Y212436D01*
G01X3311467Y226753D01*
G01X3311580Y230909D01*
G01X3341947Y230909D01*
G01X3342409Y218902D01*
G01X3344256Y205971D01*
G01X3345180Y201353D01*
G01X3346565Y195349D01*
G01X3348413Y189807D01*
G01X3350260Y185189D01*
G01X3352107Y181033D01*
G01X3354416Y176876D01*
G01X3357187Y172720D01*
G01X3359496Y169487D01*
G01X3361344Y167178D01*
G01X3364576Y163946D01*
G01X3368271Y161174D01*
G01X3371504Y158866D01*
G01X3375198Y157018D01*
G01X3378893Y155633D01*
G01X3383049Y154709D01*
G01X3383049Y154709D01*
G01X3385820Y154247D01*
G01X3392747Y153786D01*
G01X3400598Y154247D01*
G01X3405216Y155171D01*
G01X3410296Y156556D01*
G01X3414453Y158404D01*
G01X3418609Y160713D01*
G01X3421842Y163022D01*
G01X3429693Y170873D01*
G01X3432925Y175491D01*
G01X3435234Y179186D01*
G01X3437082Y182880D01*
G01X3438929Y187036D01*
G01X3440776Y191654D01*
G01X3442162Y195811D01*
G01X3444009Y204124D01*
G01X3444933Y210589D01*
G01X3445856Y220749D01*
G01X3446318Y228138D01*
G01X3445856Y235527D01*
G01X3445394Y239684D01*
G01X3444933Y245687D01*
G01X3444009Y252153D01*
G01X3442162Y261389D01*
G01X3440776Y266469D01*
G01X3438929Y271087D01*
G01X3437082Y275244D01*
G01X3435234Y278938D01*
G01X3432925Y283094D01*
G01X3430616Y286789D01*
G01X3428307Y289560D01*
G01X3424613Y294178D01*
G01X3417685Y299720D01*
G01X3414453Y301567D01*
G01X3410296Y303414D01*
G01X3405678Y304800D01*
G01X3401522Y305724D01*
G01X3395056Y306186D01*
G01X3388591Y305724D01*
G01X3385358Y305262D01*
G01X3380740Y304338D01*
G01X3375660Y302491D01*
G01X3369194Y299258D01*
G01X3366885Y297411D01*
G01X3359958Y290484D01*
G01X3356264Y285866D01*
G01X3353954Y282633D01*
G01X3350260Y275244D01*
G01X3348413Y271087D01*
G01X3347027Y266931D01*
G01X3345642Y261389D01*
G01X3344256Y256771D01*
G01X3343333Y250306D01*
G01X3342409Y242916D01*
G01X3341947Y230909D01*
G01X3311580Y230909D01*
G01X3311929Y243840D01*
G01X3312853Y252153D01*
G01X3313776Y257694D01*
G01X3314700Y262313D01*
G01X3316085Y268778D01*
G01X3317471Y273396D01*
G01X3318394Y277091D01*
G01X3319780Y281247D01*
G01X3321627Y285404D01*
G01X3323474Y290022D01*
G01X3325322Y293716D01*
G01X3329016Y300182D01*
G01X3330864Y302953D01*
G01X3335482Y309418D01*
G01X3344718Y318654D01*
G01X3347951Y321426D01*
G01X3352107Y324196D01*
G01X3355802Y326506D01*
G01X3359034Y328353D01*
G01X3362729Y330200D01*
G01X3367347Y332047D01*
G01X3371042Y333433D01*
G01X3379354Y335280D01*
G01X3386744Y336204D01*
G01X3391824Y336666D01*
G01X3396904Y336204D01*
G01X3405216Y335280D01*
G01X3410296Y334356D01*
G01X3415838Y332971D01*
G01X3419994Y331586D01*
G01X3423689Y330200D01*
G01X3432002Y326044D01*
G01X3440314Y320502D01*
G01X3443547Y317731D01*
G01X3452784Y308494D01*
G01X3455554Y304800D01*
G01X3460173Y297873D01*
G01X3462020Y294640D01*
G01X3465714Y287251D01*
G01X3467562Y282633D01*
G01X3469409Y277553D01*
G01X3471256Y271549D01*
G01X3472642Y266931D01*
G01X3474489Y257694D01*
G01X3475413Y250306D01*
G01X3476336Y238298D01*
G01X3476798Y231371D01*
G01X3476336Y224444D01*
G01X3475874Y218440D01*
G01X3475413Y211513D01*
G01X3474489Y205047D01*
G01X3473565Y199506D01*
G01X3472642Y195349D01*
G01X3471256Y189346D01*
G01X3469409Y183342D01*
G01X3467562Y177800D01*
G01X3465714Y173644D01*
G01X3464329Y170411D01*
G01X3462482Y166716D01*
G01X3460173Y162560D01*
G01X3458325Y159327D01*
G01X3453707Y152862D01*
G01X3450936Y149629D01*
G01X3448165Y145934D01*
G01X3444933Y142702D01*
G01X3440314Y139007D01*
G01X3436620Y136236D01*
G01X3434311Y134389D01*
G01X3431078Y132542D01*
G01X3423689Y128847D01*
G01X3418609Y127000D01*
G01X3414453Y125614D01*
G01X3405216Y123767D01*
G01X3393209Y123306D01*
G37*
G36*
G01X3577936Y123306D02*
G01X3566391Y123767D01*
G01X3563158Y124691D01*
G01X3559464Y125614D01*
G01X3555307Y126538D01*
G01X3551151Y127924D01*
G01X3546994Y129771D01*
G01X3543300Y131618D01*
G01X3536834Y135313D01*
G01X3530369Y139931D01*
G01X3528060Y141778D01*
G01X3521133Y148706D01*
G01X3517438Y153324D01*
G01X3515129Y156556D01*
G01X3512820Y160251D01*
G01X3509125Y166716D01*
G01X3507278Y170873D01*
G01X3505431Y174567D01*
G01X3504045Y178262D01*
G01X3502660Y182418D01*
G01X3499889Y192578D01*
G01X3498504Y198582D01*
G01X3497580Y204124D01*
G01X3496656Y212436D01*
G01X3496194Y226753D01*
G01X3496332Y231833D01*
G01X3526674Y231833D01*
G01X3527136Y218902D01*
G01X3528984Y205971D01*
G01X3529907Y201353D01*
G01X3530831Y197196D01*
G01X3532216Y192578D01*
G01X3533602Y188422D01*
G01X3534987Y184727D01*
G01X3536834Y181033D01*
G01X3539144Y176876D01*
G01X3541914Y172720D01*
G01X3544224Y169487D01*
G01X3546071Y167178D01*
G01X3549304Y163946D01*
G01X3552998Y161174D01*
G01X3556231Y158866D01*
G01X3559925Y157018D01*
G01X3563620Y155633D01*
G01X3567776Y154709D01*
G01X3567776Y154709D01*
G01X3570547Y154247D01*
G01X3577474Y153786D01*
G01X3585325Y154247D01*
G01X3589944Y155171D01*
G01X3595024Y156556D01*
G01X3599180Y158404D01*
G01X3603336Y160713D01*
G01X3606569Y163022D01*
G01X3614420Y170873D01*
G01X3617653Y175491D01*
G01X3619962Y179186D01*
G01X3621809Y182880D01*
G01X3623656Y187036D01*
G01X3625504Y191654D01*
G01X3626889Y195811D01*
G01X3628736Y204124D01*
G01X3629660Y210589D01*
G01X3630584Y220749D01*
G01X3631045Y228138D01*
G01X3630584Y235527D01*
G01X3630122Y238760D01*
G01X3629660Y244764D01*
G01X3628736Y252153D01*
G01X3626889Y261389D01*
G01X3625504Y266469D01*
G01X3623656Y271087D01*
G01X3621809Y275244D01*
G01X3619962Y278938D01*
G01X3617653Y283094D01*
G01X3615344Y286789D01*
G01X3613034Y289560D01*
G01X3609340Y294178D01*
G01X3602413Y299720D01*
G01X3599180Y301567D01*
G01X3595024Y303414D01*
G01X3590405Y304800D01*
G01X3586249Y305724D01*
G01X3579784Y306186D01*
G01X3573318Y305724D01*
G01X3570085Y305262D01*
G01X3565467Y304338D01*
G01X3560387Y302491D01*
G01X3555769Y300182D01*
G01X3552536Y297873D01*
G01X3550227Y296026D01*
G01X3543300Y289098D01*
G01X3540529Y285404D01*
G01X3537758Y280786D01*
G01X3534064Y273396D01*
G01X3532216Y268316D01*
G01X3530831Y264160D01*
G01X3528984Y256771D01*
G01X3528060Y250306D01*
G01X3527136Y242916D01*
G01X3526674Y231833D01*
G01X3496332Y231833D01*
G01X3496656Y243840D01*
G01X3497580Y252153D01*
G01X3498504Y257694D01*
G01X3499427Y262313D01*
G01X3500813Y268778D01*
G01X3502198Y273396D01*
G01X3503122Y277091D01*
G01X3504507Y281247D01*
G01X3506354Y285404D01*
G01X3508202Y290022D01*
G01X3510049Y293716D01*
G01X3513744Y300182D01*
G01X3515591Y302953D01*
G01X3520209Y309418D01*
G01X3529445Y318654D01*
G01X3532678Y321426D01*
G01X3536834Y324196D01*
G01X3540529Y326506D01*
G01X3543762Y328353D01*
G01X3547456Y330200D01*
G01X3552074Y332047D01*
G01X3555769Y333433D01*
G01X3564082Y335280D01*
G01X3571471Y336204D01*
G01X3576551Y336666D01*
G01X3581631Y336204D01*
G01X3589944Y335280D01*
G01X3595024Y334356D01*
G01X3600565Y332971D01*
G01X3604722Y331586D01*
G01X3608416Y330200D01*
G01X3616729Y326044D01*
G01X3625042Y320502D01*
G01X3628274Y317731D01*
G01X3637511Y308494D01*
G01X3640282Y304800D01*
G01X3643053Y300644D01*
G01X3645362Y296949D01*
G01X3647671Y292793D01*
G01X3649518Y289098D01*
G01X3650904Y285866D01*
G01X3652289Y282171D01*
G01X3654136Y277553D01*
G01X3655984Y271549D01*
G01X3657369Y266931D01*
G01X3659216Y257694D01*
G01X3660140Y250306D01*
G01X3661064Y237374D01*
G01X3661525Y231371D01*
G01X3661064Y225367D01*
G01X3660602Y219826D01*
G01X3660140Y212436D01*
G01X3659216Y205047D01*
G01X3658293Y199506D01*
G01X3657369Y195349D01*
G01X3655984Y189346D01*
G01X3654136Y183342D01*
G01X3652289Y177800D01*
G01X3650442Y173644D01*
G01X3649056Y170411D01*
G01X3647209Y166716D01*
G01X3644900Y162560D01*
G01X3642129Y157942D01*
G01X3639820Y154247D01*
G01X3637973Y151938D01*
G01X3635664Y149629D01*
G01X3631969Y145011D01*
G01X3629660Y142702D01*
G01X3622733Y137160D01*
G01X3619500Y134851D01*
G01X3615805Y132542D01*
G01X3612111Y130694D01*
G01X3607954Y128847D01*
G01X3603336Y127000D01*
G01X3599180Y125614D01*
G01X3589944Y123767D01*
G01X3577936Y123306D01*
G37*
G36*
G01X3687387Y127000D02*
G01X3687387Y340360D01*
G01X3717867Y340360D01*
G01X3717867Y252614D01*
G01X3831474Y252614D01*
G01X3831474Y294178D01*
G01X3831936Y338051D01*
G01X3832398Y340360D01*
G01X3861954Y340360D01*
G01X3861954Y127000D01*
G01X3831474Y127000D01*
G01X3831474Y222134D01*
G01X3717867Y222134D01*
G01X3717867Y127000D01*
G01X3687387Y127000D01*
G37*
G36*
G01X3086273Y1143000D02*
G01X3086273Y1173480D01*
G01X3088582Y1174866D01*
G01X3095048Y1179484D01*
G01X3099666Y1182716D01*
G01X3110750Y1191029D01*
G01X3113059Y1192876D01*
G01X3115368Y1194262D01*
G01X3117677Y1196109D01*
G01X3134302Y1209964D01*
G01X3138921Y1213658D01*
G01X3143539Y1218276D01*
G01X3148157Y1221971D01*
G01X3160626Y1234440D01*
G01X3163859Y1237211D01*
G01X3165706Y1239520D01*
G01X3172633Y1246447D01*
G01X3176328Y1251066D01*
G01X3179561Y1254298D01*
G01X3183255Y1258916D01*
G01X3186026Y1262611D01*
G01X3188335Y1265844D01*
G01X3191106Y1270000D01*
G01X3193415Y1273694D01*
G01X3195262Y1277389D01*
G01X3197110Y1282469D01*
G01X3198495Y1286626D01*
G01X3198957Y1290320D01*
G01X3198495Y1294014D01*
G01X3198033Y1297247D01*
G01X3197110Y1300942D01*
G01X3195262Y1304636D01*
G01X3193415Y1307407D01*
G01X3191568Y1309716D01*
G01X3188335Y1312949D01*
G01X3184179Y1315720D01*
G01X3180946Y1317567D01*
G01X3176328Y1319414D01*
G01X3171710Y1320800D01*
G01X3168477Y1321262D01*
G01X3163397Y1321724D01*
G01X3158779Y1321724D01*
G01X3155546Y1321262D01*
G01X3149542Y1320800D01*
G01X3142615Y1319414D01*
G01X3137073Y1317567D01*
G01X3132455Y1315720D01*
G01X3128299Y1313873D01*
G01X3120910Y1310178D01*
G01X3116753Y1307869D01*
G01X3112597Y1305098D01*
G01X3107979Y1301866D01*
G01X3104284Y1299094D01*
G01X3101975Y1296786D01*
G01X3100936Y1295977D01*
G01X3099666Y1296324D01*
G01X3095048Y1300942D01*
G01X3090430Y1306484D01*
G01X3088121Y1308793D01*
G01X3084426Y1313411D01*
G01X3082117Y1315720D01*
G01X3081309Y1316874D01*
G01X3081655Y1318491D01*
G01X3084426Y1321262D01*
G01X3087197Y1323571D01*
G01X3090430Y1326804D01*
G01X3094124Y1329574D01*
G01X3097357Y1331884D01*
G01X3104746Y1336502D01*
G01X3108902Y1338811D01*
G01X3112597Y1340658D01*
G01X3116753Y1342506D01*
G01X3125990Y1346200D01*
G01X3135688Y1349433D01*
G01X3145848Y1351280D01*
G01X3157855Y1351742D01*
G01X3169862Y1351280D01*
G01X3175404Y1350356D01*
G01X3181408Y1348971D01*
G01X3185564Y1347586D01*
G01X3189259Y1346200D01*
G01X3195724Y1343429D01*
G01X3198957Y1341582D01*
G01X3202651Y1339273D01*
G01X3205884Y1336964D01*
G01X3210502Y1333269D01*
G01X3217430Y1326342D01*
G01X3219277Y1324033D01*
G01X3221586Y1320800D01*
G01X3223895Y1317106D01*
G01X3225742Y1312949D01*
G01X3227590Y1306946D01*
G01X3228975Y1302327D01*
G01X3229437Y1295862D01*
G01X3228975Y1287549D01*
G01X3227590Y1281084D01*
G01X3225742Y1275080D01*
G01X3223895Y1270000D01*
G01X3217891Y1257993D01*
G01X3212350Y1249680D01*
G01X3210041Y1246447D01*
G01X3206346Y1241829D01*
G01X3204037Y1238596D01*
G01X3195724Y1228898D01*
G01X3176328Y1209502D01*
G01X3172633Y1206731D01*
G01X3170324Y1204422D01*
G01X3164782Y1199804D01*
G01X3162473Y1197494D01*
G01X3160164Y1195647D01*
G01X3157855Y1194262D01*
G01X3150928Y1188720D01*
G01X3147695Y1185949D01*
G01X3134764Y1176713D01*
G01X3131993Y1174404D01*
G01X3144001Y1173711D01*
G01X3180946Y1173480D01*
G01X3232670Y1173018D01*
G01X3234979Y1172556D01*
G01X3234979Y1143000D01*
G01X3086273Y1143000D01*
G37*
G36*
G01X3835342Y1143000D02*
G01X3835342Y1151774D01*
G01X3835689Y1158586D01*
G01X3836728Y1161473D01*
G01X3839037Y1163782D01*
G01X3842731Y1168400D01*
G01X3845041Y1170709D01*
G01X3850582Y1177174D01*
G01X3853815Y1180407D01*
G01X3856586Y1184102D01*
G01X3862128Y1189644D01*
G01X3864899Y1193338D01*
G01X3869517Y1197956D01*
G01X3873211Y1202574D01*
G01X3875521Y1204884D01*
G01X3879215Y1209502D01*
G01X3883833Y1214120D01*
G01X3889375Y1220586D01*
G01X3892608Y1223818D01*
G01X3895379Y1227513D01*
G01X3899997Y1232131D01*
G01X3903691Y1236749D01*
G01X3908310Y1241367D01*
G01X3912004Y1245986D01*
G01X3914313Y1248294D01*
G01X3918008Y1252913D01*
G01X3922626Y1257531D01*
G01X3928168Y1264458D01*
G01X3917084Y1265497D01*
G01X3882910Y1265844D01*
G01X3837190Y1265844D01*
G01X3837190Y1296324D01*
G01X3973888Y1296324D01*
G01X3973888Y1288473D01*
G01X3972964Y1278774D01*
G01X3971117Y1276004D01*
G01X3969270Y1273694D01*
G01X3966961Y1271386D01*
G01X3961419Y1264920D01*
G01X3958186Y1261687D01*
G01X3955415Y1257993D01*
G01X3950797Y1253374D01*
G01X3947102Y1248756D01*
G01X3944793Y1246447D01*
G01X3939251Y1239982D01*
G01X3936019Y1236749D01*
G01X3933248Y1233054D01*
G01X3927706Y1227513D01*
G01X3924935Y1223818D01*
G01X3920317Y1219200D01*
G01X3916622Y1214582D01*
G01X3914313Y1212273D01*
G01X3908771Y1205807D01*
G01X3905539Y1202574D01*
G01X3902768Y1198880D01*
G01X3898150Y1194262D01*
G01X3894455Y1189644D01*
G01X3892146Y1187334D01*
G01X3888451Y1182716D01*
G01X3883833Y1178098D01*
G01X3881986Y1175327D01*
G01X3881524Y1173480D01*
G01X3925859Y1173480D01*
G01X3972502Y1173018D01*
G01X3974811Y1172556D01*
G01X3974811Y1143000D01*
G01X3835342Y1143000D01*
G37*
G36*
G01X3340735Y1139306D02*
G01X3329190Y1139767D01*
G01X3325957Y1140691D01*
G01X3318568Y1142538D01*
G01X3314411Y1143924D01*
G01X3310717Y1145309D01*
G01X3306561Y1147156D01*
G01X3299171Y1151774D01*
G01X3295939Y1154084D01*
G01X3293168Y1155931D01*
G01X3290397Y1158240D01*
G01X3284855Y1163782D01*
G01X3281161Y1168400D01*
G01X3278851Y1172094D01*
G01X3277004Y1174404D01*
G01X3274695Y1177636D01*
G01X3269153Y1188720D01*
G01X3267768Y1192414D01*
G01X3266382Y1196571D01*
G01X3264997Y1200266D01*
G01X3263611Y1205346D01*
G01X3262226Y1209964D01*
G01X3260379Y1221047D01*
G01X3259455Y1229360D01*
G01X3258993Y1244138D01*
G01X3259138Y1248756D01*
G01X3289473Y1248756D01*
G01X3289935Y1237673D01*
G01X3290859Y1229360D01*
G01X3291782Y1221971D01*
G01X3293168Y1215506D01*
G01X3294553Y1210887D01*
G01X3295477Y1207193D01*
G01X3296862Y1203498D01*
G01X3298248Y1200266D01*
G01X3300095Y1196109D01*
G01X3302404Y1192414D01*
G01X3303790Y1189644D01*
G01X3305637Y1187334D01*
G01X3311179Y1180869D01*
G01X3315797Y1177174D01*
G01X3318568Y1175327D01*
G01X3322262Y1173480D01*
G01X3326419Y1171633D01*
G01X3330575Y1170709D01*
G01X3330575Y1170709D01*
G01X3333346Y1170247D01*
G01X3338888Y1169786D01*
G01X3348124Y1170247D01*
G01X3355513Y1171633D01*
G01X3360593Y1173480D01*
G01X3364750Y1175789D01*
G01X3367982Y1178098D01*
G01X3370291Y1179946D01*
G01X3377219Y1186873D01*
G01X3379066Y1189182D01*
G01X3380913Y1191953D01*
G01X3382761Y1195186D01*
G01X3386455Y1202574D01*
G01X3387841Y1206269D01*
G01X3389226Y1210426D01*
G01X3390611Y1215044D01*
G01X3391535Y1219200D01*
G01X3392459Y1225666D01*
G01X3393382Y1233978D01*
G01X3393844Y1243676D01*
G01X3393382Y1253374D01*
G01X3392459Y1261687D01*
G01X3391997Y1264920D01*
G01X3391535Y1269076D01*
G01X3390611Y1272771D01*
G01X3390150Y1276004D01*
G01X3389226Y1279698D01*
G01X3387841Y1283854D01*
G01X3386455Y1287549D01*
G01X3385070Y1290782D01*
G01X3383222Y1294938D01*
G01X3380913Y1298633D01*
G01X3379528Y1301404D01*
G01X3377681Y1303713D01*
G01X3374910Y1306946D01*
G01X3371215Y1311102D01*
G01X3367521Y1313873D01*
G01X3365211Y1315720D01*
G01X3361979Y1317567D01*
G01X3358284Y1319414D01*
G01X3353666Y1320800D01*
G01X3349048Y1321724D01*
G01X3343044Y1322186D01*
G01X3336117Y1321724D01*
G01X3330575Y1320800D01*
G01X3325495Y1319414D01*
G01X3321339Y1317567D01*
G01X3317182Y1315258D01*
G01X3313950Y1312949D01*
G01X3306099Y1305098D01*
G01X3302866Y1300480D01*
G01X3300557Y1296786D01*
G01X3298710Y1293091D01*
G01X3296862Y1288934D01*
G01X3294091Y1280622D01*
G01X3292706Y1276004D01*
G01X3291782Y1271847D01*
G01X3290859Y1265382D01*
G01X3289935Y1257069D01*
G01X3289473Y1248756D01*
G01X3259138Y1248756D01*
G01X3259455Y1258916D01*
G01X3260379Y1267229D01*
G01X3262226Y1278313D01*
G01X3263150Y1282469D01*
G01X3264535Y1288473D01*
G01X3266382Y1293553D01*
G01X3267768Y1297709D01*
G01X3269153Y1301404D01*
G01X3271924Y1307869D01*
G01X3273771Y1311102D01*
G01X3276081Y1315258D01*
G01X3278851Y1319414D01*
G01X3281161Y1322647D01*
G01X3284855Y1327266D01*
G01X3292706Y1335116D01*
G01X3296401Y1337887D01*
G01X3299633Y1340196D01*
G01X3303328Y1342506D01*
G01X3306561Y1344353D01*
G01X3310255Y1346200D01*
G01X3314873Y1348047D01*
G01X3318568Y1349433D01*
G01X3326881Y1351280D01*
G01X3335193Y1352204D01*
G01X3339811Y1352666D01*
G01X3344430Y1352204D01*
G01X3352742Y1351280D01*
G01X3355975Y1350818D01*
G01X3360593Y1349894D01*
G01X3368906Y1347124D01*
G01X3373062Y1345276D01*
G01X3381375Y1341120D01*
G01X3387841Y1336502D01*
G01X3391073Y1333731D01*
G01X3393382Y1331884D01*
G01X3395230Y1330036D01*
G01X3397077Y1327727D01*
G01X3400310Y1324494D01*
G01X3403081Y1320800D01*
G01X3405390Y1317567D01*
G01X3407699Y1313873D01*
G01X3409546Y1310640D01*
G01X3413241Y1303251D01*
G01X3415088Y1299094D01*
G01X3416935Y1293553D01*
G01X3418782Y1287549D01*
G01X3420168Y1282931D01*
G01X3422015Y1273694D01*
G01X3422939Y1267229D01*
G01X3423862Y1257069D01*
G01X3424324Y1246909D01*
G01X3423862Y1236749D01*
G01X3423401Y1233054D01*
G01X3422939Y1226589D01*
G01X3422015Y1220124D01*
G01X3420168Y1210887D01*
G01X3419244Y1207193D01*
G01X3418321Y1203036D01*
G01X3416935Y1198880D01*
G01X3414164Y1191491D01*
G01X3410470Y1183178D01*
G01X3408622Y1179946D01*
G01X3406313Y1175789D01*
G01X3404004Y1172556D01*
G01X3402619Y1170247D01*
G01X3400771Y1167938D01*
G01X3395230Y1161473D01*
G01X3392921Y1159164D01*
G01X3388302Y1155469D01*
G01X3385070Y1152698D01*
G01X3381837Y1150389D01*
G01X3378604Y1148542D01*
G01X3371215Y1144847D01*
G01X3366135Y1143000D01*
G01X3361979Y1141614D01*
G01X3352742Y1139767D01*
G01X3340735Y1139306D01*
G37*
G36*
G01X3525462Y1139306D02*
G01X3513917Y1139767D01*
G01X3510684Y1140691D01*
G01X3503295Y1142538D01*
G01X3499139Y1143924D01*
G01X3495444Y1145309D01*
G01X3492211Y1146694D01*
G01X3485746Y1150389D01*
G01X3482975Y1152236D01*
G01X3480666Y1154084D01*
G01X3477895Y1155931D01*
G01X3475124Y1158240D01*
G01X3469582Y1163782D01*
G01X3465888Y1168400D01*
G01X3463117Y1172094D01*
G01X3460808Y1175327D01*
G01X3458499Y1179484D01*
G01X3454804Y1186873D01*
G01X3452957Y1191029D01*
G01X3451571Y1195186D01*
G01X3450186Y1198880D01*
G01X3448801Y1203036D01*
G01X3447415Y1209040D01*
G01X3446030Y1215506D01*
G01X3445106Y1220124D01*
G01X3444182Y1229360D01*
G01X3443721Y1244138D01*
G01X3443836Y1247833D01*
G01X3474201Y1247833D01*
G01X3474662Y1236749D01*
G01X3476510Y1221971D01*
G01X3477895Y1215506D01*
G01X3479281Y1210887D01*
G01X3480204Y1207193D01*
G01X3481590Y1203498D01*
G01X3482975Y1200266D01*
G01X3484822Y1196109D01*
G01X3487131Y1192414D01*
G01X3488517Y1189644D01*
G01X3490364Y1187334D01*
G01X3495906Y1180869D01*
G01X3500524Y1177174D01*
G01X3503295Y1175327D01*
G01X3506990Y1173480D01*
G01X3511146Y1171633D01*
G01X3515302Y1170709D01*
G01X3515302Y1170709D01*
G01X3518073Y1170247D01*
G01X3523615Y1169786D01*
G01X3532851Y1170247D01*
G01X3540241Y1171633D01*
G01X3545321Y1173480D01*
G01X3549477Y1175789D01*
G01X3552710Y1178098D01*
G01X3555019Y1179946D01*
G01X3561946Y1186873D01*
G01X3563793Y1189182D01*
G01X3565641Y1191953D01*
G01X3567488Y1195186D01*
G01X3571182Y1202574D01*
G01X3572568Y1206269D01*
G01X3573953Y1210426D01*
G01X3575339Y1215044D01*
G01X3576262Y1219200D01*
G01X3577186Y1226589D01*
G01X3578110Y1234902D01*
G01X3578571Y1244138D01*
G01X3578110Y1253374D01*
G01X3576724Y1265844D01*
G01X3575801Y1271847D01*
G01X3574415Y1276466D01*
G01X3573491Y1280622D01*
G01X3572106Y1285240D01*
G01X3568411Y1293553D01*
G01X3566564Y1297247D01*
G01X3564717Y1300018D01*
G01X3563331Y1302327D01*
G01X3561484Y1304636D01*
G01X3559175Y1307407D01*
G01X3555942Y1311102D01*
G01X3552248Y1313873D01*
G01X3549939Y1315720D01*
G01X3546706Y1317567D01*
G01X3543011Y1319414D01*
G01X3538393Y1320800D01*
G01X3533775Y1321724D01*
G01X3527771Y1322186D01*
G01X3520844Y1321724D01*
G01X3515302Y1320800D01*
G01X3510222Y1319414D01*
G01X3506066Y1317567D01*
G01X3501910Y1315258D01*
G01X3498677Y1312949D01*
G01X3490826Y1305098D01*
G01X3487593Y1300480D01*
G01X3485284Y1296786D01*
G01X3483437Y1293091D01*
G01X3481590Y1288934D01*
G01X3479742Y1284316D01*
G01X3478357Y1280160D01*
G01X3476510Y1271847D01*
G01X3475586Y1265382D01*
G01X3474662Y1257069D01*
G01X3474201Y1247833D01*
G01X3443836Y1247833D01*
G01X3444182Y1258916D01*
G01X3445106Y1267229D01*
G01X3446953Y1278313D01*
G01X3447877Y1282469D01*
G01X3449262Y1288473D01*
G01X3451110Y1293553D01*
G01X3452495Y1297709D01*
G01X3453881Y1301404D01*
G01X3456651Y1307869D01*
G01X3458499Y1311102D01*
G01X3460808Y1315258D01*
G01X3463579Y1319414D01*
G01X3465888Y1322647D01*
G01X3469582Y1327266D01*
G01X3477433Y1335116D01*
G01X3481128Y1337887D01*
G01X3484361Y1340196D01*
G01X3488055Y1342506D01*
G01X3491288Y1344353D01*
G01X3494982Y1346200D01*
G01X3499601Y1348047D01*
G01X3503295Y1349433D01*
G01X3511608Y1351280D01*
G01X3519921Y1352204D01*
G01X3524539Y1352666D01*
G01X3529157Y1352204D01*
G01X3532390Y1351742D01*
G01X3537470Y1351280D01*
G01X3542088Y1350356D01*
G01X3546244Y1349433D01*
G01X3551324Y1348047D01*
G01X3555942Y1346200D01*
G01X3563331Y1342506D01*
G01X3567950Y1339734D01*
G01X3572568Y1336502D01*
G01X3575801Y1333731D01*
G01X3585037Y1324494D01*
G01X3587808Y1320800D01*
G01X3590117Y1317567D01*
G01X3592426Y1313873D01*
G01X3594273Y1310640D01*
G01X3597968Y1303251D01*
G01X3599815Y1299094D01*
G01X3601662Y1293553D01*
G01X3603510Y1287549D01*
G01X3604895Y1282931D01*
G01X3606742Y1273694D01*
G01X3607666Y1267229D01*
G01X3608590Y1257069D01*
G01X3609051Y1247371D01*
G01X3608590Y1237673D01*
G01X3608128Y1233516D01*
G01X3607666Y1226589D01*
G01X3606742Y1220124D01*
G01X3604895Y1210887D01*
G01X3603048Y1203498D01*
G01X3600277Y1195186D01*
G01X3598891Y1191491D01*
G01X3595197Y1183178D01*
G01X3593350Y1179946D01*
G01X3591041Y1175789D01*
G01X3588731Y1172556D01*
G01X3587346Y1170247D01*
G01X3585499Y1167938D01*
G01X3579957Y1161473D01*
G01X3577648Y1159164D01*
G01X3573030Y1155469D01*
G01X3569797Y1152698D01*
G01X3566564Y1150389D01*
G01X3563331Y1148542D01*
G01X3555942Y1144847D01*
G01X3550862Y1143000D01*
G01X3546706Y1141614D01*
G01X3537470Y1139767D01*
G01X3525462Y1139306D01*
G37*
G36*
G01X3634913Y1143000D02*
G01X3634913Y1356360D01*
G01X3665393Y1356360D01*
G01X3665393Y1268614D01*
G01X3779001Y1268614D01*
G01X3779001Y1310178D01*
G01X3779462Y1354051D01*
G01X3779924Y1356360D01*
G01X3809481Y1356360D01*
G01X3809481Y1143000D01*
G01X3779001Y1143000D01*
G01X3779001Y1238134D01*
G01X3665393Y1238134D01*
G01X3665393Y1143000D01*
G01X3634913Y1143000D01*
G37*
G04 Text End*
G54D10*

M02*

